<svg width="182" height="177" viewBox="0 0 182 177" fill="none" xmlns="http://www.w3.org/2000/svg">
<path fill-rule="evenodd" clip-rule="evenodd" d="M180.541 12.6518C178.718 14.9874 174.667 16.4724 171.975 15.7917C168.996 15.0382 166.259 11.304 166.259 7.99197C166.259 2.52556 171.058 -1.09343 176.353 0.380243C181.411 1.78721 183.726 8.57113 180.541 12.6518ZM157.377 11.6716C154.276 17.4329 145.983 17.251 143.195 11.3608C140.133 4.89148 146.566 -2.14108 153.025 0.614489C158.014 2.74389 159.775 7.21647 157.377 11.6716ZM132.534 13.2893C130.739 15.3141 129.847 15.7015 126.831 15.7652C123.697 15.8319 122.984 15.5355 121.06 13.3651C116.35 8.05488 119.507 0.300649 126.379 0.300649C130.277 0.300649 132.077 1.25202 133.527 4.07581C135.281 7.49543 134.951 10.5648 132.534 13.2893ZM110.216 11.5101C107.833 16.9932 99.4141 17.4086 96.2619 12.1992C94.0562 8.55445 94.3684 5.88076 97.3483 2.87806C100.908 -0.709098 105.178 -0.876623 108.449 2.44294C110.972 5.00368 111.614 8.29671 110.216 11.5101ZM85.1579 13.2689C83.1824 15.4968 82.4075 15.841 79.3682 15.841C76.356 15.841 75.5487 15.4907 73.6642 13.3651C68.8427 7.92753 72.1137 0.300648 79.2681 0.300648C83.9745 0.300648 86.5301 2.57636 87.0507 7.22936C87.3945 10.3003 87.1786 10.9901 85.1579 13.2689ZM62.5865 11.6716C61.6032 13.4978 60.2446 14.6501 58.2262 15.3679C50.175 18.2312 44.0324 8.44453 50.0652 2.36561C52.2679 0.146002 54.409 -0.405873 57.5927 0.425723C62.6918 1.75688 65.0563 7.08229 62.5865 11.6716ZM37.6769 13.3651C35.7924 15.4907 34.9852 15.841 31.973 15.841C28.9607 15.841 28.1535 15.4907 26.269 13.3651C22.2035 8.78035 24.0136 1.979 29.7161 0.412085C37.4836 -1.72338 43.0394 7.31804 37.6769 13.3651ZM16.0407 9.9076C15.5494 12.3478 12.2099 15.3604 9.41057 15.8895C4.91555 16.7393 6.57408e-06 12.5563 6.62983e-06 7.88129C6.65635e-06 5.65713 1.99362 2.01236 3.72016 1.08145C4.5161 0.65163 6.64964 0.300647 8.46119 0.300647C11.0762 0.300647 12.161 0.73047 13.7236 2.38532C15.7969 4.5822 16.5936 7.1672 16.0407 9.9076Z" fill="currentColor"/>
<path fill-rule="evenodd" clip-rule="evenodd" d="M180.541 35.6518C178.718 37.9874 174.667 39.4724 171.975 38.7917C168.996 38.0382 166.259 34.304 166.259 30.992C166.259 25.5256 171.058 21.9066 176.353 23.3802C181.411 24.7872 183.726 31.5711 180.541 35.6518ZM157.377 34.6716C154.276 40.4329 145.983 40.251 143.195 34.3608C140.133 27.8915 146.566 20.8589 153.025 23.6145C158.014 25.7439 159.775 30.2165 157.377 34.6716ZM132.534 36.2893C130.739 38.3141 129.847 38.7015 126.831 38.7652C123.697 38.8319 122.984 38.5355 121.06 36.3651C116.35 31.0549 119.507 23.3006 126.379 23.3006C130.277 23.3006 132.077 24.252 133.527 27.0758C135.281 30.4954 134.951 33.5648 132.534 36.2893ZM110.216 34.5101C107.833 39.9932 99.4141 40.4086 96.2619 35.1992C94.0562 31.5545 94.3684 28.8808 97.3483 25.8781C100.908 22.2909 105.178 22.1234 108.449 25.4429C110.972 28.0037 111.614 31.2967 110.216 34.5101ZM85.1579 36.2689C83.1824 38.4968 82.4075 38.841 79.3682 38.841C76.356 38.841 75.5487 38.4907 73.6642 36.3651C68.8427 30.9275 72.1137 23.3006 79.2681 23.3006C83.9745 23.3006 86.5301 25.5764 87.0507 30.2294C87.3945 33.3003 87.1786 33.9901 85.1579 36.2689ZM62.5865 34.6716C61.6032 36.4978 60.2446 37.6501 58.2262 38.3679C50.175 41.2312 44.0324 31.4445 50.0652 25.3656C52.2679 23.146 54.409 22.5941 57.5927 23.4257C62.6918 24.7569 65.0563 30.0823 62.5865 34.6716ZM37.6769 36.3651C35.7924 38.4907 34.9852 38.841 31.973 38.841C28.9607 38.841 28.1535 38.4907 26.269 36.3651C22.2035 31.7804 24.0136 24.979 29.716 23.4121C37.4836 21.2766 43.0394 30.318 37.6769 36.3651ZM16.0407 32.9076C15.5494 35.3478 12.2099 38.3604 9.41057 38.8895C4.91555 39.7393 4.1066e-08 35.5563 9.68146e-08 30.8813C1.23337e-07 28.6571 1.99361 25.0124 3.72015 24.0815C4.51609 23.6516 6.64963 23.3006 8.46118 23.3006C11.0762 23.3006 12.161 23.7305 13.7236 25.3853C15.7969 27.5822 16.5936 30.1672 16.0407 32.9076Z" fill="currentColor"/>
<path fill-rule="evenodd" clip-rule="evenodd" d="M180.541 58.6518C178.718 60.9874 174.667 62.4724 171.975 61.7917C168.996 61.0382 166.259 57.304 166.259 53.992C166.259 48.5256 171.058 44.9066 176.353 46.3802C181.411 47.7872 183.726 54.5711 180.541 58.6518ZM157.377 57.6716C154.276 63.4329 145.983 63.251 143.195 57.3608C140.133 50.8915 146.566 43.8589 153.025 46.6145C158.014 48.7439 159.775 53.2165 157.377 57.6716ZM132.534 59.2893C130.739 61.3141 129.847 61.7015 126.831 61.7652C123.697 61.8319 122.984 61.5355 121.06 59.3651C116.35 54.0549 119.507 46.3006 126.379 46.3006C130.277 46.3006 132.077 47.252 133.527 50.0758C135.281 53.4954 134.951 56.5648 132.534 59.2893ZM110.216 57.5101C107.833 62.9932 99.4141 63.4086 96.2619 58.1992C94.0562 54.5545 94.3684 51.8808 97.3483 48.8781C100.908 45.2909 105.178 45.1234 108.449 48.4429C110.972 51.0037 111.614 54.2967 110.216 57.5101ZM85.1579 59.2689C83.1824 61.4968 82.4075 61.841 79.3682 61.841C76.356 61.841 75.5487 61.4907 73.6642 59.3651C68.8427 53.9275 72.1137 46.3006 79.2681 46.3006C83.9745 46.3006 86.5301 48.5764 87.0507 53.2294C87.3945 56.3003 87.1786 56.9901 85.1579 59.2689ZM62.5865 57.6716C61.6032 59.4978 60.2446 60.6501 58.2262 61.3679C50.175 64.2312 44.0324 54.4445 50.0652 48.3656C52.2679 46.146 54.409 45.5941 57.5927 46.4257C62.6918 47.7569 65.0563 53.0823 62.5865 57.6716ZM37.6769 59.3651C35.7924 61.4907 34.9852 61.841 31.973 61.841C28.9607 61.841 28.1535 61.4907 26.269 59.3651C22.2035 54.7804 24.0136 47.979 29.716 46.4121C37.4836 44.2766 43.0394 53.318 37.6769 59.3651ZM16.0407 55.9076C15.5494 58.3478 12.2099 61.3604 9.41057 61.8895C4.91555 62.7393 4.1066e-08 58.5563 9.68146e-08 53.8813C1.23337e-07 51.6571 1.99361 48.0124 3.72015 47.0815C4.51609 46.6516 6.64963 46.3006 8.46118 46.3006C11.0762 46.3006 12.161 46.7305 13.7236 48.3853C15.7969 50.5822 16.5936 53.1672 16.0407 55.9076Z" fill="currentColor"/>
<path fill-rule="evenodd" clip-rule="evenodd" d="M180.541 81.6518C178.718 83.9874 174.667 85.4724 171.975 84.7917C168.996 84.0382 166.259 80.304 166.259 76.992C166.259 71.5256 171.058 67.9066 176.353 69.3802C181.411 70.7872 183.726 77.5711 180.541 81.6518ZM157.377 80.6716C154.276 86.4329 145.983 86.251 143.195 80.3608C140.133 73.8915 146.566 66.8589 153.025 69.6145C158.014 71.7439 159.775 76.2165 157.377 80.6716ZM132.534 82.2893C130.739 84.3141 129.847 84.7015 126.831 84.7652C123.697 84.8319 122.984 84.5355 121.06 82.3651C116.35 77.0549 119.507 69.3006 126.379 69.3006C130.277 69.3006 132.077 70.252 133.527 73.0758C135.281 76.4954 134.951 79.5648 132.534 82.2893ZM110.216 80.5101C107.833 85.9932 99.4141 86.4086 96.2619 81.1992C94.0562 77.5545 94.3684 74.8808 97.3483 71.8781C100.908 68.2909 105.178 68.1234 108.449 71.4429C110.972 74.0037 111.614 77.2967 110.216 80.5101ZM85.1579 82.2689C83.1824 84.4968 82.4075 84.841 79.3682 84.841C76.356 84.841 75.5487 84.4907 73.6642 82.3651C68.8427 76.9275 72.1137 69.3006 79.2681 69.3006C83.9745 69.3006 86.5301 71.5764 87.0507 76.2294C87.3945 79.3003 87.1786 79.9901 85.1579 82.2689ZM62.5865 80.6716C61.6032 82.4978 60.2446 83.6501 58.2262 84.3679C50.175 87.2312 44.0324 77.4445 50.0652 71.3656C52.2679 69.146 54.409 68.5941 57.5927 69.4257C62.6918 70.7569 65.0563 76.0823 62.5865 80.6716ZM37.6769 82.3651C35.7924 84.4907 34.9852 84.841 31.973 84.841C28.9607 84.841 28.1535 84.4907 26.269 82.3651C22.2035 77.7804 24.0136 70.979 29.7161 69.4121C37.4836 67.2766 43.0394 76.318 37.6769 82.3651ZM16.0407 78.9076C15.5494 81.3478 12.2099 84.3604 9.41057 84.8895C4.91555 85.7393 6.57408e-06 81.5563 6.62983e-06 76.8813C6.65635e-06 74.6571 1.99362 71.0124 3.72016 70.0815C4.5161 69.6516 6.64964 69.3006 8.46119 69.3006C11.0762 69.3006 12.161 69.7305 13.7236 71.3853C15.7969 73.5822 16.5936 76.1672 16.0407 78.9076Z" fill="currentColor"/>
<path fill-rule="evenodd" clip-rule="evenodd" d="M180.541 104.652C178.718 106.987 174.667 108.472 171.975 107.792C168.996 107.038 166.259 103.304 166.259 99.992C166.259 94.5256 171.058 90.9066 176.353 92.3802C181.411 93.7872 183.726 100.571 180.541 104.652ZM157.377 103.672C154.276 109.433 145.983 109.251 143.195 103.361C140.133 96.8915 146.566 89.8589 153.025 92.6145C158.014 94.7439 159.775 99.2165 157.377 103.672ZM132.534 105.289C130.739 107.314 129.847 107.701 126.831 107.765C123.697 107.832 122.984 107.535 121.06 105.365C116.35 100.055 119.507 92.3006 126.379 92.3006C130.277 92.3006 132.077 93.252 133.527 96.0758C135.281 99.4954 134.951 102.565 132.534 105.289ZM110.216 103.51C107.833 108.993 99.4141 109.409 96.2619 104.199C94.0562 100.554 94.3684 97.8808 97.3483 94.8781C100.908 91.2909 105.178 91.1234 108.449 94.4429C110.972 97.0037 111.614 100.297 110.216 103.51ZM85.1579 105.269C83.1824 107.497 82.4075 107.841 79.3682 107.841C76.356 107.841 75.5487 107.491 73.6642 105.365C68.8427 99.9275 72.1137 92.3006 79.2681 92.3006C83.9745 92.3006 86.5301 94.5764 87.0507 99.2294C87.3945 102.3 87.1786 102.99 85.1579 105.269ZM62.5865 103.672C61.6032 105.498 60.2446 106.65 58.2262 107.368C50.175 110.231 44.0324 100.445 50.0652 94.3656C52.2679 92.146 54.409 91.5941 57.5927 92.4257C62.6918 93.7569 65.0563 99.0823 62.5865 103.672ZM37.6769 105.365C35.7924 107.491 34.9852 107.841 31.973 107.841C28.9607 107.841 28.1535 107.491 26.269 105.365C22.2035 100.78 24.0136 93.979 29.7161 92.4121C37.4836 90.2766 43.0394 99.318 37.6769 105.365ZM16.0407 101.908C15.5494 104.348 12.2099 107.36 9.41057 107.889C4.91555 108.739 6.57408e-06 104.556 6.62983e-06 99.8813C6.65635e-06 97.6571 1.99362 94.0124 3.72016 93.0815C4.5161 92.6516 6.64964 92.3006 8.46119 92.3006C11.0762 92.3006 12.161 92.7305 13.7236 94.3853C15.7969 96.5822 16.5936 99.1672 16.0407 101.908Z" fill="currentColor"/>
<path fill-rule="evenodd" clip-rule="evenodd" d="M180.541 127.652C178.718 129.987 174.667 131.472 171.975 130.792C168.996 130.038 166.259 126.304 166.259 122.992C166.259 117.526 171.058 113.907 176.353 115.38C181.411 116.787 183.726 123.571 180.541 127.652ZM157.377 126.672C154.276 132.433 145.983 132.251 143.195 126.361C140.133 119.891 146.566 112.859 153.025 115.614C158.014 117.744 159.775 122.216 157.377 126.672ZM132.534 128.289C130.739 130.314 129.847 130.701 126.831 130.765C123.697 130.832 122.984 130.535 121.06 128.365C116.35 123.055 119.507 115.301 126.379 115.301C130.277 115.301 132.077 116.252 133.527 119.076C135.281 122.495 134.951 125.565 132.534 128.289ZM110.216 126.51C107.833 131.993 99.4141 132.409 96.2619 127.199C94.0562 123.554 94.3684 120.881 97.3483 117.878C100.908 114.291 105.178 114.123 108.449 117.443C110.972 120.004 111.614 123.297 110.216 126.51ZM85.1579 128.269C83.1824 130.497 82.4075 130.841 79.3682 130.841C76.356 130.841 75.5487 130.491 73.6642 128.365C68.8427 122.928 72.1137 115.301 79.2681 115.301C83.9745 115.301 86.5301 117.576 87.0507 122.229C87.3945 125.3 87.1786 125.99 85.1579 128.269ZM62.5865 126.672C61.6032 128.498 60.2446 129.65 58.2262 130.368C50.175 133.231 44.0324 123.445 50.0652 117.366C52.2679 115.146 54.409 114.594 57.5927 115.426C62.6918 116.757 65.0563 122.082 62.5865 126.672ZM37.6769 128.365C35.7924 130.491 34.9852 130.841 31.973 130.841C28.9607 130.841 28.1535 130.491 26.269 128.365C22.2035 123.78 24.0136 116.979 29.7161 115.412C37.4836 113.277 43.0394 122.318 37.6769 128.365ZM16.0407 124.908C15.5494 127.348 12.2099 130.36 9.41057 130.889C4.91555 131.739 6.57408e-06 127.556 6.62983e-06 122.881C6.65635e-06 120.657 1.99362 117.012 3.72016 116.081C4.5161 115.652 6.64964 115.301 8.46119 115.301C11.0762 115.301 12.161 115.73 13.7236 117.385C15.7969 119.582 16.5936 122.167 16.0407 124.908Z" fill="currentColor"/>
<path fill-rule="evenodd" clip-rule="evenodd" d="M180.541 150.652C178.718 152.987 174.667 154.472 171.975 153.792C168.996 153.038 166.259 149.304 166.259 145.992C166.259 140.526 171.058 136.907 176.353 138.38C181.411 139.787 183.726 146.571 180.541 150.652ZM157.377 149.672C154.276 155.433 145.983 155.251 143.195 149.361C140.133 142.891 146.566 135.859 153.025 138.614C158.014 140.744 159.775 145.216 157.377 149.672ZM132.534 151.289C130.739 153.314 129.847 153.701 126.831 153.765C123.697 153.832 122.984 153.535 121.06 151.365C116.35 146.055 119.507 138.301 126.379 138.301C130.277 138.301 132.077 139.252 133.527 142.076C135.281 145.495 134.951 148.565 132.534 151.289ZM110.216 149.51C107.833 154.993 99.4141 155.409 96.2619 150.199C94.0562 146.554 94.3684 143.881 97.3483 140.878C100.908 137.291 105.178 137.123 108.449 140.443C110.972 143.004 111.614 146.297 110.216 149.51ZM85.1579 151.269C83.1824 153.497 82.4075 153.841 79.3682 153.841C76.356 153.841 75.5487 153.491 73.6642 151.365C68.8427 145.928 72.1137 138.301 79.2681 138.301C83.9745 138.301 86.5301 140.576 87.0507 145.229C87.3945 148.3 87.1786 148.99 85.1579 151.269ZM62.5865 149.672C61.6032 151.498 60.2446 152.65 58.2262 153.368C50.175 156.231 44.0324 146.445 50.0652 140.366C52.2679 138.146 54.409 137.594 57.5927 138.426C62.6918 139.757 65.0563 145.082 62.5865 149.672ZM37.6769 151.365C35.7924 153.491 34.9852 153.841 31.973 153.841C28.9607 153.841 28.1535 153.491 26.269 151.365C22.2035 146.78 24.0136 139.979 29.7161 138.412C37.4836 136.277 43.0394 145.318 37.6769 151.365ZM16.0407 147.908C15.5494 150.348 12.2099 153.36 9.41057 153.889C4.91555 154.739 6.57408e-06 150.556 6.62983e-06 145.881C6.65635e-06 143.657 1.99362 140.012 3.72016 139.081C4.5161 138.652 6.64964 138.301 8.46119 138.301C11.0762 138.301 12.161 138.73 13.7236 140.385C15.7969 142.582 16.5936 145.167 16.0407 147.908Z" fill="currentColor"/>
<path fill-rule="evenodd" clip-rule="evenodd" d="M180.541 173.652C178.718 175.987 174.667 177.472 171.975 176.792C168.996 176.038 166.259 172.304 166.259 168.992C166.259 163.526 171.058 159.907 176.353 161.38C181.411 162.787 183.726 169.571 180.541 173.652ZM157.377 172.672C154.276 178.433 145.983 178.251 143.195 172.361C140.133 165.891 146.566 158.859 153.025 161.614C158.014 163.744 159.775 168.216 157.377 172.672ZM132.534 174.289C130.739 176.314 129.847 176.701 126.831 176.765C123.697 176.832 122.984 176.535 121.06 174.365C116.35 169.055 119.507 161.301 126.379 161.301C130.277 161.301 132.077 162.252 133.527 165.076C135.281 168.495 134.951 171.565 132.534 174.289ZM110.216 172.51C107.833 177.993 99.4141 178.409 96.2619 173.199C94.0562 169.554 94.3684 166.881 97.3483 163.878C100.908 160.291 105.178 160.123 108.449 163.443C110.972 166.004 111.614 169.297 110.216 172.51ZM85.1579 174.269C83.1824 176.497 82.4075 176.841 79.3682 176.841C76.356 176.841 75.5487 176.491 73.6642 174.365C68.8427 168.928 72.1137 161.301 79.2681 161.301C83.9745 161.301 86.5301 163.576 87.0507 168.229C87.3945 171.3 87.1786 171.99 85.1579 174.269ZM62.5865 172.672C61.6032 174.498 60.2446 175.65 58.2262 176.368C50.175 179.231 44.0324 169.445 50.0652 163.366C52.2679 161.146 54.409 160.594 57.5927 161.426C62.6918 162.757 65.0563 168.082 62.5865 172.672ZM37.6769 174.365C35.7924 176.491 34.9852 176.841 31.973 176.841C28.9607 176.841 28.1535 176.491 26.269 174.365C22.2035 169.78 24.0136 162.979 29.7161 161.412C37.4836 159.277 43.0394 168.318 37.6769 174.365ZM16.0407 170.908C15.5494 173.348 12.2099 176.36 9.41057 176.889C4.91555 177.739 6.57408e-06 173.556 6.62983e-06 168.881C6.65635e-06 166.657 1.99362 163.012 3.72016 162.081C4.5161 161.652 6.64964 161.301 8.46119 161.301C11.0762 161.301 12.161 161.73 13.7236 163.385C15.7969 165.582 16.5936 168.167 16.0407 170.908Z" fill="currentColor"/>
</svg>
