<svg width="238" height="69" viewBox="0 0 238 69" fill="none" xmlns="http://www.w3.org/2000/svg">
<path d="M44.664 42.288C43.384 42.288 42.744 41.488 42.744 39.888V13.584C42.744 11.984 43.384 11.184 44.664 11.184H53.688C57.896 11.184 60.912 11.8 62.736 13.032C64.576 14.248 65.496 16.272 65.496 19.104C65.496 20.32 65.344 21.352 65.04 22.2C64.752 23.048 64.328 23.768 63.768 24.36C65.016 25.048 65.952 26.056 66.576 27.384C67.2 28.712 67.512 30.336 67.512 32.256V33.168C67.512 35.44 67.12 37.24 66.336 38.568C65.552 39.896 64.256 40.848 62.448 41.424C60.64 42 58.2 42.288 55.128 42.288H44.664ZM46.776 38.256H55.128C56.888 38.256 58.376 38.184 59.592 38.04C60.808 37.896 61.704 37.6 62.28 37.152C62.76 36.768 63.08 36.256 63.24 35.616C63.4 34.96 63.48 34.144 63.48 33.168V32.4C63.48 31.36 63.392 30.512 63.216 29.856C63.04 29.184 62.696 28.672 62.184 28.32C61.656 27.904 60.896 27.632 59.904 27.504C58.928 27.376 57.624 27.312 55.992 27.312H46.776V38.256ZM46.776 23.28H53.688C55.768 23.28 57.368 23.176 58.488 22.968C59.608 22.744 60.384 22.352 60.816 21.792C61.248 21.216 61.464 20.4 61.464 19.344C61.464 18.304 61.248 17.504 60.816 16.944C60.4 16.384 59.632 16 58.512 15.792C57.392 15.568 55.784 15.456 53.688 15.456H46.776V23.28ZM83.9626 42.288C80.8906 42.288 78.4426 42.016 76.6186 41.472C74.8106 40.912 73.5066 39.992 72.7066 38.712C71.9226 37.416 71.5306 35.664 71.5306 33.456V28.416C71.5306 26.208 71.9226 24.464 72.7066 23.184C73.5066 21.888 74.8106 20.968 76.6186 20.424C78.4426 19.864 80.8906 19.584 83.9626 19.584H85.3546C88.4266 19.584 90.8666 19.864 92.6746 20.424C94.4826 20.984 95.7786 21.912 96.5626 23.208C97.3466 24.488 97.7386 26.224 97.7386 28.416V31.008H75.5626V33.312C75.5626 34.72 75.7546 35.784 76.1386 36.504C76.5386 37.208 77.3386 37.68 78.5386 37.92C79.7386 38.144 81.5466 38.256 83.9626 38.256H91.3546C92.1066 38.256 92.6026 38.12 92.8426 37.848C93.0986 37.576 93.2266 37.04 93.2266 36.24C93.2266 35.44 93.4026 34.816 93.7546 34.368C94.1226 33.92 94.6266 33.696 95.2666 33.696C95.9226 33.712 96.4186 33.96 96.7546 34.44C97.0906 34.904 97.2586 35.568 97.2586 36.432C97.2586 37.76 97.0586 38.864 96.6586 39.744C96.2586 40.608 95.6426 41.248 94.8106 41.664C93.9946 42.08 92.9546 42.288 91.6906 42.288H83.9626ZM75.5866 26.976H93.6826C93.5066 25.568 92.9386 24.672 91.9786 24.288C91.4026 24.064 90.5466 23.896 89.4106 23.784C88.2906 23.672 86.9386 23.616 85.3546 23.616H83.9626C82.2346 23.616 80.8026 23.68 79.6666 23.808C78.5466 23.92 77.7226 24.096 77.1946 24.336C76.2346 24.736 75.6986 25.616 75.5866 26.976ZM111.252 42.624C109.78 42.624 109.044 41.904 109.044 40.464V23.616H102.132C100.564 23.616 99.7803 22.944 99.7803 21.6C99.7803 20.256 100.564 19.584 102.132 19.584H120.42C121.988 19.584 122.772 20.256 122.772 21.6C122.772 22.944 121.988 23.616 120.42 23.616H113.556V40.464C113.556 41.12 113.348 41.64 112.932 42.024C112.516 42.424 111.956 42.624 111.252 42.624ZM128.008 42.624C126.664 42.624 125.992 41.856 125.992 40.32V17.856C125.992 15.424 126.408 13.704 127.24 12.696C128.088 11.688 129.528 11.184 131.56 11.184H147.64C149.272 11.184 150.088 11.856 150.088 13.2C150.088 14.544 149.272 15.216 147.64 15.216H131.896C131.144 15.216 130.64 15.344 130.384 15.6C130.144 15.856 130.024 16.384 130.024 17.184V40.32C130.024 41.856 129.352 42.624 128.008 42.624ZM155.171 51.024C153.859 51.024 153.203 50.208 153.203 48.576V21.552C153.203 20.016 153.891 19.248 155.267 19.248C155.987 19.248 156.483 19.472 156.755 19.92C157.043 20.368 157.187 21.136 157.187 22.224V23.664L156.467 22.704C157.475 21.6 158.747 20.808 160.283 20.328C161.835 19.832 163.619 19.584 165.635 19.584H167.027C170.099 19.584 172.539 19.864 174.347 20.424C176.155 20.984 177.451 21.912 178.235 23.208C179.019 24.488 179.411 26.224 179.411 28.416V33.456C179.411 35.648 179.019 37.392 178.235 38.688C177.451 39.968 176.163 40.888 174.371 41.448C172.595 42.008 170.195 42.288 167.171 42.288H157.235V48.576C157.235 50.208 156.547 51.024 155.171 51.024ZM157.235 38.256H167.171C169.539 38.256 171.307 38.144 172.475 37.92C173.643 37.68 174.419 37.208 174.803 36.504C175.187 35.784 175.379 34.72 175.379 33.312V28.56C175.379 27.136 175.179 26.072 174.779 25.368C174.395 24.664 173.603 24.2 172.403 23.976C171.219 23.736 169.427 23.616 167.027 23.616H165.635C162.739 23.616 160.611 24.208 159.251 25.392C157.907 26.56 157.235 28.384 157.235 30.864V38.256ZM204.375 42.624C203.975 42.624 203.647 42.504 203.391 42.264C203.135 42.04 202.943 41.552 202.815 40.8C202.703 40.048 202.647 38.896 202.647 37.344L203.175 38.592C202.167 39.984 200.903 40.952 199.383 41.496C197.879 42.024 196.103 42.288 194.055 42.288H189.591C187.847 42.288 186.423 41.712 185.319 40.56C184.231 39.392 183.687 37.632 183.687 35.28C183.687 33.808 183.927 32.568 184.407 31.56C184.887 30.536 185.631 29.712 186.639 29.088C187.647 28.448 188.935 27.984 190.503 27.696C192.071 27.408 193.943 27.264 196.119 27.264H204.231L202.407 28.896V25.344C202.407 24.64 202.287 24.176 202.047 23.952C201.823 23.728 201.319 23.616 200.535 23.616H193.767C192.151 23.616 190.911 23.656 190.047 23.736C189.199 23.816 188.607 23.976 188.271 24.216C187.935 24.44 187.751 24.768 187.719 25.2C187.655 26.032 187.503 26.648 187.263 27.048C187.023 27.448 186.503 27.648 185.703 27.648C184.359 27.648 183.687 26.784 183.687 25.056C183.687 23.152 184.479 21.768 186.063 20.904C187.647 20.024 190.103 19.584 193.431 19.584H200.871C202.919 19.584 204.359 20.072 205.191 21.048C206.023 22.024 206.439 23.712 206.439 26.112V40.32C206.439 41.856 205.751 42.624 204.375 42.624ZM189.735 38.448H194.055C197.079 38.448 199.223 37.84 200.487 36.624C201.767 35.392 202.407 33.456 202.407 30.816L202.695 31.104H196.119C194.007 31.104 192.335 31.208 191.103 31.416C189.887 31.608 189.015 31.992 188.487 32.568C187.975 33.144 187.719 34 187.719 35.136C187.719 36.16 187.895 36.968 188.247 37.56C188.615 38.152 189.111 38.448 189.735 38.448ZM211.043 46.704C209.699 46.704 209.027 45.888 209.027 44.256V42C209.027 39.456 210.211 38.208 212.579 38.256H213.827L211.667 39.216C215.171 33.84 216.899 27.296 216.851 19.584H231.971V38.256H233.267C235.411 38.256 236.483 39.504 236.483 42V44.256C236.483 45.888 235.811 46.704 234.467 46.704C233.123 46.704 232.451 45.888 232.451 44.256V42.288H213.059V44.256C213.059 45.888 212.387 46.704 211.043 46.704ZM216.875 38.256H227.795V23.616H221.219C221.027 28.848 219.579 33.728 216.875 38.256Z" fill="#FF891B"/>
<path d="M44.1 65.14C43.82 65.14 43.68 64.94 43.68 64.54V52.76C43.68 52.3467 43.8067 52.14 44.06 52.14C44.26 52.14 44.4333 52.2533 44.58 52.48L48.32 58.16L52.08 52.48C52.2267 52.2533 52.3933 52.14 52.58 52.14C52.8467 52.14 52.98 52.3467 52.98 52.76V64.54C52.98 64.94 52.84 65.14 52.56 65.14C52.28 65.14 52.14 64.94 52.14 64.54V53.86L48.67 59.16C48.6033 59.2667 48.5433 59.3367 48.49 59.37C48.4433 59.4033 48.3933 59.42 48.34 59.42C48.2933 59.42 48.24 59.4033 48.18 59.37C48.1267 59.3367 48.0633 59.2667 47.99 59.16L44.52 53.86V64.54C44.52 64.94 44.38 65.14 44.1 65.14ZM64.1162 65.14C63.9429 65.14 63.8296 65.0733 63.7762 64.94C63.7229 64.8 63.6962 64.5767 63.6962 64.27C63.7029 63.9567 63.7029 63.54 63.6962 63.02L63.8362 63.36C63.4762 63.9067 63.0096 64.3167 62.4362 64.59C61.8696 64.8633 61.1896 65 60.3962 65H58.5362C57.9296 65 57.4362 64.79 57.0562 64.37C56.6829 63.9433 56.4962 63.28 56.4962 62.38C56.4962 61.6067 56.6262 61.0067 56.8862 60.58C57.1529 60.1467 57.4962 59.8333 57.9162 59.64C58.3429 59.44 58.7962 59.3167 59.2762 59.27C59.7629 59.2233 60.2229 59.2 60.6562 59.2H64.0762L63.6962 59.58V57.92C63.6962 57.4467 63.6096 57.1133 63.4362 56.92C63.2629 56.72 62.9496 56.62 62.4962 56.62H59.6762C59.1429 56.62 58.7029 56.67 58.3562 56.77C58.0096 56.87 57.7529 57.02 57.5862 57.22C57.4196 57.42 57.3362 57.6733 57.3362 57.98C57.3362 58.1467 57.3096 58.28 57.2562 58.38C57.2096 58.4733 57.0962 58.52 56.9162 58.52C56.6362 58.52 56.4962 58.3067 56.4962 57.88C56.4962 57.1867 56.7796 56.6633 57.3462 56.31C57.9196 55.9567 58.6496 55.78 59.5362 55.78H62.6362C63.3696 55.78 63.8696 55.96 64.1363 56.32C64.4029 56.68 64.5362 57.3267 64.5362 58.26V64.54C64.5362 64.94 64.3962 65.14 64.1162 65.14ZM58.5362 64.16H60.3962C61.6096 64.16 62.4729 63.7833 62.9862 63.03C63.4996 62.27 63.7362 61.16 63.6962 59.7L64.0762 60.04H60.6562C59.9629 60.04 59.3662 60.09 58.8662 60.19C58.3729 60.29 57.9929 60.5 57.7262 60.82C57.4662 61.14 57.3362 61.6267 57.3362 62.28C57.3362 62.9667 57.4596 63.4533 57.7062 63.74C57.9596 64.02 58.2362 64.16 58.5362 64.16ZM68.5198 68.64C68.2532 68.64 68.1198 68.44 68.1198 68.04V56.24C68.1198 55.84 68.2598 55.64 68.5398 55.64C68.6798 55.64 68.7832 55.69 68.8498 55.79C68.9232 55.89 68.9598 56.04 68.9598 56.24V57.6L68.8198 57.42C69.1932 56.8667 69.6665 56.4567 70.2398 56.19C70.8198 55.9167 71.4998 55.78 72.2798 55.78H72.8598C73.7932 55.78 74.5665 55.8767 75.1798 56.07C75.7932 56.2633 76.2498 56.6133 76.5498 57.12C76.8498 57.6267 76.9998 58.3467 76.9998 59.28V61.5C76.9998 62.4333 76.8498 63.1533 76.5498 63.66C76.2498 64.1667 75.7932 64.5167 75.1798 64.71C74.5665 64.9033 73.7932 65 72.8598 65H68.9598V68.04C68.9598 68.44 68.8132 68.64 68.5198 68.64ZM68.9598 64.16H72.8598C73.6932 64.16 74.3498 64.0933 74.8298 63.96C75.3098 63.8267 75.6498 63.57 75.8498 63.19C76.0565 62.8033 76.1598 62.24 76.1598 61.5V59.28C76.1598 58.4933 76.0498 57.9133 75.8298 57.54C75.6098 57.16 75.2565 56.9133 74.7698 56.8C74.2898 56.68 73.6532 56.62 72.8598 56.62H72.2798C71.2132 56.62 70.3932 56.9433 69.8198 57.59C69.2465 58.2367 68.9598 59.16 68.9598 60.36V64.16ZM80.7809 65.14C80.6409 65.14 80.5343 65.0933 80.4609 65C80.3943 64.9133 80.3609 64.78 80.3609 64.6V56.2C80.3609 56.0067 80.3943 55.8667 80.4609 55.78C80.5343 55.6867 80.6409 55.64 80.7809 55.64C80.9209 55.64 81.0243 55.6867 81.0909 55.78C81.1643 55.8667 81.2009 56.0067 81.2009 56.2V59.96H83.4209C83.6943 59.96 83.9543 59.81 84.2009 59.51C84.4543 59.2033 84.7009 58.84 84.9409 58.42C85.1543 58.06 85.4009 57.6533 85.6809 57.2C85.9676 56.7467 86.3543 56.3667 86.8409 56.06C87.2876 55.7667 87.7609 55.62 88.2609 55.62C88.5009 55.62 88.6809 55.6567 88.8009 55.73C88.9209 55.7967 88.9809 55.9 88.9809 56.04C88.9809 56.24 88.9009 56.36 88.7409 56.4C88.5809 56.44 88.4543 56.46 88.3609 56.46C87.8609 56.4867 87.4409 56.65 87.1009 56.95C86.7609 57.25 86.4809 57.58 86.2609 57.94C85.9743 58.42 85.7443 58.7967 85.5709 59.07C85.4043 59.3433 85.2509 59.57 85.1109 59.75C84.9709 59.9233 84.8076 60.1067 84.6209 60.3C85.3543 60.5867 85.8943 60.9367 86.2409 61.35C86.5876 61.7633 86.8543 62.2067 87.0409 62.68C87.2609 63.2267 87.4509 63.6267 87.6109 63.88C87.7709 64.1267 88.0209 64.2667 88.3609 64.3C88.5209 64.3067 88.6643 64.3333 88.7909 64.38C88.9176 64.42 88.9809 64.5267 88.9809 64.7C88.9809 64.9933 88.7609 65.14 88.3209 65.14C87.8543 65.14 87.4743 64.99 87.1809 64.69C86.8943 64.39 86.6543 64.0267 86.4609 63.6C86.3743 63.4067 86.2609 63.1667 86.1209 62.88C85.9876 62.5867 85.8009 62.2933 85.5609 62C85.3209 61.7 85.0009 61.4467 84.6009 61.24C84.0543 60.9467 83.3276 60.8 82.4209 60.8H81.2009V64.6C81.2009 64.78 81.1643 64.9133 81.0909 65C81.0243 65.0933 80.9209 65.14 80.7809 65.14ZM95.6827 65C94.7427 65 93.966 64.9033 93.3527 64.71C92.7393 64.5167 92.2793 64.1667 91.9727 63.66C91.6727 63.1533 91.5227 62.4333 91.5227 61.5V59.28C91.5227 58.3467 91.6727 57.6267 91.9727 57.12C92.2793 56.6133 92.7393 56.2633 93.3527 56.07C93.966 55.8767 94.7427 55.78 95.6827 55.78H96.2627C97.196 55.78 97.9693 55.8767 98.5827 56.07C99.196 56.2633 99.6527 56.6133 99.9527 57.12C100.253 57.6267 100.403 58.3467 100.403 59.28V60H92.3627V61.5C92.3627 62.2467 92.466 62.81 92.6727 63.19C92.8793 63.57 93.2227 63.8267 93.7027 63.96C94.1893 64.0933 94.8493 64.16 95.6827 64.16H98.3627C98.816 64.16 99.1293 64.06 99.3027 63.86C99.476 63.66 99.5627 63.34 99.5627 62.9C99.5627 62.68 99.606 62.52 99.6927 62.42C99.786 62.3133 99.8827 62.26 99.9827 62.26C100.096 62.26 100.193 62.3067 100.273 62.4C100.359 62.4933 100.403 62.6267 100.403 62.8C100.403 63.2067 100.359 63.5767 100.273 63.91C100.193 64.2433 100.016 64.51 99.7427 64.71C99.476 64.9033 99.0627 65 98.5027 65H95.6827ZM92.3627 59.16H99.5627C99.5627 58.2333 99.3693 57.5867 98.9827 57.22C98.736 56.98 98.3893 56.82 97.9427 56.74C97.496 56.66 96.936 56.62 96.2627 56.62H95.6827C95.036 56.62 94.496 56.6533 94.0627 56.72C93.6293 56.7867 93.2827 56.9267 93.0227 57.14C92.5827 57.4867 92.3627 58.16 92.3627 59.16ZM106.631 65.14C106.351 65.14 106.211 64.96 106.211 64.6V56.62H103.111C102.737 56.62 102.551 56.48 102.551 56.2C102.551 55.92 102.737 55.78 103.111 55.78H110.131C110.504 55.78 110.691 55.92 110.691 56.2C110.691 56.48 110.504 56.62 110.131 56.62H107.051V64.6C107.051 64.78 107.014 64.9133 106.941 65C106.874 65.0933 106.771 65.14 106.631 65.14Z" fill="#FF891B"/>
<path fill-rule="evenodd" clip-rule="evenodd" d="M10.474 10.1362C10.364 10.2112 10.2169 10.3494 10.1472 10.4434C10.0221 10.6122 10.0204 10.6635 10.0041 14.6035L9.98774 18.5928L10.4722 18.2591C11.4015 17.6189 12.5785 17.1394 13.835 16.8891C14.698 16.7173 16.2081 16.705 17.0742 16.8629C18.2274 17.0731 19.6096 17.628 20.5485 18.2577C20.7778 18.4114 20.9753 18.5371 20.9875 18.5371C20.9998 18.5371 21.0098 16.7766 21.0098 14.6249C21.0098 10.7524 21.0085 10.7105 20.8815 10.4846C20.811 10.3591 20.6507 10.1988 20.5252 10.1282C20.2981 10.0006 20.2741 10 15.4856 10H10.6742L10.474 10.1362ZM0.605592 20.0582C0.522341 20.0915 0.390349 20.1783 0.312183 20.2512C-0.0124688 20.5543 6.43882e-05 20.343 6.43882e-05 25.5183V30.3258L0.136295 30.526C0.211251 30.6361 0.349419 30.7831 0.443448 30.8528C0.611829 30.9776 0.668137 30.9797 4.3033 30.996C6.33222 31.005 7.99224 30.9988 7.99224 30.982C7.99224 30.9653 7.90057 30.808 7.7885 30.6325C6.01193 27.8502 5.96095 24.1178 7.66014 21.2278C7.83754 20.926 8.09383 20.5386 8.22964 20.3668C8.36551 20.1949 8.47661 20.0399 8.47661 20.0223C8.47661 19.9607 0.761682 19.996 0.605592 20.0582ZM12.7452 20.0872C12.2014 20.3838 11.9665 20.8574 11.9976 21.5941C12.0156 22.0186 12.0446 22.1309 12.2021 22.3855C12.6233 23.0665 13.3381 23.2142 13.8733 22.7307C14.2666 22.3754 14.3783 22.1043 14.3792 21.5039C14.3799 21.0451 14.3603 20.9538 14.1991 20.6628C14.094 20.473 13.9214 20.2721 13.7867 20.1831C13.4933 19.9889 13.0074 19.9442 12.7452 20.0872ZM17.3238 20.1216C16.8471 20.3575 16.5522 20.9877 16.6054 21.657C16.6407 22.1019 16.8048 22.4398 17.1268 22.7307C17.662 23.2142 18.3769 23.0665 18.798 22.3855C18.9533 22.1341 18.9848 22.0153 19.0032 21.6103C19.019 21.2626 18.9968 21.0583 18.9216 20.8615C18.6377 20.1182 17.9623 19.8054 17.3238 20.1216ZM22.5918 20.1048C23.6157 21.5177 24.1084 22.585 24.4396 24.1074C24.6088 24.8851 24.5955 26.8213 24.4155 27.6302C24.1757 28.708 23.7332 29.8175 23.2293 30.6054C23.1075 30.7958 23.0078 30.9647 23.0078 30.9806C23.0078 30.9967 24.6457 31.0098 26.6475 31.0098C30.2426 31.0098 30.29 31.0082 30.5154 30.8815C30.6409 30.811 30.8012 30.6507 30.8718 30.5251C30.9994 30.2981 31 30.2738 31 25.5C31 20.7262 30.9994 20.7019 30.8718 20.4749C30.8012 20.3493 30.6409 20.189 30.5154 20.1185C30.2895 19.9916 30.2472 19.9902 26.398 19.9902C22.593 19.9902 22.5105 19.9927 22.5918 20.1048ZM9.35454 23.4123C8.49374 23.8446 8.33681 25.3342 9.08123 26.0067C9.53067 26.4127 10.0678 26.4206 10.5153 26.0277C11.2857 25.3513 11.1524 23.8611 10.2809 23.4057C10.0667 23.2939 9.58353 23.2972 9.35454 23.4123ZM20.7373 23.3873C20.2684 23.6594 19.982 24.1817 19.9811 24.7664C19.9803 25.3141 20.0855 25.6051 20.4032 25.9329C20.8794 26.4244 21.4269 26.4511 21.9188 26.0067C22.5855 25.4043 22.544 24.1114 21.8398 23.5414C21.6492 23.3871 21.5477 23.3528 21.2346 23.3366C21.0221 23.3256 20.8057 23.3477 20.7373 23.3873ZM14.6723 25.0083C14.1204 25.2128 13.7152 25.5453 13.3348 26.1055C13.1153 26.4289 12.7875 26.7457 12.4108 26.9985C11.7827 27.4199 11.3742 28.041 11.2504 28.7625C11.0188 30.1134 11.9854 31.402 13.3949 31.6215C13.7928 31.6834 14.0977 31.6408 14.9532 31.4041C15.1352 31.3537 15.3814 31.3125 15.5 31.3125C15.6187 31.3125 15.8648 31.3537 16.0469 31.4041C16.9024 31.6408 17.2073 31.6834 17.6051 31.6215C18.725 31.4471 19.5707 30.6178 19.7535 29.5146C19.9106 28.5665 19.4533 27.5782 18.5893 26.9985C18.1946 26.7336 17.8824 26.4258 17.6198 26.0427C17.3167 25.6006 16.9917 25.3141 16.5543 25.1037C16.0749 24.873 15.1621 24.8268 14.6723 25.0083ZM10.004 36.7242C10.0203 40.3315 10.0224 40.3882 10.1472 40.5566C10.2169 40.6506 10.364 40.7888 10.474 40.8638L10.6742 41H15.4856C20.2741 41 20.2981 40.9994 20.5252 40.8718C20.6507 40.8012 20.811 40.6409 20.8815 40.5154C21.0082 40.2901 21.0098 40.242 21.0098 36.6791V33.0711L20.5103 33.3956C19.4094 34.1106 18.151 34.6029 16.93 34.7959C16.1479 34.9197 14.8423 34.9173 14.0423 34.7908C12.8496 34.6021 11.4445 34.046 10.4288 33.3606L9.98749 33.0628L10.004 36.7242Z" fill="#FF891B"/>
</svg>
