<svg width="53" height="53" viewBox="0 0 53 53" fill="none" xmlns="http://www.w3.org/2000/svg">
<path fill-rule="evenodd" clip-rule="evenodd" d="M17.9072 0.23291C17.7191 0.361063 17.4676 0.597285 17.3485 0.758045C17.1346 1.04665 17.1316 1.13443 17.1039 7.8705L17.0758 14.6908L17.904 14.1204C19.4929 13.0258 21.5051 12.2061 23.6534 11.7782C25.1288 11.4843 27.7107 11.4634 29.1915 11.7334C31.1629 12.0927 33.5261 13.0414 35.1314 14.118C35.5233 14.3807 35.861 14.5957 35.8819 14.5957C35.9029 14.5957 35.92 11.5859 35.92 7.90714C35.92 1.28629 35.9178 1.21465 35.7007 0.828539C35.5801 0.613951 35.306 0.339842 35.0914 0.219246C34.7032 0.00103517 34.6621 0 26.4754 0L18.2495 0L17.9072 0.23291ZM1.03537 17.1963C0.893034 17.2532 0.66737 17.4016 0.533732 17.5262C-0.0213176 18.0445 0.000110083 17.6832 0.000110083 26.5313L0.000110083 34.7506L0.23302 35.0928C0.361172 35.281 0.597394 35.5325 0.758153 35.6516C1.04603 35.865 1.1423 35.8686 7.35726 35.8964C10.8261 35.9118 13.6641 35.9012 13.6641 35.8725C13.6641 35.8438 13.5074 35.575 13.3158 35.2749C10.2785 30.5182 10.1913 24.1368 13.0964 19.1959C13.3997 18.68 13.8378 18.0176 14.07 17.7238C14.3023 17.4301 14.4923 17.1651 14.4923 17.1348C14.4923 17.0297 1.30223 17.0899 1.03537 17.1963ZM21.7901 17.2458C20.8604 17.7529 20.4588 18.5626 20.5121 19.8221C20.5428 20.5479 20.5924 20.74 20.8617 21.1753C21.5817 22.3395 22.8038 22.592 23.7188 21.7654C24.3912 21.1579 24.5823 20.6944 24.5838 19.668C24.5849 18.8835 24.5515 18.7275 24.2759 18.2299C24.0961 17.9054 23.8011 17.562 23.5709 17.4098C23.0692 17.0778 22.2385 17.0013 21.7901 17.2458ZM29.618 17.3046C28.8031 17.708 28.2989 18.7854 28.3898 19.9298C28.4502 20.6903 28.7308 21.268 29.2813 21.7654C30.1963 22.592 31.4185 22.3395 32.1384 21.1752C32.4041 20.7455 32.4579 20.5423 32.4894 19.85C32.5164 19.2554 32.4784 18.9062 32.3498 18.5697C31.8645 17.2989 30.7098 16.7641 29.618 17.3046ZM38.6246 17.276C40.3752 19.6915 41.2176 21.5163 41.7839 24.1191C42.0731 25.4488 42.0505 28.7589 41.7427 30.142C41.3326 31.9847 40.5762 33.8816 39.7145 35.2286C39.5064 35.5541 39.336 35.8428 39.336 35.8701C39.336 35.8976 42.1362 35.9199 45.5587 35.9199C51.705 35.9199 51.7862 35.9172 52.1715 35.7007C52.3861 35.5801 52.6602 35.306 52.7808 35.0914C52.999 34.7032 53 34.6617 53 26.5C53 18.3383 52.999 18.2968 52.7808 17.9086C52.6602 17.694 52.3861 17.4199 52.1715 17.2993C51.7854 17.0824 51.713 17.0801 45.132 17.0801C38.6268 17.0801 38.4857 17.0843 38.6246 17.276ZM15.9932 22.9307C14.5216 23.6699 14.2533 26.2165 15.526 27.3662C16.2944 28.0605 17.2127 28.074 17.9778 27.4021C19.2949 26.2458 19.067 23.6979 17.577 22.9195C17.2109 22.7282 16.3847 22.734 15.9932 22.9307ZM35.4541 22.888C34.6524 23.3532 34.1628 24.2462 34.1612 25.2458C34.1598 26.1822 34.3398 26.6797 34.8828 27.2401C35.6971 28.0805 36.6331 28.126 37.4741 27.3662C38.6139 26.3364 38.543 24.126 37.339 23.1515C37.0131 22.8876 36.8396 22.8289 36.3043 22.8013C35.9411 22.7824 35.5711 22.8202 35.4541 22.888ZM25.0849 25.6594C24.1413 26.009 23.4485 26.5774 22.7982 27.5352C22.4229 28.0881 21.8625 28.6297 21.2184 29.0619C20.1446 29.7824 19.4462 30.8443 19.2346 32.0778C18.8386 34.3874 20.4912 36.5905 22.901 36.9657C23.5812 37.0716 24.1025 36.9989 25.5651 36.5941C25.8764 36.508 26.2972 36.4375 26.5001 36.4375C26.7029 36.4375 27.1237 36.508 27.435 36.5941C28.8976 36.9989 29.4189 37.0716 30.0991 36.9657C32.0137 36.6676 33.4596 35.2498 33.7721 33.3636C34.0407 31.7428 33.2589 30.0531 31.7817 29.0619C31.1069 28.609 30.5731 28.0829 30.1242 27.4279C29.606 26.6719 29.0504 26.1822 28.3026 25.8224C27.4828 25.4281 25.9222 25.349 25.0849 25.6594ZM17.1037 45.6898C17.1315 51.8571 17.1351 51.9541 17.3485 52.242C17.4676 52.4027 17.7191 52.6389 17.9072 52.7671L18.2495 53H26.4754C34.6621 53 34.7032 52.999 35.0914 52.7808C35.306 52.6602 35.5801 52.3861 35.7007 52.1715C35.9172 51.7863 35.92 51.7041 35.92 45.6127V39.4441L35.066 39.9989C33.1837 41.2214 31.0323 42.063 28.9448 42.3931C27.6077 42.6046 25.3755 42.6006 24.0078 42.3843C21.9687 42.0616 19.5664 41.1109 17.8298 39.939L17.0754 39.4299L17.1037 45.6898Z" fill="currentColor"/>
</svg>
