<svg width="71" height="85" viewBox="0 0 71 85" fill="none" xmlns="http://www.w3.org/2000/svg">
<path fill-rule="evenodd" clip-rule="evenodd" d="M24.0241 0.327478C21.0913 1.09573 19.0142 2.98839 17.8656 5.93886L17.4339 7.04783L17.3819 20.3308C17.3276 34.1911 17.3766 35.4984 18.0389 37.8987C18.4781 39.4903 19.6206 41.8741 20.6759 43.4006C22.0869 45.4416 24.6591 47.7109 26.7896 48.7943C27.1866 48.9962 27.4854 49.185 27.4537 49.2141C27.422 49.243 26.7984 49.4271 26.0678 49.6234C16.3394 52.2353 8.09181 59.0488 3.64235 68.1494C1.41065 72.7141 0.186792 77.5704 0.0506413 82.4014L0 84.2006L0.483665 84.6167C0.859241 84.9399 1.0819 85.0108 1.47989 84.934C2.35623 84.7649 2.51148 84.403 2.63717 82.2337C3.27973 71.1585 8.8868 61.6361 18.1811 55.8365C19.525 54.9978 21.012 54.2384 21.1128 54.339C21.1544 54.3808 21.0314 55.2264 20.8393 56.2182C20.5303 57.812 20.0141 61.9297 20.0093 62.8382C20.0078 63.1059 19.7974 63.2326 18.952 63.4748C16.222 64.2565 14.1216 66.2714 13.1729 69.0185C12.7946 70.1137 12.7848 70.2898 12.7848 76.0362C12.7848 81.7499 12.7958 81.9509 13.1417 82.5968C14.318 84.793 17.1968 85.7464 17.855 84.1577C18.1354 83.4803 17.8217 82.7683 17.129 82.5108C15.2146 81.7987 15.3322 82.2613 15.3916 75.6789L15.4414 70.1419L15.8927 69.2232C16.4687 68.0503 17.6668 66.8522 18.8397 66.2762C19.6435 65.8814 19.9557 65.8249 21.3358 65.8249C22.7159 65.8249 23.028 65.8814 23.8318 66.2762C25.0047 66.8522 26.2028 68.0503 26.7788 69.2232L27.2301 70.1419L27.2799 75.6789C27.3338 81.6677 27.3133 81.8259 26.4326 82.1719C26.232 82.2508 25.8314 82.4032 25.5425 82.5108C24.8498 82.7683 24.5361 83.4803 24.8166 84.1577C25.4747 85.7464 28.3535 84.793 29.5298 82.5968C29.8706 81.9606 29.889 81.6871 29.9368 76.54C29.9786 72.0571 29.9419 70.947 29.7195 69.947C29.0145 66.7776 26.732 64.3266 23.7018 63.4851C22.4972 63.1506 22.546 63.3239 22.8332 60.4048C23.1304 57.3829 24.0576 53.1415 24.4777 52.882C24.5569 52.833 26.8464 55.8202 29.5652 59.5203C33.0249 64.2285 34.6249 66.2769 34.8958 66.3449C35.8137 66.5752 35.9575 66.4154 40.8537 59.7234C43.4765 56.1388 45.6919 53.1314 45.7769 53.0401C45.9937 52.8073 46.2961 53.2627 46.9229 54.7664C48.2032 57.8385 49.1061 62.8489 49.8018 70.7414L49.8986 71.8391L48.9025 72.2024C46.9624 72.9097 45.4936 74.4562 44.8869 76.43C43.7089 80.263 46.1452 84.1999 50.1161 84.8802C52.8942 85.356 55.8372 83.8451 57.0764 81.3069C58.7861 77.8048 56.9977 73.3939 53.3709 72.168C52.969 72.0321 52.5896 71.8195 52.5278 71.6955C52.466 71.5716 52.335 70.381 52.2366 69.0497C51.8905 64.3641 51.1411 59.7063 50.2114 56.4631C49.9396 55.5149 49.7527 54.7036 49.7958 54.6604C49.8963 54.56 51.4648 55.4464 52.9774 56.4584C59.9284 61.1086 64.879 68.12 66.9181 76.2022C67.4035 78.1268 67.8261 81.2634 67.8261 82.9428C67.8261 84.0425 67.8734 84.2344 68.2337 84.5946C68.7826 85.1437 69.5356 85.1342 70.0985 84.5712C70.5282 84.1415 70.5292 84.1347 70.4155 82.2051C69.9084 73.6084 66.6894 66.0707 60.8014 59.6927C56.4109 54.9369 49.8971 51.026 43.7639 49.4631L43.0297 49.2762L43.8469 48.8279C46.4146 47.4196 48.6246 45.3856 50.2227 42.9596C51.3546 41.2415 52.0717 39.6128 52.6874 37.3619L53.1222 35.7722L53.1775 21.9912C53.216 12.3638 53.1768 7.88482 53.0473 7.13084C52.4572 3.69554 49.5856 0.789227 46.1692 0.169909C45.5335 0.0546793 41.6467 -0.00542612 35.2108 0.000385178C25.936 0.00885306 25.1526 0.0317662 24.0241 0.327478ZM47.2757 3.27746C48.5424 3.90126 49.3928 4.78042 50.0394 6.13462L50.4752 7.04783L50.5256 12.1535L50.576 17.2591H35.2829H19.9897L20.0402 12.1535L20.0905 7.04783L20.5529 6.17015C21.4424 4.48206 22.5616 3.52352 24.2972 2.96398C25.172 2.68188 25.9672 2.66329 35.7016 2.69583L46.1658 2.73086L47.2757 3.27746ZM34.6791 5.4987C34.1634 5.74842 33.9546 6.34067 33.9546 7.55374V8.62518H32.8831C31.5904 8.62518 31.0531 8.84385 30.7909 9.47695C30.6385 9.84505 30.6385 10.0619 30.7909 10.43C31.0531 11.0631 31.5904 11.2818 32.8831 11.2818H33.9546V12.3532C33.9546 13.646 34.1732 14.1833 34.8063 14.4454C35.1744 14.5979 35.3913 14.5979 35.7594 14.4454C36.3925 14.1833 36.6112 13.646 36.6112 12.3532V11.2818H37.6826C38.9754 11.2818 39.5126 11.0631 39.7748 10.43C39.9272 10.0619 39.9272 9.84505 39.7748 9.47695C39.5126 8.84385 38.9754 8.62518 37.6826 8.62518H36.6112V7.55374C36.6112 6.30597 36.4013 5.74543 35.8379 5.48874C35.3554 5.26891 35.1499 5.27073 34.6791 5.4987ZM30.3625 20.8589C34.269 24.4771 40.9318 27.0302 48.2337 27.7073C49.2839 27.8046 50.2367 27.8846 50.3507 27.885C50.7109 27.886 50.6285 34.415 50.2448 36.2733C48.781 43.3659 42.5199 48.4697 35.2829 48.4697C28.0402 48.4697 21.7859 43.3714 20.3209 36.2733C20.0466 34.9447 20.0116 33.9388 20.0096 27.3458L20.0075 19.9157H24.6758H29.3442L30.3625 20.8589ZM50.5583 22.5723V25.2289H49.9707C48.8629 25.2289 46.1578 24.8785 44.1658 24.4772C40.8786 23.8149 37.9698 22.7433 35.2829 21.205C32.8454 19.8093 32.2934 19.9157 41.9718 19.9157H50.5583V22.5723ZM40.5965 51.4408C41.6469 51.6246 42.676 51.8378 42.8834 51.9145C43.2389 52.0462 43.0375 52.3567 39.3509 57.3622C37.2008 60.2816 35.3705 62.6702 35.2837 62.6702C34.9858 62.6702 27.3255 52.0505 27.5377 51.9314C27.8195 51.7735 30.3394 51.3135 31.8984 51.1353C33.9468 50.9012 38.41 51.0579 40.5965 51.4408ZM52.9972 74.7642C53.6489 75.1012 54.4701 75.9185 54.8352 76.5934C55.2193 77.3031 55.2234 79.4107 54.8424 80.1142C54.5048 80.7374 53.6157 81.6305 53.0247 81.94C51.8841 82.5375 50.1513 82.4303 49.0555 81.6942C46.3261 79.8614 46.7984 75.7455 49.8695 74.5967C50.6263 74.3136 52.299 74.4032 52.9972 74.7642Z" fill="#469797"/>
<path d="M33.8288 7.54087C33.8288 6.32781 34.0376 5.73555 34.5534 5.48583C35.0241 5.25787 35.2984 5.25912 35.7809 5.47895C36.3443 5.73564 36.6111 6.22361 36.6111 7.47138V8.61231H37.5568C38.8496 8.61231 39.5037 8.83072 39.7658 9.46382C39.9183 9.83193 39.9183 10.0919 39.7658 10.46C39.5037 11.0931 38.8496 11.2689 37.5568 11.2689H36.6111V12.5355C36.6111 13.8283 36.331 14.2658 35.6979 14.528C35.3298 14.6804 35.0486 14.585 34.6805 14.4326C34.0474 14.1704 33.8288 13.6331 33.8288 12.3403V11.2689H32.7573C31.4646 11.2689 30.9273 11.0502 30.6651 10.4171C30.5127 10.049 30.5127 9.83219 30.6651 9.46408C30.9273 8.83098 31.4646 8.61231 32.7573 8.61231H33.8288V7.54087Z" fill="#FF891B"/>
</svg>
