<svg width="80" height="80" viewBox="0 0 80 80" fill="none" xmlns="http://www.w3.org/2000/svg">
<path fill-rule="evenodd" clip-rule="evenodd" d="M36.0983 0.179249C29.8582 0.76603 23.2594 3.13619 17.874 6.72516C4.23808 15.8123 -2.5103 32.2596 0.855578 48.2018C3.02407 58.4717 9.11978 67.459 17.874 73.293C32.6631 83.1487 52.1024 82.0527 65.7604 70.5932C76.9954 61.1665 82.1775 46.1491 79.1474 31.7978C74.9356 11.8498 56.442 -1.7333 36.0983 0.179249ZM44.7496 3.46963C56.5668 5.01829 66.6141 11.9439 72.4984 22.5963C75.1906 27.4706 76.8526 34.1168 76.8526 40.0091C76.8526 58.4937 63.0802 74.1453 44.6946 76.5555C28.2316 78.7136 12.2133 69.3696 5.88628 53.9172C-0.726129 37.7683 4.99409 19.1075 19.5294 9.40874C27.0398 4.39747 35.9028 2.31049 44.7496 3.46963ZM30.0404 21.0929C26.8686 21.947 24.7522 24.2737 24.1366 27.5833C23.5378 30.8032 25.4934 34.5584 28.4818 35.9264C30.8671 37.0185 33.1185 37.0185 35.5039 35.9264C38.4923 34.5584 40.4479 30.8032 39.8491 27.5833C39.5235 25.8328 38.7673 24.3346 37.6406 23.2077C36.5119 22.0792 35.4989 21.51 33.8593 21.0829C32.4579 20.7178 31.4233 20.7206 30.0404 21.0929ZM53.6947 21.0408C53.1516 21.3498 24.2664 56.652 24.0825 57.2314C23.7126 58.3972 25.0778 59.5579 26.1793 59.0142C26.7985 58.7088 55.6924 23.5179 55.9245 22.7868C56.1148 22.1876 55.6938 21.2799 55.1006 21.0098C54.4824 20.728 54.2353 20.7334 53.6947 21.0408ZM33.4029 24.187C36.3603 25.0085 37.7429 28.833 36.0136 31.4078C33.0941 35.755 26.4935 33.1119 27.2738 27.9082C27.6803 25.1974 30.6186 23.4136 33.4029 24.187ZM46.0618 43.5228C42.8899 44.3769 40.7735 46.7036 40.1579 50.0132C39.7253 52.3399 40.6179 55.0617 42.3971 56.8411C44.1765 58.6203 46.8983 59.5129 49.225 59.0803C52.7795 58.4192 55.2094 55.9894 55.8704 52.4348C56.3 50.1241 55.4106 47.3865 53.6619 45.6376C52.5332 44.5091 51.5202 43.9399 49.8807 43.5127C48.4792 43.1477 47.4446 43.1505 46.0618 43.5228ZM49.4242 46.6169C52.3816 47.4384 53.7642 51.2629 52.0349 53.8377C50.0889 56.7352 45.9394 56.7352 43.9934 53.8377C42.3076 51.3276 43.514 47.721 46.3824 46.6962C47.2642 46.3812 48.4634 46.3499 49.4242 46.6169Z" fill="#469797"/>
<path fill-rule="evenodd" clip-rule="evenodd" d="M30.052 21.1164C26.8802 21.9705 24.7637 24.2972 24.1481 27.6068C23.5493 30.8267 25.5049 34.5819 28.4933 35.9499C30.8787 37.042 33.1301 37.042 35.5155 35.9499C38.5038 34.5819 40.4594 30.8267 39.8606 27.6068C39.535 25.8563 38.7788 24.3581 37.6521 23.2312C36.5234 22.1027 35.5104 21.5335 33.8709 21.1064C32.4694 20.7413 31.4348 20.7441 30.052 21.1164ZM53.7063 21.0643C53.1631 21.3733 24.2779 56.6755 24.094 57.2549C23.7242 58.4207 25.0894 59.5814 26.1908 59.0377C26.8101 58.7323 55.7039 23.5414 55.936 22.8102C56.1263 22.211 55.7053 21.3034 55.1121 21.0333C54.4939 20.7515 54.2468 20.7569 53.7063 21.0643ZM33.4145 24.2105C36.3718 25.032 37.7544 28.8565 36.0251 31.4313C33.1056 35.7785 26.5051 33.1354 27.2853 27.9317C27.6918 25.2208 30.6301 23.4371 33.4145 24.2105ZM46.0733 43.5463C42.9015 44.4004 40.7851 46.7271 40.1694 50.0367C39.7369 52.3634 40.6295 55.0852 42.4086 56.8646C44.188 58.6438 46.9098 59.5363 49.2365 59.1038C52.791 58.4427 55.2209 56.0128 55.882 52.4583C56.3115 50.1476 55.4222 47.41 53.6734 45.6611C52.5447 44.5326 51.5318 43.9634 49.8922 43.5362C48.4907 43.1711 47.4562 43.174 46.0733 43.5463ZM49.4358 46.6404C52.3931 47.4619 53.7758 51.2864 52.0465 53.8612C50.1005 56.7586 45.9509 56.7586 44.005 53.8612C42.3191 51.351 43.5255 47.7444 46.3939 46.7197C47.2757 46.4047 48.4749 46.3734 49.4358 46.6404Z" fill="#FF891B"/>
</svg>
