<svg width="80" height="69" viewBox="0 0 80 69" fill="none" xmlns="http://www.w3.org/2000/svg">
<path fill-rule="evenodd" clip-rule="evenodd" d="M5.46476 0.246033C2.84242 0.879518 0.669365 3.16627 0.164476 5.82405C0.0587821 6.38011 0.000569311 15.6459 0.000569311 31.9115C0.000569311 60.0741 -0.061871 58.4918 1.12108 60.3187C2.60177 62.6055 4.87288 63.7743 7.83555 63.7743H8.78126V65.875C8.78126 67.862 8.80077 67.9895 9.14273 68.2284C9.68502 68.6076 20.5607 68.6076 21.103 68.2284C21.445 67.9895 21.4645 67.862 21.4645 65.875V63.7743H40.0015H58.5385V65.875C58.5385 67.862 58.558 67.9895 58.9 68.2284C59.2101 68.4453 60.0579 68.4812 64.8801 68.4812C69.7023 68.4812 70.5502 68.4453 70.8602 68.2284C71.2022 67.9895 71.2217 67.862 71.2217 65.875V63.7743H72.1674C73.4912 63.7743 74.8945 63.4892 75.8963 63.0171C77.0126 62.4909 78.405 61.2074 79.0164 60.1407C80.0445 58.3469 79.9974 59.6966 80 31.9435C80.0016 15.6946 79.944 6.3746 79.839 5.81204C79.3226 3.05038 76.941 0.67842 74.1551 0.151083C73.5909 0.0442848 61.6934 -0.0078157 39.8574 0.000948893C11.4934 0.0124727 6.27811 0.0496408 5.46476 0.246033ZM75.0387 2.41365C76.0703 2.92021 77.0643 3.91239 77.5718 4.94207L77.9698 5.74939L78.0129 26.9711L78.0559 48.1928H75.6145H73.173L73.1694 29.4057C73.1658 10.8635 73.1616 10.609 72.8349 9.88822C72.43 8.99407 71.6796 8.18984 70.8152 7.72337L70.1648 7.37246H40.0015H9.83819L9.18777 7.72337C8.32336 8.18984 7.57294 8.99407 7.16805 9.88822C6.84138 10.609 6.83715 10.8635 6.83357 29.4057L6.82999 48.1928H4.39091H1.95183V27.2809C1.95183 10.0916 1.99135 6.23809 2.17347 5.63382C2.64274 4.0773 4.05188 2.64802 5.59354 2.16451C6.13063 1.99619 12.8927 1.9613 40.2454 1.9858L74.2299 2.01632L75.0387 2.41365ZM70.0375 9.51005C70.3521 9.65905 70.7471 10.0061 70.915 10.281C71.2092 10.7624 71.2206 11.4715 71.2211 29.4868L71.2217 48.1928H40.0015H8.78126L8.78191 29.4868C8.7824 11.5087 8.79427 10.7616 9.08614 10.2838C9.77088 9.16303 7.28464 9.24679 39.9769 9.24273C67.1904 9.23932 69.5093 9.25993 70.0375 9.51005ZM10.988 11.604C10.8429 11.7489 10.7325 12.1331 10.7325 12.4929C10.7325 12.9975 10.8194 13.1837 11.1577 13.4049C11.5387 13.6541 11.6277 13.6581 12.0114 13.4442C12.348 13.2564 12.4504 13.0625 12.4888 12.5405C12.522 12.0914 12.4524 11.7903 12.274 11.6124C11.9389 11.2779 11.3189 11.2738 10.988 11.604ZM11.0719 14.7169C10.7283 14.998 10.725 15.0569 10.7693 20.432L10.8138 25.8632L11.2423 26.1032C11.6265 26.3184 11.7145 26.3145 12.096 26.0649L12.5212 25.7869V20.3626C12.5212 14.9412 12.521 14.9381 12.1597 14.6855C11.6966 14.3617 11.499 14.3674 11.0719 14.7169ZM27.7682 16.2487C27.5207 16.5006 26.6783 18.7168 25.2044 22.9928L23.0092 29.3617L19.9153 29.3633C16.4665 29.3653 16.0985 29.4591 16.0985 30.3365C16.0985 31.2785 16.2457 31.3128 20.2844 31.3128C23.3647 31.3128 24.004 31.2724 24.2359 31.0628C24.388 30.9255 25.3451 28.4111 26.3625 25.4752C27.3801 22.5394 28.2581 20.2235 28.3137 20.3285C28.3695 20.4335 29.1266 22.9296 29.9964 25.8755C30.866 28.8214 31.6527 31.323 31.7444 31.4345C31.8361 31.5462 32.1542 31.6374 32.4512 31.6374C32.9706 31.6374 33.0719 31.5189 35.0737 28.5713C36.219 26.885 37.2016 25.5885 37.2574 25.6903C37.3131 25.7922 38.3686 28.7863 39.6029 32.3441C40.8373 35.9017 41.9493 38.9146 42.0742 39.0393C42.3562 39.3207 43.1562 39.3353 43.3821 39.063C43.4746 38.9515 44.5192 36.1577 45.7034 32.8547C46.8875 29.5518 47.9035 26.795 47.9607 26.7284C48.0181 26.662 48.6498 27.7211 49.3648 29.0819L50.6645 31.5563H51.3034H51.9423L53.6425 28.8376L55.3428 26.119L59.1764 26.1165C63.4536 26.1139 63.7895 26.0485 63.8726 25.2024C63.9721 24.1894 63.8855 24.1713 58.945 24.1713C55.4108 24.1713 54.4511 24.2167 54.2755 24.392C54.1538 24.5134 53.4737 25.5359 52.7641 26.6643C52.0546 27.7927 51.4354 28.7143 51.3883 28.7121C51.3411 28.71 50.6806 27.5283 49.9204 26.0858C49.1602 24.6436 48.414 23.3881 48.2623 23.2961C48.0776 23.1841 47.8355 23.1817 47.5308 23.2886C47.1054 23.438 46.936 23.835 44.958 29.318C43.7934 32.5462 42.8001 35.228 42.7507 35.2775C42.7011 35.327 41.6871 32.559 40.4974 29.1267C39.3076 25.6942 38.2097 22.7735 38.0575 22.6358C37.6387 22.2577 37.1461 22.3346 36.7232 22.8442C36.5141 23.0963 35.5746 24.4446 34.6355 25.8404C33.6965 27.2361 32.8768 28.3812 32.8138 28.3848C32.7509 28.3883 32.6255 28.1239 32.5351 27.7972C31.6904 24.7432 29.1754 16.4807 29.0383 16.3086C28.6933 15.8757 28.1591 15.8506 27.7682 16.2487ZM78.0209 54.0764C77.9716 57.8719 77.9557 58.0411 77.5718 58.8197C77.0646 59.8484 76.0805 60.8306 75.0429 61.3435L74.2299 61.7454H40.0015H5.77306L4.71613 61.1645C3.48309 60.4869 2.55754 59.3942 2.19314 58.1857C2.01102 57.5814 1.95183 56.4982 1.95183 53.7628V50.1404H40.0119H78.0721L78.0209 54.0764ZM6.26088 53.7378C4.30587 54.8146 4.28181 57.3573 6.21713 58.3563C6.88284 58.6999 8.0214 58.6741 8.66158 58.3009C9.33916 57.9059 9.91348 56.8893 9.91689 56.0789C9.92047 55.2299 9.2746 54.1525 8.55898 53.8134C7.92189 53.5117 6.74203 53.4729 6.26088 53.7378ZM13.6578 53.9141C12.4256 54.7511 12.07 55.935 12.6753 57.1836C13.5884 59.0662 16.2118 59.1159 17.2024 57.2695C18.1159 55.5664 16.9001 53.5489 14.9603 53.5489C14.4347 53.5489 14.0271 53.6632 13.6578 53.9141ZM45.5637 53.8198C44.8842 54.154 44.2292 55.2508 44.2292 56.0544C44.2292 57.8108 45.9286 59.0224 47.6599 58.5001C47.8747 58.4353 48.2896 58.1555 48.582 57.8784C50.2507 56.2969 49.1139 53.5403 46.7984 53.5526C46.4138 53.5546 45.8582 53.6748 45.5637 53.8198ZM53.208 53.8188C52.4086 54.2121 51.9798 54.9217 51.9062 55.9729C51.854 56.7179 51.9096 56.9742 52.2237 57.4355C53.6768 59.5697 56.9137 58.6346 56.9118 56.0812C56.9103 54.1188 54.9867 52.9436 53.208 53.8188ZM60.5711 53.8509C59.8793 54.2773 59.5746 54.6699 59.352 55.4219C58.687 57.6684 61.4831 59.559 63.3802 58.1451C64.8037 57.0843 64.643 54.6725 63.0941 53.8498C62.3633 53.4617 61.2015 53.4622 60.5711 53.8509ZM70.2797 53.8198C69.5885 54.1598 68.9452 55.2499 68.9452 56.0814C68.9452 58.4085 71.8224 59.5093 73.387 57.7806C74.174 56.9111 74.3019 56.0598 73.7979 55.0459C73.3045 54.0537 72.5476 53.5478 71.5635 53.5526C71.152 53.5546 70.5742 53.6748 70.2797 53.8198ZM7.65375 55.5023C8.03002 55.7034 8.06742 56.3485 7.71945 56.6368C7.52936 56.7942 7.37619 56.7997 7.06903 56.66C6.61015 56.4513 6.54413 55.9674 6.92284 55.5893C7.22529 55.2875 7.24691 55.2849 7.65375 55.5023ZM15.2962 55.5023C15.757 55.7485 15.7053 56.4344 15.209 56.66C14.9019 56.7997 14.7487 56.7942 14.5586 56.6368C14.223 56.3588 14.2435 55.7136 14.5944 55.5096C14.9515 55.302 14.9219 55.3023 15.2962 55.5023ZM47.2259 55.5893C47.6046 55.9674 47.5386 56.4513 47.0797 56.66C46.7725 56.7997 46.6194 56.7942 46.4293 56.6368C46.0937 56.3588 46.1142 55.7136 46.4651 55.5096C46.8506 55.2854 46.9296 55.2937 47.2259 55.5893ZM55.0913 56.0238C55.1181 56.1585 55.0178 56.3907 54.8683 56.5401C54.5273 56.8802 54.174 56.8166 53.8711 56.3605C53.6595 56.0419 53.6707 55.9731 53.9855 55.6589C54.3004 55.3447 54.3693 55.3335 54.6885 55.5446C54.8831 55.6735 55.0644 55.889 55.0913 56.0238ZM62.1266 55.5023C62.5028 55.7034 62.5402 56.3485 62.1922 56.6368C62.0022 56.7942 61.849 56.7997 61.5418 56.66C61.0829 56.4513 61.0169 55.9674 61.3956 55.5893C61.6981 55.2875 61.7197 55.2849 62.1266 55.5023ZM71.9419 55.5893C72.3206 55.9674 72.2546 56.4513 71.7957 56.66C71.4886 56.7997 71.3354 56.7942 71.1453 56.6368C70.8097 56.3588 70.8302 55.7136 71.1811 55.5096C71.5666 55.2854 71.6456 55.2937 71.9419 55.5893ZM19.6758 65.1565V66.5387L15.1635 66.4955L10.6512 66.4523L10.6041 65.1133L10.5567 63.7743H15.1164H19.6758V65.1565ZM69.3989 65.1133L69.3518 66.4523L64.8395 66.4955L60.3272 66.5387V65.1565V63.7743H64.8866H69.4462L69.3989 65.1133Z" fill="#0D8570"/>
<path d="M6.77037 58.575C4.83504 57.576 4.8591 55.0333 6.81411 53.9565C7.29526 53.6916 8.47512 53.7304 9.11221 54.0321C9.82784 54.3712 10.4737 55.4486 10.4701 56.2976C10.4667 57.108 9.89239 58.1246 9.21481 58.5196C8.57463 58.8928 7.43607 58.9186 6.77037 58.575Z" fill="#FF891B"/>
<path d="M13.2286 57.4023C12.6232 56.1537 12.9788 54.9698 14.211 54.1328C14.5803 53.8818 14.988 53.7676 15.5135 53.7676C17.4534 53.7676 18.6692 55.7851 17.7557 57.4882C16.7651 59.3346 14.1416 59.2849 13.2286 57.4023Z" fill="#FF891B"/>
<path d="M44.7825 56.2731C44.7825 55.4695 45.4374 54.3727 46.117 54.0385C46.4114 53.8935 46.9671 53.7733 47.3516 53.7713C49.6671 53.759 50.8039 56.5156 49.1352 58.0971C48.8429 58.3742 48.4279 58.654 48.2131 58.7188C46.4818 59.2411 44.7825 58.0295 44.7825 56.2731Z" fill="#FF891B"/>
<path d="M52.4594 56.1916C52.533 55.1404 52.9618 54.4308 53.7612 54.0375C55.5399 53.1623 57.4636 54.3374 57.465 56.2999C57.467 58.8533 54.23 59.7884 52.777 57.6542C52.4628 57.1929 52.4072 56.9366 52.4594 56.1916Z" fill="#FF891B"/>
<path d="M59.9052 55.6406C60.1278 54.8886 60.4326 54.496 61.1243 54.0696C61.7547 53.6809 62.9165 53.6804 63.6473 54.0685C65.1963 54.8912 65.3569 57.303 63.9335 58.3638C62.0363 59.7777 59.2402 57.8871 59.9052 55.6406Z" fill="#FF891B"/>
<path d="M69.4985 56.3001C69.4985 55.4686 70.1417 54.3785 70.833 54.0385C71.1274 53.8935 71.7052 53.7733 72.1167 53.7713C73.1008 53.7665 73.8577 54.2724 74.3511 55.2645C74.8552 56.2785 74.7272 57.1298 73.9402 57.9993C72.3756 59.728 69.4985 58.6272 69.4985 56.3001Z" fill="#FF891B"/>
<path d="M12.2653 12.505L12.2652 12.5048C12.2053 12.445 12.0999 12.3983 11.9705 12.3975C11.8463 12.3967 11.7486 12.4382 11.6926 12.4896C11.6901 12.4936 11.6855 12.5014 11.6792 12.514C11.6644 12.5439 11.6471 12.5876 11.6308 12.6445C11.5978 12.7595 11.5769 12.899 11.5769 13.0315C11.5769 13.2688 11.6002 13.349 11.6158 13.3824C11.6236 13.3991 11.6426 13.4379 11.7757 13.525L11.7758 13.525C11.863 13.582 11.9146 13.6125 11.9492 13.6295C11.9811 13.6162 12.03 13.5919 12.1122 13.5461L12.2653 12.505ZM12.2653 12.505C12.2831 12.5227 12.3649 12.6309 12.3346 13.0422L12.3346 13.0424M12.2653 12.505L12.3346 13.0424M12.3346 13.0424C12.3164 13.2887 12.2863 13.381 12.2642 13.4227M12.3346 13.0424L12.2642 13.4227M11.6136 20.9664L11.6136 20.9665L11.6558 26.1074L11.831 26.2055C11.9129 26.2514 11.9618 26.2759 11.9939 26.2893C12.0284 26.2722 12.0799 26.2418 12.1666 26.1851L12.1667 26.185L12.3656 26.0549V20.9011C12.3656 18.1785 12.3652 16.8455 12.3213 16.156C12.3009 15.8347 12.2729 15.7086 12.2569 15.6618C12.2492 15.6562 12.2369 15.6473 12.2176 15.6339L12.2176 15.6338C12.0451 15.5133 11.9771 15.4915 11.9617 15.4877C11.9463 15.4929 11.8832 15.5194 11.7329 15.6424L11.6136 20.9664ZM11.6136 20.9664C11.5914 18.2679 11.5816 16.9312 11.6188 16.2292M11.6136 20.9664L11.6188 16.2292M37.4523 23.7021C37.2633 23.9299 36.3412 25.2512 35.3947 26.6581L35.3947 26.6581C34.9233 27.3587 34.4808 27.9981 34.1471 28.4642C33.9807 28.6966 33.8388 28.8896 33.7327 29.0266C33.6805 29.094 33.6321 29.1543 33.5913 29.2006C33.572 29.2225 33.5461 29.2508 33.5174 29.2773C33.5039 29.2898 33.479 29.3118 33.4462 29.334C33.4458 29.3342 33.4453 29.3346 33.4446 29.335C33.4275 29.3468 33.3291 29.4144 33.1866 29.4225C33.0018 29.433 32.8734 29.345 32.8239 29.3064C32.7659 29.261 32.7252 29.2115 32.7007 29.1787C32.6499 29.111 32.609 29.0342 32.5774 28.9676C32.5116 28.829 32.4485 28.6529 32.3976 28.4691L32.3976 28.469C31.9771 26.9487 31.1387 24.1247 30.3874 21.6563C30.0119 20.4228 29.6589 19.2804 29.3915 18.4364C29.2576 18.014 29.1459 17.6685 29.0637 17.4243C29.0225 17.3017 28.9899 17.2082 28.9663 17.1444C28.9627 17.1347 28.9595 17.126 28.9566 17.1184C28.8743 17.0322 28.7966 17.0076 28.7413 17.005C28.6797 17.0021 28.5865 17.0237 28.481 17.126C28.4771 17.1322 28.4613 17.1562 28.433 17.2092C28.3916 17.2868 28.3383 17.3983 28.2723 17.5478C28.1407 17.8461 27.9697 18.2709 27.7579 18.8279C27.335 19.9405 26.7579 21.5576 26.0215 23.6942L23.8263 30.0632L23.7102 30.4L23.3539 30.4002L20.26 30.4018C19.3977 30.4023 18.7378 30.4086 18.2303 30.4309C17.7163 30.4534 17.3903 30.4914 17.1815 30.5446C17.0802 30.5705 17.0241 30.5957 16.9948 30.6129C16.981 30.6211 16.9744 30.6267 16.972 30.6289L16.97 30.6309L37.4523 23.7021ZM37.4523 23.7021C37.6155 23.5054 37.7444 23.4504 37.8134 23.4397C37.8592 23.4325 37.9265 23.4363 38.0216 23.508C38.0291 23.5227 38.0382 23.5415 38.0492 23.5648C38.091 23.6537 38.1475 23.7838 38.2178 23.9544C38.3578 24.2942 38.5444 24.7739 38.7647 25.3602C39.2051 26.5316 39.7755 28.1157 40.3694 29.829C40.9648 31.5469 41.5168 33.0999 41.9264 34.2183C42.1311 34.7769 42.3013 35.2299 42.4241 35.5418C42.4851 35.6964 42.5368 35.8226 42.5765 35.9112C42.5951 35.9527 42.6171 35.9996 42.6398 36.0396C42.648 36.0541 42.6729 36.0979 42.7116 36.142L42.7118 36.1423C42.726 36.1585 42.7818 36.2222 42.8764 36.2674C42.9295 36.2927 43.0209 36.3249 43.137 36.3148C43.2639 36.3037 43.3716 36.2464 43.4483 36.1699L43.4489 36.1693C43.4943 36.1238 43.5212 36.0784 43.5263 36.0699L43.5268 36.069C43.5364 36.0529 43.5438 36.0388 43.5482 36.0301C43.5573 36.0122 43.5656 35.994 43.5722 35.9792C43.5858 35.9485 43.602 35.9096 43.6198 35.8658C43.6557 35.777 43.7045 35.652 43.764 35.4967C43.8832 35.1854 44.0491 34.7426 44.2494 34.2019C44.6501 33.1201 45.1901 31.6412 45.7727 30.0262L45.3024 29.8566L45.7727 30.0262C46.7644 27.2772 47.2952 25.8246 47.6309 25.0379C47.8008 24.6398 47.9046 24.4519 47.9736 24.3589C48.0121 24.3069 48.0224 24.3041 48.0346 24.3008C48.0365 24.3003 48.0386 24.2997 48.0408 24.2989C48.1907 24.2463 48.2726 24.2449 48.3133 24.2514C48.3371 24.2829 48.3687 24.3273 48.4082 24.3859C48.5038 24.5279 48.6297 24.7295 48.7778 24.9786C49.0731 25.4755 49.4455 26.1423 49.8225 26.8575C50.2039 27.5812 50.5611 28.241 50.8296 28.7216C50.9636 28.9612 51.0774 29.1596 51.1619 29.3001C51.2035 29.3692 51.2419 29.4307 51.2739 29.4778C51.2889 29.4998 51.3095 29.5291 51.3328 29.557C51.3434 29.5697 51.3654 29.5953 51.3957 29.6221C51.4108 29.6353 51.4387 29.6586 51.4774 29.6812C51.509 29.6997 51.5925 29.7449 51.7103 29.7502C51.879 29.7577 51.9968 29.6773 52.0144 29.6653L52.0159 29.6643C52.0523 29.6401 52.0788 29.6158 52.0918 29.6035C52.1198 29.577 52.1436 29.5496 52.1592 29.531C52.193 29.4908 52.2316 29.4398 52.2715 29.3852C52.353 29.2736 52.4612 29.117 52.5872 28.9295C52.8401 28.5531 53.1751 28.0362 53.5317 27.469C53.8847 26.9078 54.2298 26.3737 54.501 25.966C54.6367 25.7619 54.7526 25.5915 54.841 25.466C54.8859 25.4022 54.9184 25.3578 54.94 25.3289C54.9577 25.3248 54.9809 25.32 55.0104 25.315C55.1495 25.2913 55.3718 25.2703 55.7188 25.2539C56.4087 25.2213 57.5204 25.2098 59.2894 25.2098C60.5266 25.2098 61.4514 25.211 62.1451 25.2283C62.8475 25.2459 63.2769 25.2797 63.5408 25.3349C63.6477 25.3573 63.706 25.3789 63.7353 25.3926C63.7359 25.3997 63.7364 25.4083 63.7366 25.4186C63.7382 25.4807 63.7321 25.5624 63.7194 25.6921L64.217 25.7409L63.7194 25.6921C63.7102 25.7859 63.6998 25.8406 63.6889 25.8759C63.684 25.8918 63.6799 25.9005 63.6778 25.9046C63.6758 25.9082 63.6747 25.9096 63.6741 25.9103C63.6734 25.911 63.6704 25.9144 63.6624 25.9201C63.654 25.926 63.6392 25.9353 63.6146 25.9465C63.5634 25.9699 63.48 25.9975 63.3461 26.0235C62.7768 26.1343 61.6857 26.1537 59.5205 26.1551L55.6869 26.1575L55.4101 26.1577L55.2633 26.3924L53.5629 29.111L53.9868 29.3761L53.5629 29.111L52.0096 31.5948H51.6478H51.311L50.1518 29.3879L50.1518 29.3878C49.7916 28.7022 49.4504 28.0889 49.1899 27.6523C49.0608 27.4358 48.9463 27.2541 48.8567 27.1271C48.8144 27.0672 48.7648 27.0009 48.7139 26.9476C48.6937 26.9265 48.6417 26.8731 48.5662 26.831C48.5294 26.8104 48.4449 26.7682 48.3291 26.7643C48.1874 26.7595 48.0353 26.8145 47.9269 26.9399L47.926 26.9409C47.8944 26.9777 47.8746 27.0118 47.8694 27.0208L47.8691 27.0213C47.8608 27.0357 47.8541 27.0486 47.8498 27.0573C47.8409 27.075 47.8327 27.0931 47.8258 27.1086C47.8117 27.1406 47.795 27.181 47.7765 27.2268C47.7391 27.3195 47.6888 27.449 47.6276 27.6096C47.5048 27.9317 47.3347 28.3877 47.1298 28.9436C46.72 30.0557 46.1695 31.5721 45.5771 33.2245C44.9855 34.8744 44.4291 36.3964 44.0094 37.519C43.7994 38.0807 43.6243 38.5406 43.4963 38.8659C43.4322 39.0291 43.3811 39.1554 43.344 39.2427C43.3397 39.2527 43.3357 39.262 43.332 39.2706C43.3301 39.2712 43.3281 39.2718 43.326 39.2724C43.2724 39.2881 43.1941 39.2991 43.1026 39.2974C43.0119 39.2958 42.9259 39.282 42.8584 39.261C42.835 39.2538 42.817 39.2467 42.8036 39.2406C42.798 39.2282 42.7916 39.2141 42.7845 39.1981C42.7436 39.1055 42.6878 38.9706 42.6181 38.795C42.4792 38.4449 42.2915 37.9497 42.0681 37.3444C41.6216 36.1347 41.0361 34.4953 40.4197 32.7187C39.8023 30.9393 39.2296 29.3005 38.8041 28.0936C38.5914 27.4902 38.4153 26.9941 38.2887 26.642C38.2255 26.4661 38.1741 26.325 38.1366 26.224C38.118 26.1737 38.102 26.1316 38.0894 26.0993L38.088 26.0958C38.0806 26.0766 38.0615 26.0274 38.0404 25.9888L38.0402 25.9885C37.9628 25.8472 37.823 25.7499 37.6612 25.7279C37.5326 25.7104 37.4326 25.7462 37.3911 25.7632C37.305 25.7985 37.2419 25.8507 37.2168 25.8718C37.1527 25.9258 37.0852 25.9978 37.0231 26.0681C36.8928 26.2159 36.72 26.4329 36.52 26.6968C36.1174 27.2279 35.5803 27.9811 35.0045 28.8289L35.0045 28.8289C33.9939 30.317 33.4884 31.0521 33.171 31.4232C33.0138 31.607 32.9422 31.6527 32.9186 31.6646C32.9181 31.6648 32.9177 31.665 32.9173 31.6653C32.9113 31.6686 32.8985 31.6759 32.7956 31.6759C32.694 31.6759 32.5866 31.6597 32.5031 31.6358C32.4966 31.6339 32.4905 31.6321 32.4847 31.6302C32.4564 31.5541 32.4189 31.4476 32.3729 31.3114C32.2743 31.0202 32.1415 30.6089 31.9835 30.1064C31.6677 29.1023 31.2545 27.7434 30.8203 26.2725L30.8203 26.2724C30.3852 24.7987 29.9781 23.4369 29.6727 22.4301C29.52 21.9268 29.3924 21.5112 29.2994 21.2142C29.2529 21.066 29.2145 20.9456 29.1856 20.858C29.1712 20.8145 29.1584 20.7766 29.1477 20.7465L29.1466 20.7436L37.4523 23.7021ZM12.2642 13.4227C12.2531 13.4438 12.2325 13.479 12.1123 13.546L12.2642 13.4227ZM11.6188 16.2292C11.6378 15.8702 11.6675 15.7363 11.6865 15.6852M11.6188 16.2292L11.6865 15.6852M11.6865 15.6852C11.6866 15.6849 11.6861 15.685 11.6855 15.6852M11.6865 15.6852L11.6855 15.6852M11.6855 15.6852C11.6827 15.686 11.678 15.6873 11.7329 15.6424L11.6855 15.6852ZM28.4692 17.1377L28.4694 17.1376L28.4692 17.1377ZM63.7611 25.4076C63.7609 25.4077 63.7591 25.4065 63.7564 25.404C63.7599 25.4062 63.7612 25.4075 63.7611 25.4076ZM54.8923 25.3424C54.8923 25.3423 54.8932 25.342 54.8951 25.3413C54.8933 25.3421 54.8923 25.3424 54.8923 25.3424ZM38.0031 23.4731C37.9995 23.4677 37.9976 23.4644 37.9975 23.464C37.9974 23.4635 37.9992 23.4663 38.0031 23.4731Z" fill="#FF891B" stroke="#FF891B"/>
</svg>
