<svg id="ei8TgBGazsU1" xmlns="http://www.w3.org/2000/svg" xmlns:xlink="http://www.w3.org/1999/xlink" viewBox="0 0 572 634" shape-rendering="geometricPrecision" text-rendering="geometricPrecision"><style><![CDATA[#ei8TgBGazsU2 {animation: ei8TgBGazsU2_c_o 10000ms linear 1 normal forwards}@keyframes ei8TgBGazsU2_c_o { 0% {opacity: 0} 30% {opacity: 0} 32% {opacity: 1} 100% {opacity: 1}} #ei8TgBGazsU3 {animation: ei8TgBGazsU3_c_o 10000ms linear 1 normal forwards}@keyframes ei8TgBGazsU3_c_o { 0% {opacity: 0} 42% {opacity: 0} 44% {opacity: 1} 100% {opacity: 1}} #ei8TgBGazsU4 {animation: ei8TgBGazsU4_c_o 10000ms linear 1 normal forwards}@keyframes ei8TgBGazsU4_c_o { 0% {opacity: 0} 48% {opacity: 0} 50% {opacity: 1} 100% {opacity: 1}} #ei8TgBGazsU5 {animation: ei8TgBGazsU5_c_o 10000ms linear 1 normal forwards}@keyframes ei8TgBGazsU5_c_o { 0% {opacity: 0} 36% {opacity: 0} 38% {opacity: 1} 100% {opacity: 1}} #ei8TgBGazsU6 {animation: ei8TgBGazsU6_c_o 10000ms linear 1 normal forwards}@keyframes ei8TgBGazsU6_c_o { 0% {opacity: 0} 24% {opacity: 0} 26% {opacity: 1} 100% {opacity: 1}} #ei8TgBGazsU7 {animation: ei8TgBGazsU7_c_o 10000ms linear 1 normal forwards}@keyframes ei8TgBGazsU7_c_o { 0% {opacity: 0} 18% {opacity: 0} 20% {opacity: 1} 100% {opacity: 1}} #ei8TgBGazsU8 {animation: ei8TgBGazsU8_c_o 10000ms linear 1 normal forwards}@keyframes ei8TgBGazsU8_c_o { 0% {opacity: 0} 6% {opacity: 0} 8% {opacity: 1} 100% {opacity: 1}} #ei8TgBGazsU9 {animation: ei8TgBGazsU9_c_o 10000ms linear 1 normal forwards}@keyframes ei8TgBGazsU9_c_o { 0% {opacity: 0} 12% {opacity: 0} 14% {opacity: 1} 100% {opacity: 1}} #ei8TgBGazsU10 {animation: ei8TgBGazsU10_c_o 10000ms linear 1 normal forwards}@keyframes ei8TgBGazsU10_c_o { 0% {opacity: 0} 54% {opacity: 0} 56% {opacity: 1} 100% {opacity: 1}} #ei8TgBGazsU11 {animation: ei8TgBGazsU11_c_o 10000ms linear 1 normal forwards}@keyframes ei8TgBGazsU11_c_o { 0% {opacity: 0} 66% {opacity: 0} 68% {opacity: 1} 100% {opacity: 1}} #ei8TgBGazsU12 {animation: ei8TgBGazsU12_c_o 10000ms linear 1 normal forwards}@keyframes ei8TgBGazsU12_c_o { 0% {opacity: 0} 72% {opacity: 0} 74% {opacity: 1} 100% {opacity: 1}} #ei8TgBGazsU13 {animation: ei8TgBGazsU13_c_o 10000ms linear 1 normal forwards}@keyframes ei8TgBGazsU13_c_o { 0% {opacity: 0} 84% {opacity: 0} 86% {opacity: 1} 100% {opacity: 1}} #ei8TgBGazsU14 {animation: ei8TgBGazsU14_c_o 10000ms linear 1 normal forwards}@keyframes ei8TgBGazsU14_c_o { 0% {opacity: 0} 78% {opacity: 0} 80% {opacity: 1} 100% {opacity: 1}} #ei8TgBGazsU15 {animation: ei8TgBGazsU15_c_o 10000ms linear 1 normal forwards}@keyframes ei8TgBGazsU15_c_o { 0% {opacity: 0} 60% {opacity: 0} 62% {opacity: 1} 100% {opacity: 1}} #ei8TgBGazsU16 {animation: ei8TgBGazsU16_c_o 10000ms linear 1 normal forwards}@keyframes ei8TgBGazsU16_c_o { 0% {opacity: 0} 2% {opacity: 1} 100% {opacity: 1}}]]></style><path id="ei8TgBGazsU2" d="M336.135,500.244c1.369-1.358,3.765-1.507,6.262-.39c3.295,1.475,4.979,4.93,3.411,7.003-.798,1.056-2.053,1.567-3.755,1.528-.992-.022-1.771-.214-2.812-.691-2.005-.918-3.3-2.214-3.837-3.84-.362-1.094-.341-1.697.091-2.621.238-.508.386-.738.64-.989Zm-4.861,9.554c1.242-1.166,3.28-1.427,5.438-.697.845.286,2.179,1.047,2.785,1.588.593.531,1.222,1.35,1.566,2.042.784,1.578.524,3.274-.655,4.276-.658.559-1.736.93-2.803.965-3.88.127-7.796-3.289-7.273-6.344.11-.639.517-1.43.942-1.83Zm16.26-14.254c.677-.601,1.862-.824,3.06-.576.794.164,2.375,1.013,3.107,1.669c1.516,1.359,2.347,2.916,2.306,4.323-.015.512-.051.644-.316,1.159-.248.484-.363.632-.684.883-.789.62-2.018.775-3.297.417-.837-.234-2.177-.978-2.857-1.584-1.391-1.242-2.248-2.861-2.229-4.214.007-.512.045-.669.289-1.183.223-.471.35-.654.621-.894Zm-13.389,26.299c1.237-1.043,3.421-1.316,5.472-.684.81.25,1.967.84,2.521,1.286.886.715,1.474,1.798,1.475,2.718.001,1.796-1.643,3.042-4.028,3.053-2.468.011-4.956-1.193-5.926-2.869-.552-.954-.599-1.642-.173-2.564.251-.543.341-.672.659-.94Zm12.304-10.321c.69-.936,1.711-1.813,2.649-2.276.674-.333,8.612-3.168,9.346-3.338c1.201-.278,2.428-.084,3.53.56c2.131,1.244,3.152,3.695,2.478,5.944-.29.966-.874,1.853-2.225,3.375-1.917,2.161-1.877,2.106-2.674,3.666-.799,1.562-.783,1.514-1.447,4.355-.484,2.065-.752,2.841-1.194,3.454-.669.927-1.415,1.474-2.492,1.831-2.589.856-5.388-.332-6.404-2.72-.292-.686-2.668-8.78-2.795-9.521-.13-.757-.089-1.95.093-2.758.164-.726.745-2.042,1.135-2.572Z" opacity="0" clip-rule="evenodd" fill="#70b3a7" fill-opacity="0.22" fill-rule="evenodd"/><path id="ei8TgBGazsU3" d="M269.399,461.424c1.571-1.118,3.959-.877,6.242.631c3.013,1.989,4.114,5.672,2.231,7.463-.959.913-2.28,1.213-3.953.899-.976-.183-1.713-.498-2.663-1.138-1.83-1.231-2.898-2.72-3.164-4.411-.179-1.139-.061-1.73.515-2.571.317-.463.501-.666.792-.873Zm-6.346,8.64c1.415-.949,3.468-.877,5.48.194.787.419,1.98,1.386,2.49,2.018.5.62.987,1.53,1.214,2.269.518,1.685-.013,3.315-1.34,4.113-.739.445-1.863.636-2.922.498-3.849-.504-7.159-4.509-6.148-7.439.212-.613.742-1.328,1.226-1.653Zm18.356-11.43c.765-.483,1.971-.511,3.113-.072.756.29,2.179,1.385,2.795,2.151c1.276,1.586,1.843,3.257,1.575,4.639-.098.503-.155.627-.5,1.093-.323.437-.461.565-.817.761-.88.483-2.118.437-3.322-.124-.787-.367-1.989-1.318-2.562-2.026-1.172-1.451-1.754-3.188-1.517-4.52.09-.503.154-.653.477-1.12.297-.429.452-.589.758-.782Zm-17.475,23.781c1.389-.829,3.588-.744,5.51.212.759.378,1.805,1.148,2.279,1.678.759.849,1.164,2.013,1.015,2.921-.29,1.772-2.114,2.735-4.469,2.359-2.438-.389-4.697-1.98-5.383-3.791-.39-1.031-.324-1.718.245-2.559.336-.495.445-.607.803-.82Zm13.814-8.19c.833-.811,1.983-1.512,2.983-1.816.719-.219,9.012-1.73,9.763-1.779c1.231-.08,2.41.311,3.393,1.124c1.901,1.574,2.512,4.158,1.482,6.267-.443.907-1.163,1.687-2.743,2.971-2.242,1.821-2.193,1.773-3.233,3.183-1.041,1.412-1.018,1.368-2.134,4.063-.812,1.96-1.202,2.682-1.738,3.215-.81.806-1.635,1.226-2.756,1.403-2.694.425-5.262-1.201-5.878-3.722-.177-.725-1.21-9.097-1.215-9.849-.005-.768.228-1.938.539-2.706.279-.69,1.066-1.895,1.537-2.354Z" transform="translate(0-1)" opacity="0" clip-rule="evenodd" fill="#70b3a7" fill-opacity="0.22" fill-rule="evenodd"/><path id="ei8TgBGazsU4" d="M287.48,387.627c1.808-.673,4.052.178,5.867,2.225c2.395,2.701,2.506,6.543.223,7.787-1.162.633-2.516.581-4.051-.155-.895-.43-1.526-.925-2.278-1.789-1.448-1.663-2.094-3.377-1.914-5.079.122-1.147.389-1.687,1.163-2.351.426-.365.656-.513.99-.638Zm-8.365,6.704c1.612-.551,3.577.05,5.243,1.605.652.609,1.554,1.851,1.883,2.594.322.728.557,1.733.586,2.505.064,1.762-.871,3.199-2.359,3.627-.83.238-1.965.132-2.952-.276-3.587-1.482-5.748-6.208-4.013-8.776.364-.538,1.06-1.091,1.612-1.279Zm20.688-6.29c.865-.269,2.037.016,3.026.735.656.477,1.747,1.902,2.143,2.802.822,1.862.938,3.623.321,4.889-.225.46-.312.565-.765.926-.426.338-.592.426-.987.523-.975.239-2.159-.126-3.176-.979-.666-.558-1.581-1.788-1.951-2.621-.756-1.704-.869-3.532-.295-4.758.217-.463.317-.591.75-.958.398-.338.589-.452.934-.559Zm-23.034,18.447c1.556-.44,3.659.211,5.268,1.632.635.561,1.446,1.575,1.767,2.21.513,1.016.603,2.246.224,3.084-.739,1.637-2.75,2.095-4.927,1.122-2.254-1.007-4.025-3.128-4.218-5.055-.111-1.097.131-1.743.899-2.408.452-.391.587-.471.987-.585Zm15.464-4.335c1.014-.568,2.306-.947,3.351-.982.751-.026,9.152.661,9.891.808c1.209.241,2.247.924,2.986,1.964c1.429,2.013,1.35,4.667-.191,6.438-.662.761-1.56,1.328-3.418,2.159-2.637,1.179-2.578,1.145-3.947,2.238-1.371,1.094-1.337,1.057-3.113,3.372-1.291,1.683-1.855,2.28-2.51,2.656-.992.568-1.897.76-3.026.641-2.712-.286-4.772-2.522-4.714-5.116.016-.746,1.186-9.1,1.376-9.828.193-.743.721-1.813,1.221-2.474.448-.595,1.519-1.554,2.094-1.876Z" opacity="0" clip-rule="evenodd" fill="#70b3a7" fill-opacity="0.22" fill-rule="evenodd"/><path id="ei8TgBGazsU5" d="M357.826,417.385c1.807-.673,4.051.178,5.866,2.225c2.395,2.701,2.506,6.544.224,7.787-1.163.633-2.517.581-4.052-.155-.894-.429-1.526-.925-2.278-1.788-1.448-1.663-2.094-3.378-1.914-5.08.122-1.146.389-1.687,1.163-2.35.426-.366.656-.514.991-.639Zm-8.365,6.704c1.611-.551,3.576.05,5.242,1.605.652.609,1.554,1.851,1.883,2.594.322.728.557,1.734.586,2.506.064,1.761-.871,3.199-2.359,3.626-.83.238-1.964.132-2.951-.276-3.588-1.482-5.749-6.208-4.014-8.776.364-.538,1.061-1.09,1.613-1.279Zm20.688-6.29c.864-.268,2.036.017,3.026.736.655.476,1.746,1.902,2.143,2.801.821,1.863.937,3.624.32,4.889-.224.46-.312.566-.765.926-.426.338-.592.426-.987.523-.974.239-2.159-.126-3.176-.979-.666-.558-1.581-1.787-1.95-2.62-.757-1.705-.87-3.533-.296-4.758.217-.463.317-.591.751-.959.397-.337.589-.452.934-.559Zm-23.035,18.448c1.557-.441,3.659.21,5.268,1.631.635.561,1.447,1.576,1.767,2.21.514,1.016.603,2.246.224,3.084-.739,1.637-2.75,2.095-4.927,1.123-2.254-1.007-4.024-3.129-4.218-5.056-.11-1.096.131-1.743.899-2.408.452-.391.587-.471.987-.584Zm15.464-4.336c1.014-.568,2.306-.947,3.351-.982.752-.025,9.153.662,9.891.809c1.21.241,2.247.923,2.986,1.964c1.429,2.012,1.35,4.666-.191,6.437-.662.761-1.56,1.328-3.418,2.159-2.637,1.179-2.577,1.145-3.947,2.238-1.371,1.094-1.337,1.057-3.113,3.372-1.291,1.683-1.855,2.28-2.51,2.656-.991.569-1.897.761-3.025.641-2.712-.286-4.772-2.522-4.715-5.116.017-.746,1.186-9.1,1.376-9.827.194-.743.722-1.813,1.221-2.475.448-.594,1.52-1.554,2.094-1.876Z" opacity="0" clip-rule="evenodd" fill="#70b3a7" fill-opacity="0.22" fill-rule="evenodd"/><path id="ei8TgBGazsU6" d="M432.669,474.142c1.807-.673,4.052.178,5.866,2.225c2.396,2.701,2.506,6.544.224,7.787-1.163.633-2.517.581-4.052-.155-.894-.429-1.525-.925-2.277-1.789-1.449-1.663-2.095-3.377-1.914-5.079.121-1.147.388-1.687,1.163-2.351.426-.365.656-.513.99-.638Zm-8.365,6.704c1.612-.551,3.576.05,5.242,1.605.653.609,1.554,1.851,1.883,2.594.323.728.558,1.734.586,2.506.065,1.761-.871,3.199-2.359,3.626-.829.238-1.964.132-2.951-.276-3.588-1.482-5.749-6.208-4.013-8.776.363-.538,1.06-1.091,1.612-1.279Zm20.688-6.29c.864-.268,2.036.016,3.026.736.655.476,1.746,1.902,2.143,2.801.822,1.863.937,3.624.32,4.889-.224.46-.311.566-.765.926-.426.338-.592.426-.987.523-.974.239-2.158-.126-3.176-.979-.666-.558-1.581-1.788-1.95-2.62-.756-1.705-.87-3.533-.296-4.758.217-.464.317-.591.751-.959.398-.338.589-.452.934-.559Zm-23.034,18.447c1.556-.44,3.658.211,5.267,1.632.636.561,1.447,1.576,1.768,2.21.513,1.016.602,2.246.224,3.084-.74,1.637-2.751,2.095-4.928,1.122-2.254-1.006-4.024-3.128-4.218-5.055-.11-1.097.131-1.743.899-2.408.452-.391.587-.471.988-.585Zm15.463-4.335c1.014-.568,2.306-.947,3.351-.982.752-.026,9.153.661,9.891.809c1.21.241,2.247.923,2.986,1.963c1.429,2.013,1.351,4.667-.19,6.438-.663.761-1.56,1.328-3.419,2.159-2.637,1.179-2.577,1.145-3.946,2.238-1.372,1.094-1.338,1.057-3.113,3.372-1.292,1.683-1.856,2.28-2.511,2.656-.991.568-1.896.76-3.025.641-2.712-.286-4.772-2.522-4.715-5.116.017-.746,1.186-9.1,1.376-9.828.194-.742.722-1.813,1.221-2.474.448-.594,1.52-1.554,2.094-1.876Z" transform="translate(1 0)" opacity="0" clip-rule="evenodd" fill="#70b3a7" fill-opacity="0.22" fill-rule="evenodd"/><path id="ei8TgBGazsU7" d="M423.882,542.463c1.808-.674,4.052.177,5.867,2.224c2.395,2.702,2.505,6.544.223,7.787-1.162.633-2.517.582-4.051-.155-.895-.429-1.526-.925-2.278-1.788-1.448-1.663-2.094-3.377-1.914-5.08.121-1.146.389-1.687,1.163-2.35.426-.366.656-.514.99-.638Zm-8.365,6.703c1.612-.551,3.577.051,5.243,1.605.652.609,1.554,1.851,1.883,2.594.322.728.557,1.734.585,2.506.065,1.761-.87,3.199-2.358,3.626-.83.238-1.965.132-2.952-.276-3.587-1.482-5.748-6.207-4.013-8.775.364-.538,1.06-1.091,1.612-1.28Zm20.688-6.29c.865-.268,2.037.017,3.026.736.656.476,1.746,1.902,2.143,2.801.822,1.863.937,3.624.321,4.889-.225.46-.312.566-.765.926-.426.338-.592.426-.987.523-.975.239-2.159-.126-3.176-.978-.666-.559-1.581-1.788-1.951-2.621-.756-1.705-.87-3.533-.295-4.758.217-.463.317-.591.75-.959.398-.337.589-.452.934-.559Zm-23.034,18.448c1.556-.441,3.659.21,5.268,1.631.635.561,1.446,1.576,1.767,2.211.513,1.016.603,2.245.224,3.083-.739,1.637-2.75,2.096-4.927,1.123-2.254-1.007-4.025-3.129-4.219-5.056-.11-1.096.131-1.742.9-2.408.452-.391.587-.471.987-.584Zm15.464-4.336c1.013-.568,2.306-.947,3.35-.982.752-.025,9.153.662,9.892.809c1.209.241,2.247.923,2.986,1.964c1.428,2.012,1.35,4.666-.191,6.437-.662.761-1.56,1.328-3.418,2.159-2.638,1.179-2.578,1.145-3.947,2.238-1.371,1.095-1.337,1.058-3.113,3.373-1.291,1.683-1.855,2.279-2.511,2.655-.991.569-1.896.761-3.025.642-2.712-.287-4.772-2.522-4.714-5.117.016-.746,1.186-9.1,1.375-9.827.194-.743.722-1.813,1.222-2.475.448-.594,1.519-1.554,2.094-1.876Z" opacity="0" clip-rule="evenodd" fill="#70b3a7" fill-opacity="0.22" fill-rule="evenodd"/><path id="ei8TgBGazsU8" d="M474.956,603.24c1.927.079,3.666,1.732,4.547,4.322c1.163,3.418-.223,7.004-2.809,7.266-1.317.134-2.545-.438-3.675-1.711-.659-.743-1.049-1.444-1.408-2.531-.691-2.094-.623-3.925.202-5.425.556-1.01,1.012-1.404,1.983-1.717.534-.171.803-.219,1.16-.204Zm-10.308,2.941c1.699.116,3.277,1.432,4.212,3.51.365.814.716,2.308.731,3.121.016.796-.157,1.814-.43,2.537-.622,1.649-2.041,2.612-3.578,2.43-.858-.102-1.863-.639-2.615-1.397-2.734-2.756-2.896-7.949-.302-9.645.543-.355,1.4-.596,1.982-.556Zm21.509,2.211c.901.088,1.872.804,2.505,1.85.42.693.874,2.43.892,3.413.036,2.035-.539,3.704-1.598,4.632-.385.337-.506.4-1.064.557-.523.147-.71.164-1.112.1-.991-.157-1.942-.952-2.55-2.132-.397-.773-.765-2.261-.783-3.171-.037-1.865.566-3.594,1.569-4.502.38-.343.522-.422,1.064-.593.497-.157.718-.189,1.077-.154Zm-28.38,8.09c1.605.197,3.292,1.611,4.225,3.544.369.763.724,2.013.774,2.722.08,1.136-.314,2.304-.988,2.93-1.315,1.223-3.347.867-4.977-.873-1.688-1.801-2.499-4.443-1.932-6.294.323-1.054.796-1.556,1.761-1.872.569-.186.724-.207,1.137-.157Zm15.936,1.99c1.155-.131,2.493.02,3.47.392.703.268,8.183,4.154,8.806,4.576c1.022.69,1.715,1.721,1.993,2.966.538,2.409-.562,4.826-2.668,5.862-.906.445-1.953.621-3.988.667-2.888.066-2.82.058-4.505.535-1.688.478-1.642.458-4.176,1.904-1.842,1.052-2.593,1.384-3.343,1.477-1.134.14-2.043-.033-3.038-.58-2.389-1.314-3.423-4.173-2.365-6.543.304-.681,4.617-7.931,5.073-8.528.466-.61,1.368-1.392,2.084-1.809.644-.374,2.003-.844,2.657-.919Z" opacity="0" clip-rule="evenodd" fill="#70b3a7" fill-opacity="0.22" fill-rule="evenodd"/><path id="ei8TgBGazsU9" d="M504.378,540.751c1.92-.183,3.867,1.22,5.09,3.667c1.615,3.229.727,6.969-1.799,7.579-1.287.311-2.582-.09-3.873-1.198-.753-.646-1.235-1.288-1.738-2.317-.968-1.981-1.149-3.804-.534-5.402.414-1.076.812-1.529,1.732-1.969.506-.243.767-.327,1.122-.36Zm-9.815,4.309c1.699-.115,3.441.975,4.648,2.908.472.757,1.022,2.19,1.148,2.993.123.786.089,1.819-.083,2.572-.394,1.718-1.669,2.864-3.217,2.892-.863.015-1.932-.381-2.78-1.03-3.081-2.36-3.946-7.484-1.605-9.516.491-.425,1.307-.779,1.889-.819Zm21.611-.721c.904-.035,1.962.544,2.732,1.494.51.63,1.195,2.289,1.345,3.261.312,2.012-.032,3.742-.956,4.805-.336.386-.447.466-.978.696-.499.217-.682.259-1.089.25-1.003-.021-2.053-.68-2.815-1.767-.498-.712-1.064-2.136-1.205-3.036-.289-1.843.074-3.638.946-4.673.329-.391.459-.488.973-.731.471-.223.686-.284,1.047-.299ZM489.15,556.197c1.617-.023,3.479,1.15,4.666,2.939.468.706.989,1.896,1.135,2.592.232,1.115.001,2.325-.582,3.037-1.138,1.39-3.199,1.312-5.05-.191-1.916-1.556-3.077-4.064-2.766-5.975.177-1.088.578-1.649,1.492-2.093.538-.261.689-.303,1.105-.309Zm16.059-.186c1.126-.286,2.472-.318,3.49-.081.733.17,8.67,3.008,9.345,3.341c1.106.546,1.932,1.474,2.376,2.67.859,2.313.097,4.857-1.85,6.168-.837.564-1.851.88-3.861,1.201-2.852.457-2.786.439-4.391,1.141-1.608.702-1.565.675-3.88,2.451-1.683,1.292-2.382,1.722-3.112,1.916-1.105.292-2.029.243-3.088-.164-2.546-.978-3.957-3.671-3.23-6.162.209-.716,3.501-8.483,3.872-9.136.38-.668,1.167-1.565,1.82-2.075.587-.458,1.87-1.108,2.509-1.27Z" opacity="0" clip-rule="evenodd" fill="#70b3a7" fill-opacity="0.22" fill-rule="evenodd"/><path id="ei8TgBGazsU10" d="M193.429,417.611c1.229-1.487,3.598-1.872,6.193-1.007c3.425,1.142,5.442,4.414,4.087,6.632-.69,1.13-1.889,1.762-3.586,1.892-.99.075-1.784-.038-2.867-.41-2.086-.716-3.502-1.878-4.197-3.442-.469-1.054-.507-1.656-.169-2.617.187-.53.312-.773.539-1.048Zm-3.893,9.988c1.121-1.283,3.123-1.745,5.343-1.231.869.201,2.271.826,2.928,1.305.643.469,1.349,1.222,1.76,1.877.937,1.493.845,3.205-.23,4.319-.599.622-1.635,1.097-2.694,1.237-3.847.511-8.082-2.502-7.863-5.593.046-.648.373-1.475.756-1.914Zm14.772-15.792c.614-.664,1.772-1.003,2.988-.875.806.084,2.464.774,3.257,1.354c1.643,1.202,2.623,2.67,2.722,4.074.036.51.013.646-.2,1.184-.199.506-.299.665-.593.947-.724.694-1.932.97-3.24.74-.856-.15-2.263-.758-2.999-1.294-1.508-1.098-2.52-2.625-2.635-3.973-.044-.51-.021-.67.17-1.205.176-.491.285-.686.53-.952Zm-10.725,27.494c1.128-1.16,3.274-1.647,5.378-1.221.831.168,2.041.641,2.636,1.03.952.624,1.644,1.644,1.736,2.559.178,1.787-1.335,3.19-3.706,3.436-2.456.255-5.05-.698-6.181-2.269-.644-.895-.758-1.575-.425-2.535.195-.565.272-.702.562-1Zm11.225-11.487c.593-.999,1.523-1.973,2.41-2.526.639-.398,8.258-4.003,8.971-4.245c1.168-.396,2.408-.324,3.568.208c2.243,1.028,3.502,3.366,3.053,5.67-.193.991-.687,1.93-1.881,3.579-1.694,2.34-1.659,2.281-2.299,3.912-.64,1.633-.629,1.584-1.009,4.477-.277,2.103-.467,2.901-.847,3.555-.574.988-1.262,1.607-2.299,2.068-2.492,1.108-5.394.202-6.641-2.074-.359-.654-3.523-8.474-3.722-9.199-.204-.74-.282-1.931-.18-2.753.091-.739.539-2.106.876-2.672Z" opacity="0" clip-rule="evenodd" fill="#70b3a7" fill-opacity="0.22" fill-rule="evenodd"/><path id="ei8TgBGazsU11" d="M123.209,370.916c1.229-1.487,3.598-1.872,6.193-1.007c3.425,1.142,5.442,4.414,4.087,6.632-.69,1.13-1.889,1.762-3.586,1.892-.989.075-1.784-.038-2.867-.41-2.086-.716-3.502-1.878-4.197-3.442-.468-1.054-.507-1.655-.168-2.617.186-.53.311-.773.538-1.048Zm-3.892,9.988c1.12-1.283,3.122-1.745,5.342-1.231.87.201,2.272.826,2.928,1.305.643.469,1.35,1.222,1.76,1.877.937,1.493.846,3.206-.229,4.32-.6.621-1.636,1.096-2.694,1.237-3.848.51-8.083-2.502-7.864-5.594.046-.648.373-1.475.757-1.914Zm14.771-15.791c.614-.665,1.772-1.004,2.989-.876.806.085,2.463.774,3.256,1.354c1.643,1.203,2.624,2.67,2.722,4.074.036.511.013.646-.2,1.185-.199.505-.299.665-.593.946-.724.694-1.932.97-3.24.74-.855-.15-2.263-.757-2.999-1.294-1.507-1.098-2.52-2.625-2.635-3.973-.043-.509-.021-.67.171-1.205.175-.491.284-.686.529-.951Zm-10.724,27.493c1.127-1.16,3.273-1.647,5.377-1.221.831.168,2.041.641,2.636,1.031.952.623,1.645,1.643,1.736,2.558.178,1.787-1.334,3.19-3.706,3.436-2.455.255-5.05-.698-6.181-2.269-.644-.895-.758-1.575-.425-2.535.196-.565.273-.702.563-1Zm11.224-11.487c.594-.999,1.524-1.973,2.411-2.526.638-.397,8.257-4.003,8.97-4.245c1.168-.396,2.408-.324,3.568.208c2.243,1.028,3.502,3.366,3.054,5.67-.193.991-.687,1.931-1.881,3.579-1.695,2.34-1.66,2.281-2.299,3.912-.641,1.633-.63,1.584-1.01,4.477-.277,2.103-.467,2.902-.846,3.555-.575.988-1.263,1.607-2.3,2.068-2.492,1.108-5.393.202-6.641-2.074-.358-.654-3.522-8.474-3.722-9.198-.204-.741-.281-1.931-.18-2.754.091-.739.539-2.106.876-2.672Z" opacity="0" clip-rule="evenodd" fill="#70b3a7" fill-opacity="0.22" fill-rule="evenodd"/><path id="ei8TgBGazsU12" d="M103.195,293.418c1.336-1.391,3.727-1.599,6.251-.543c3.33,1.394,5.098,4.807,3.582,6.918-.773,1.075-2.015,1.616-3.717,1.619-.992.002-1.776-.17-2.829-.622-2.026-.869-3.352-2.133-3.929-3.745-.388-1.085-.382-1.688.027-2.622.225-.514.368-.747.615-1.005Zm-4.625,9.671c1.2128-1.196,3.244-1.507,5.419-.83.852.265,2.204.993,2.823,1.519.606.516,1.255,1.32,1.616,2.003.822,1.559.604,3.26-.551,4.291-.644.574-1.712.972-2.778,1.033-3.876.222-7.874-3.097-7.4257-6.163.0939-.643.4813-1.443.8967-1.853Zm15.906-14.648c.662-.617,1.841-.87,3.045-.651.797.144,2.399.955,3.147,1.593c1.549,1.321,2.417,2.857,2.411,4.265-.002.512-.035.645-.287,1.166-.237.49-.348.641-.662.9-.774.638-2,.824-3.286.497-.843-.214-2.201-.924-2.895-1.514-1.421-1.207-2.317-2.805-2.332-4.158-.006-.511.029-.67.26-1.189.212-.477.334-.663.599-.909ZM101.735,315.06c1.211-1.073,3.387-1.399,5.453-.818.816.23,1.988.792,2.552,1.224.904.692,1.518,1.761,1.541,2.681.045,1.795-1.568,3.081-3.951,3.15-2.468.072-4.984-1.071-5.995-2.723-.576-.94-.639-1.626-.236-2.559.238-.549.325-.679.636-.955Zm12.048-10.62c.666-.952,1.666-1.854,2.592-2.339.666-.35,8.532-3.378,9.261-3.566c1.195-.308,2.426-.144,3.543.472c2.161,1.193,3.242,3.618,2.623,5.882-.266.973-.829,1.874-2.142,3.429-1.864,2.207-1.824,2.151-2.584,3.73-.76,1.581-.745,1.533-1.34,4.389-.432,2.077-.681,2.859-1.108,3.483-.646.942-1.378,1.508-2.447,1.891-2.567.919-5.394-.2-6.468-2.562-.309-.679-2.883-8.713-3.028-9.45-.148-.754-.137-1.947.026-2.76.146-.73.694-2.059,1.072-2.599Z" opacity="0" clip-rule="evenodd" fill="#70b3a7" fill-opacity="0.22" fill-rule="evenodd"/><path id="ei8TgBGazsU13" d="M27.2846,270.594c1.2286-1.487,3.5976-1.872,6.1927-1.006c3.4251,1.141,5.4418,4.414,4.087,6.631-.6902,1.13-1.8889,1.762-3.5862,1.892-.9893.075-1.7836-.038-2.8667-.41-2.0859-.716-3.5024-1.877-4.1974-3.442-.468-1.054-.5067-1.655-.1681-2.617.1863-.529.3115-.773.5387-1.048Zm-3.8928,9.988c1.1205-1.283,3.1226-1.744,5.3427-1.231.8693.201,2.2713.826,2.928,1.305.643.469,1.3494,1.223,1.7599,1.877.9366,1.493.8455,3.206-.2296,4.32-.5994.621-1.6351,1.097-2.6939,1.237-3.8479.51-8.0822-2.502-7.8634-5.594.0458-.647.3726-1.475.7563-1.914Zm14.7715-15.791c.6144-.665,1.7719-1.004,2.9885-.876.8059.085,2.4632.774,3.2564,1.354c1.6432,1.203,2.6236,2.67,2.722,4.074.0358.511.013.646-.1996,1.185-.1996.506-.2992.665-.593.946-.7244.695-1.9325.971-3.2399.741-.856-.151-2.2631-.758-2.9995-1.295-1.5073-1.098-2.5196-2.624-2.6349-3.972-.0436-.51-.0209-.671.1706-1.206.1757-.491.2842-.686.5294-.951ZM27.4388,292.284c1.1274-1.16,3.2738-1.647,5.3776-1.221.8307.168,2.0408.641,2.6359,1.031.9524.623,1.6445,1.643,1.7358,2.558.1785,1.788-1.3342,3.19-3.706,3.436-2.4553.255-5.0495-.697-6.1807-2.269-.6439-.895-.758-1.575-.4253-2.535.1959-.565.2727-.702.5627-1ZM38.663,280.798c.5939-.999,1.5237-1.974,2.4108-2.526.6384-.398,8.2573-4.004,8.9704-4.246c1.168-.396,2.4079-.323,3.5678.208c2.2436,1.028,3.5026,3.366,3.0537,5.67-.193.991-.6868,1.931-1.8808,3.58-1.6943,2.339-1.6595,2.28-2.299,3.911-.6403,1.633-.6292,1.584-1.0097,4.477-.2766,2.103-.4667,2.902-.8464,3.555-.5741.988-1.2622,1.607-2.2992,2.068-2.492,1.108-5.3937.202-6.6411-2.073-.3586-.655-3.5228-8.474-3.7222-9.199-.2037-.74-.2814-1.931-.18-2.754.0913-.739.5392-2.105.8757-2.671Z" opacity="0" clip-rule="evenodd" fill="#70b3a7" fill-opacity="0.22" fill-rule="evenodd"/><path id="ei8TgBGazsU14" d="M42.9152,349.481c.802-1.754,2.9906-2.739,5.7212-2.575c3.6039.216,6.3988,2.855,5.6641,5.348-.3742,1.27-1.3684,2.191-2.9744,2.755-.936.329-1.7326.425-2.8751.346-2.2001-.151-3.869-.907-4.9452-2.238-.7248-.897-.9179-1.468-.8397-2.485.0429-.559.1008-.827.2491-1.151Zm-1.1751,10.655c.7502-1.529,2.5647-2.493,4.8421-2.572.8917-.031,2.4076.21,3.166.503.7424.287,1.6197.832,2.1856,1.357c1.2912,1.2,1.6465,2.878.8963,4.232-.4182.756-1.2955,1.483-2.2819,1.893-3.5848,1.488-8.4544-.325-9.0432-3.368-.1234-.638-.0218-1.521.2351-2.045ZM51.9212,341.06c.4215-.801,1.4518-1.428,2.66-1.62.8004-.126,2.5796.11,3.496.466c1.8984.736,3.2251,1.899,3.6837,3.23.1667.484.1797.621.1137,1.196-.0619.54-.1169.72-.3279,1.068-.5199.858-1.6154,1.437-2.9378,1.554-.8658.076-2.3822-.147-3.2323-.474-1.7402-.671-3.1131-1.883-3.5734-3.156-.174-.481-.1936-.642-.1472-1.209.0427-.519.097-.736.2652-1.055ZM48.678,370.392c.7887-1.412,2.7358-2.438,4.8782-2.571.846-.053,2.1373.091,2.8129.313c1.0812.355,2.0138,1.162,2.3389,2.022.6349,1.68-.4632,3.426-2.6906,4.278-2.3056.882-5.0579.633-6.5573-.592-.8535-.698-1.1398-1.325-1.0669-2.339.043-.596.0818-.748.2848-1.111Zm7.8687-14c.3152-1.119.9611-2.301,1.6749-3.064.5137-.55,6.9398-6.004,7.566-6.422c1.0258-.685,2.2421-.936,3.5001-.723c2.4332.412,4.2544,2.345,4.4171,4.686.07,1.007-.1638,2.043-.8903,3.945-1.0311,2.698-1.0127,2.632-1.2083,4.373-.1958,1.743-.1978,1.693.1834,4.585.2771,2.104.3002,2.924.1026,3.654-.2989,1.103-.8033,1.878-1.6856,2.592-2.1204,1.715-5.1577,1.591-6.9516-.284-.5156-.539-5.5959-7.273-5.9761-7.922-.3883-.662-.7716-1.792-.8865-2.613-.1031-.737-.0242-2.174.1543-2.807Z" opacity="0" clip-rule="evenodd" fill="#70b3a7" fill-opacity="0.22" fill-rule="evenodd"/><path id="ei8TgBGazsU15" d="M203.317,331.535c1.572-1.118,3.96-.877,6.242.63c3.013,1.99,4.114,5.673,2.232,7.464-.959.913-2.281,1.213-3.954.899-.975-.183-1.713-.498-2.663-1.138-1.83-1.231-2.897-2.72-3.163-4.411-.18-1.139-.062-1.73.515-2.571.316-.463.5-.666.791-.873Zm-6.345,8.64c1.414-.949,3.467-.877,5.479.194.788.419,1.98,1.385,2.491,2.018.499.62.986,1.53,1.214,2.269.518,1.684-.013,3.315-1.34,4.113-.74.445-1.863.636-2.922.497-3.849-.503-7.16-4.508-6.148-7.438.212-.613.741-1.328,1.226-1.653Zm18.355-11.43c.765-.483,1.971-.511,3.113-.072.757.29,2.179,1.385,2.795,2.151c1.276,1.586,1.844,3.257,1.575,4.639-.097.503-.154.627-.499,1.093-.324.437-.461.565-.818.76-.879.484-2.118.438-3.321-.123-.788-.367-1.99-1.318-2.562-2.027-1.172-1.451-1.755-3.187-1.517-4.519.09-.504.153-.653.477-1.12.296-.429.452-.589.757-.782Zm-17.475,23.781c1.389-.829,3.589-.744,5.511.212.759.378,1.805,1.148,2.279,1.678.759.848,1.163,2.013,1.014,2.921-.29,1.772-2.114,2.735-4.469,2.359-2.437-.389-4.697-1.981-5.382-3.791-.391-1.031-.325-1.718.245-2.559.335-.495.445-.607.802-.82Zm13.815-8.19c.832-.812,1.982-1.512,2.982-1.816.72-.219,9.012-1.73,9.764-1.779c1.23-.08,2.409.31,3.392,1.124c1.901,1.574,2.512,4.158,1.482,6.267-.442.907-1.163,1.687-2.743,2.971-2.242,1.821-2.193,1.773-3.233,3.183-1.041,1.412-1.018,1.367-2.134,4.063-.811,1.96-1.202,2.682-1.738,3.215-.81.806-1.635,1.225-2.756,1.402-2.693.426-5.262-1.2-5.878-3.721-.177-.725-1.209-9.097-1.214-9.849-.005-.768.228-1.938.539-2.706.279-.69,1.065-1.895,1.537-2.354Z" opacity="0" clip-rule="evenodd" fill="#70b3a7" fill-opacity="0.22" fill-rule="evenodd"/><path id="ei8TgBGazsU16" d="M542.495,617.591c-1.885.397-3.324,2.313-3.763,5.01-.579,3.558,1.38,6.86,3.969,6.69c1.32-.086,2.435-.853,3.337-2.294.525-.84.793-1.595.967-2.725.335-2.177-.036-3.968-1.097-5.309-.714-.902-1.229-1.216-2.236-1.362-.555-.081-.828-.083-1.177-.01Zm10.639,1.19c-1.655.396-2.991,1.953-3.567,4.154-.226.862-.323,2.392-.204,3.195.116.786.455,1.76.843,2.427.886,1.521,2.443,2.235,3.927,1.801.827-.242,1.728-.937,2.344-1.809c2.236-3.166,1.536-8.308-1.299-9.548-.595-.26-1.478-.355-2.044-.22Zm-20.818,5.739c-.872.235-1.709,1.101-2.16,2.236-.299.752-.458,2.538-.313,3.508.301,2.011,1.144,3.559,2.34,4.297.435.269.565.311,1.14.373.54.058.727.044,1.112-.085.95-.319,1.755-1.259,2.158-2.522.264-.827.38-2.353.247-3.253-.272-1.842-1.153-3.446-2.291-4.173-.431-.275-.583-.329-1.146-.408-.515-.073-.738-.067-1.087.027Zm29.289,3.269c-1.548.459-2.975,2.131-3.574,4.189-.237.813-.379,2.102-.311,2.809.109,1.132.69,2.217,1.457,2.722c1.498.987,3.44.3,4.758-1.684c1.364-2.053,1.725-4.789.86-6.518-.492-.984-1.041-1.401-2.044-1.552-.591-.089-.747-.084-1.146.034Zm-15.365,4.598c-1.158.061-2.451.432-3.352.96-.648.38-7.37,5.445-7.915,5.964-.892.849-1.403,1.979-1.471,3.251-.132,2.461,1.352,4.659,3.597,5.331.966.289,2.026.288,4.038-.003c2.855-.413,2.787-.41,4.526-.219c1.741.192,1.693.179,4.428,1.184c1.988.731,2.782.934,3.536.901c1.14-.05,2.007-.371,2.896-1.074c2.135-1.69,2.68-4.676,1.246-6.835-.412-.621-5.859-7.046-6.408-7.559-.56-.523-1.577-1.145-2.352-1.436-.695-.262-2.112-.5-2.769-.465Z" opacity="0" clip-rule="evenodd" fill="#70b3a7" fill-opacity="0.22" fill-rule="evenodd"/></svg>