<svg width="706" height="594" viewBox="0 0 706 594" fill="none" xmlns="http://www.w3.org/2000/svg">
<path fill-rule="evenodd" clip-rule="evenodd" d="M447.067 100.892C397.054 88.7796 349.864 81.3498 299.648 70.1058C216.236 51.4286 129.741 -29.9315 56.0191 13.33C-13.6432 54.2095 -0.0951545 163.144 3.60696 243.83C6.63513 309.827 39.3585 367.851 74.8425 423.58C105.416 471.597 144.218 511.618 192.9 541.123C242.542 571.21 296.634 590.493 354.622 593.145C421.01 596.181 489.142 592.034 545.777 557.262C609.722 518.002 664.91 460.801 686.986 389.086C710.155 313.82 718.644 219.898 668.259 159.374C618.241 99.2918 523.048 119.292 447.067 100.892Z" fill="url(#paint0_linear_666_8)"/>
<defs>
<linearGradient id="paint0_linear_666_8" x1="435" y1="387.5" x2="57.5" y2="46" gradientUnits="userSpaceOnUse">
<stop stop-color="#59A396"/>
<stop offset="1" stop-color="#F1F7F6"/>
</linearGradient>
</defs>
</svg>
