<svg width="722" height="597" viewBox="0 0 722 597" fill="none" xmlns="http://www.w3.org/2000/svg">
<path fill-rule="evenodd" clip-rule="evenodd" d="M301.99 144.368C262.817 177.196 229 210.187 190.391 243.611C126.257 299.13 11.0084 325.449 1.32129 404.65C-7.83245 479.489 85.8529 523.859 151.49 561.653C205.179 592.567 270.201 596.343 335.056 596.814C390.936 597.22 445.407 587.189 497.465 564.165C550.551 540.687 597.78 508.299 634.241 464.493C675.985 414.341 713.113 359.211 719.346 297.592C726.384 228.02 714.124 156.22 670.822 102.882C625.376 46.9009 556.559 -7.05602 479.1 1.65649C402.206 10.3054 361.501 94.4941 301.99 144.368Z" fill="#469797"/>
</svg>
