<svg width="729" height="639" viewBox="0 0 729 639" fill="none" xmlns="http://www.w3.org/2000/svg">
<path fill-rule="evenodd" clip-rule="evenodd" d="M296.881 148.332C258.255 182.332 225.083 216.708 187.051 251.372C123.877 308.952 7.6052 333.075 0.711464 418.274C-5.80278 498.782 91.1735 550.219 159.368 593.504C215.147 628.909 281.443 635.42 347.445 638.354C404.313 640.883 459.357 632.084 511.461 609.157C564.593 585.779 611.434 552.555 646.892 506.595C687.486 453.977 723.199 395.807 727.237 329.472C731.795 254.575 716.636 176.55 670.586 117.308C622.254 55.1311 550.221 -5.73329 471.739 0.782074C393.829 7.24988 355.563 96.6781 296.881 148.332Z" fill="#FBE1C8"/>
</svg>
