<svg width="244" height="296" viewBox="0 0 244 296" fill="none" xmlns="http://www.w3.org/2000/svg">
<path fill-rule="evenodd" clip-rule="evenodd" d="M93.5046 0.64971C84.2501 2.9159 72.0886 13.2421 64.7101 25.0982C57.0764 37.3626 51.1406 54.418 48.4522 71.8084C46.3852 85.1856 50.3263 100.093 58.2707 108.941C63.3397 114.587 67.3352 116.647 73.2205 116.647C80.8563 116.647 87.4887 111.876 91.8166 103.27L93.8094 99.3059L95.0363 101.995C96.1455 104.426 95.6864 106.147 90.2829 119.831C80.8424 143.741 79.8094 147.668 75.2292 177.064C73.5807 187.648 72.2311 196.416 72.2311 196.551C72.2311 196.685 70.3392 195.712 68.0258 194.387C62.3987 191.166 56.4144 191.177 50.8863 194.423C42.0602 199.602 33.633 217.529 31.1494 236.406C30.4063 242.051 29.6612 246.809 29.492 246.977C29.3238 247.146 25.7004 244.422 21.4398 240.924C14.4838 235.212 13.244 234.564 9.27526 234.564C3.14848 234.564 0 237.723 0 243.87C0 248.851 0.465049 249.614 19.6528 276.104C25.74 284.509 30.9812 292.423 31.2988 293.692L31.8776 296H105.902H179.926L180.562 293.098C181.48 288.913 179.498 279.524 176.68 274.709C173.839 269.855 167.514 263.881 162.861 261.659L159.58 260.093L162.465 248.658C164.053 242.369 165.66 234.753 166.038 231.733L166.725 226.243L174.5 250.47C178.777 263.794 182.705 275.227 183.23 275.876C183.756 276.524 185.352 277.193 186.777 277.362C189.103 277.638 189.671 278.601 192.354 286.834L195.342 296H212.879C222.525 296 231.559 295.565 232.955 295.034C235.178 294.188 235.493 293.494 235.493 289.451C235.493 281.288 233.633 277.185 226.906 270.512C223.033 266.67 220.899 263.806 221.243 262.91C221.659 261.821 207.029 210.862 204.027 202.945C203.736 202.177 205.91 203.372 208.859 205.601C222.408 215.845 232.154 217.247 239.698 210.038C241.935 207.902 242.419 206.585 242.419 202.638C242.419 199.997 241.818 196.396 241.083 194.633C239.337 190.448 233.669 185.529 228.899 184.058C226.811 183.414 224.57 182.72 223.917 182.517C223.198 182.293 223.936 180.861 225.795 178.876C229.875 174.52 231.535 170.278 231.535 164.21C231.535 157.072 229.397 152.566 225.171 150.797C213.426 145.882 204.18 153.673 195.273 175.991C194.512 177.896 193.227 173.156 188.689 151.714L183.051 125.069L184.668 118.133C185.557 114.318 187.728 107.914 189.492 103.901L192.699 96.6057L195.131 101.925C204.057 121.452 224.476 121.492 234.389 102.003C243.346 84.3889 240.011 57.3541 225.4 29.1599C219.916 18.5781 208.711 6.90131 200.29 2.9922C193.152 -0.322365 184.427 -0.698908 179.217 2.08057C173.995 4.86798 167.89 11.7934 163.822 19.5442C160.567 25.7473 159.818 26.5697 157.862 26.0782C150.467 24.2193 140.959 23.5851 134.42 24.5136C130.529 25.0665 127.274 25.3995 127.187 25.2538C127.1 25.1072 125.172 21.8055 122.905 17.9162C114.678 3.8097 104.651 -2.07923 93.5046 0.64971ZM104.786 10.0742C108.552 12.0243 113.261 17.5704 116.373 23.7199C118.829 28.5733 118.867 28.8825 117.172 30.1241C114.749 31.8978 114.03 31.771 113.292 29.4424C112.946 28.3494 111.541 26.1199 110.169 24.4878C106.889 20.5837 100.472 20.2607 97.1241 23.8309C91.7849 29.5216 89.1925 46.5622 89.0847 76.6588C89.0322 91.2063 84.5539 102.852 77.403 107.034C73.4501 109.347 70.5084 108.763 65.9648 104.768C60.8453 100.266 57.115 90.9823 56.6044 81.4697C55.5516 61.825 67.728 30.6889 81.4529 17.931C91.0092 9.0486 98.1571 6.6417 104.786 10.0742ZM199.479 12.4256C209.377 18.8318 217.025 29.1272 223.272 44.4545C227.069 53.771 231.535 72.4386 231.535 78.9934C231.535 90.2699 225.426 103.735 218.74 107.197C214.009 109.648 211.754 109.083 207.175 104.296C200.57 97.3935 199.094 91.2023 198.366 67.3771C197.668 44.4793 196.639 35.9605 193.766 29.2729C191.281 23.487 188.804 21.5201 184.006 21.5201C180.062 21.5201 176.052 24.8753 174.233 29.695C173.073 32.7718 172.341 32.9957 169.718 31.0744C167.963 29.7892 168.04 29.4443 171.463 23.3156C173.433 19.788 177.059 15.0426 179.521 12.7704C183.495 9.10111 184.537 8.63836 188.813 8.63836C192.713 8.63836 194.74 9.35776 199.479 12.4256ZM105.46 32.9581C106.905 36.4213 106.875 36.5303 103.311 40.8853C101.323 43.314 99.4681 45.3017 99.1881 45.3017C98.9071 45.3017 98.9368 43.4061 99.2544 41.0904C99.8412 36.7988 102.499 29.4473 103.463 29.4473C103.755 29.4473 104.654 31.0268 105.46 32.9581ZM188.647 42.6055L189.195 47.779L186.667 44.188C185.277 42.2131 183.449 40.3314 182.606 40.0074C180.609 39.2404 180.657 36.0913 182.725 32.1227L184.377 28.9519L186.238 33.1919C187.262 35.5245 188.346 39.7606 188.647 42.6055ZM153.821 33.9371C173.391 39.0422 187.497 54.3982 188.752 71.9649C189.348 80.3113 188.173 85.5324 183.025 97.4083C180.878 102.36 177.784 111.572 176.149 117.881C172.212 133.066 172.027 133.484 167.368 137.698C154.251 149.566 135.366 150.97 123.192 140.979C117.952 136.68 114.512 130.182 110.202 116.443C108.27 110.288 105.211 102.576 103.403 99.3059C98.7517 90.8941 97.4288 83.5159 98.6924 73.047C100.134 61.1076 102.992 54.318 109.569 47.2043C121.561 34.2314 137.096 29.5741 153.821 33.9371ZM119.908 78.0768C117.666 81.6708 117.425 88.9995 119.42 92.8621C121.442 96.7781 123.345 97.5243 126.121 95.4909C128.813 93.52 129.567 82.0573 127.238 78.4989C125.257 75.4688 121.664 75.2617 119.908 78.0768ZM159.855 78.2225C158.029 80.8325 157.794 89.6466 159.455 93.2951C160.799 96.2519 163.782 97.4609 165.733 95.8407C169.185 92.9711 169.963 83.1344 167.154 77.8777C165.794 75.334 161.741 75.5262 159.855 78.2225ZM133.567 103.022C129.526 109.66 132.439 117.045 141.74 123.741L144.461 125.699L148.863 122.086C156.705 115.651 159.26 106.661 154.686 101.601C153.349 100.12 151.507 99.8014 144.294 99.8014H135.528L133.567 103.022ZM148.42 109.043C148.42 109.765 147.36 111.352 146.066 112.571L143.711 114.786L141.626 112.131C140.48 110.672 139.785 109.084 140.082 108.603C140.976 107.154 148.42 107.545 148.42 109.043ZM104.228 125.397C110.063 144.141 121.698 154.385 138.917 155.938C150.583 156.99 165.77 151.484 173.738 143.312L177.566 139.387L181.622 158.488L185.678 177.587L178.675 179.315C174.824 180.266 169.197 182.308 166.171 183.853C160.86 186.566 160.534 186.611 156.771 185.162C154.109 184.136 149.106 183.641 140.999 183.599C130.629 183.546 128.499 183.828 124.178 185.817C118.662 188.355 113.472 192.913 110.984 197.405C109.686 199.746 109.366 202.801 109.476 211.773C109.628 224.199 112.508 237.59 118.641 254.382C122.802 265.776 124.678 268.571 130.972 272.755C135.02 275.448 137.124 277.785 139.475 282.203L142.599 288.073H128.689C121.038 288.073 114.778 287.882 114.778 287.649C114.778 286.669 99.9985 230.333 99.6492 229.983C99.3167 229.65 93.0494 231.461 92.2015 232.135C92.0293 232.272 95.0353 244.492 98.8804 259.291C102.726 274.09 105.873 286.62 105.873 287.135C105.873 287.706 92.7754 288.073 72.3775 288.073H38.8821L38.2469 279.898C35.4516 243.94 41.6298 213.8 54.0298 202.897C59.3977 198.177 61.345 198.817 71.4514 208.628C75.4637 212.522 77.2526 213.703 77.6177 212.696C78.1006 211.367 80.0271 199.929 85.108 168.239C86.2825 160.918 88.3267 151.18 89.6526 146.598C92.3895 137.142 100.123 116.647 100.954 116.647C101.257 116.647 102.73 120.585 104.228 125.397ZM223.02 160.585C224.316 165.426 223.59 168.201 219.976 172.207C216.346 176.231 210.897 179.594 205.493 181.147C202.771 181.927 202.675 181.846 203.301 179.28C206.833 164.779 220.637 151.692 223.02 160.585ZM190.927 188.381C191.422 189.686 192.109 192.255 192.452 194.09L193.078 197.426L181.835 201.132C175.652 203.169 170.142 204.837 169.591 204.837C169.039 204.837 167.835 202.496 166.917 199.635C165.339 194.716 165.342 194.359 166.976 193.088C169.536 191.096 174.987 188.825 180.578 187.421C188.148 185.519 189.902 185.683 190.927 188.381ZM224.24 191.442C229.717 193.071 233.019 196.001 234.046 200.143C235.584 206.348 228.496 207.776 220.156 202.94C214.697 199.775 206.799 193.272 206.799 191.943C206.799 189.901 217.979 189.58 224.24 191.442ZM147.431 191.56L150.894 192.135V200.715C150.894 208.346 151.251 210.051 154.118 216.115C158.949 226.329 158.973 228.036 154.527 245.464C152.373 253.911 150.32 261.53 149.966 262.396C149.481 263.579 150.823 264.77 155.383 267.203C163.326 271.443 167.611 275.31 170.121 280.502C173.713 287.931 173.558 288.076 162.025 288.053L151.883 288.034L147.925 279.929C144.886 273.704 142.934 271.063 139.515 268.544C130.995 262.27 130.032 261.018 126.721 251.905C118.134 228.272 114.944 206.097 119.292 200.265C124.739 192.956 135.595 189.598 147.431 191.56ZM161.886 212.491C161.425 212.953 158.285 203.927 158.387 202.431C158.426 201.846 159.316 203.786 160.363 206.74C161.41 209.693 162.095 212.282 161.886 212.491ZM196.929 208.37C197.459 209.768 197.893 211.46 197.893 212.132C197.893 213.322 174.638 221.52 173.767 220.636C173.529 220.394 173.041 218.63 172.685 216.716L172.036 213.236L182.738 209.618C188.624 207.628 194.009 205.962 194.702 205.914C195.396 205.867 196.397 206.971 196.929 208.37ZM201.94 224.898C202.34 226.394 202.372 227.783 202.011 227.985C200.101 229.056 178.905 235.697 178.546 235.338C178.315 235.105 177.864 233.606 177.544 232.006L176.962 229.096L187.675 225.465C193.567 223.466 199.024 221.909 199.801 222.004C200.579 222.1 201.542 223.402 201.94 224.898ZM195.472 247.055L183.546 251.125L182.452 247.551L181.358 243.978L193.336 239.924L205.314 235.87L206.356 239.428L207.398 242.987L195.472 247.055ZM19.8675 250.631L29.684 258.769V266.485C29.684 270.728 29.492 274.2 29.2575 274.2C29.023 274.2 24.1252 267.662 18.3734 259.672C3.90147 239.565 4.21711 237.654 19.8675 250.631ZM211.035 254.724C211.529 256.207 211.703 258.02 211.422 258.752C211.141 259.484 207.092 261.468 202.425 263.16C189.521 267.836 189.173 267.88 188.086 265.015C185.887 259.224 185.83 259.283 197.399 255.311C203.385 253.255 208.7 251.676 209.211 251.802C209.72 251.927 210.542 253.242 211.035 254.724ZM215.804 272.163C221.538 275.966 224.165 278.84 226.06 283.38L227.604 287.082L215.717 287.231C209.179 287.313 203.315 287.424 202.685 287.478C201.019 287.622 196.651 274.223 198.189 273.687C198.842 273.459 201.604 272.413 204.325 271.361C210.892 268.823 210.753 268.813 215.804 272.163Z" fill="#469797"/>
<path d="M194.977 178.944C194.797 178.833 194.571 178.771 194.351 178.731C194.121 178.689 193.848 178.663 193.546 178.649C192.939 178.621 192.171 178.64 191.293 178.697C189.533 178.81 187.289 179.075 184.93 179.435C180.222 180.153 174.984 181.259 172.169 182.314C168.32 183.756 164.676 185.682 161.986 187.571C160.642 188.514 159.521 189.459 158.731 190.34C157.962 191.197 157.422 192.085 157.422 192.907C157.422 193.033 157.449 193.202 157.483 193.376C157.519 193.563 157.572 193.799 157.64 194.079C157.776 194.639 157.975 195.392 158.229 196.312C158.739 198.153 159.475 200.677 160.382 203.701C162.196 209.749 164.698 217.805 167.449 226.409L167.925 226.257L167.449 226.409C167.998 228.124 168.527 229.781 169.039 231.38C176.257 253.957 179.872 265.261 181.949 270.951C183.054 273.974 183.748 275.485 184.354 276.252C184.675 276.659 184.994 276.887 185.353 277.01C185.594 277.092 185.863 277.124 186.086 277.15C186.152 277.158 186.213 277.165 186.269 277.173C186.939 277.269 187.972 277.147 189.205 276.898C190.459 276.645 191.987 276.246 193.683 275.742C197.077 274.735 201.172 273.303 205.153 271.761C209.133 270.22 213.01 268.567 215.966 267.116C217.442 266.391 218.699 265.711 219.627 265.117C220.09 264.821 220.482 264.539 220.782 264.277C221.067 264.027 221.324 263.748 221.439 263.449C221.557 263.14 221.577 262.696 221.559 262.232C221.54 261.744 221.474 261.152 221.371 260.499C221.163 259.191 220.799 257.604 220.327 256.047C215.882 241.37 212.547 230.414 208.417 216.935C207.179 212.897 206.055 209.116 205.24 206.279C204.833 204.86 204.503 203.679 204.276 202.821C204.192 202.504 204.123 202.234 204.069 202.012C204.281 202.12 204.542 202.268 204.847 202.455C205.856 203.073 207.262 204.067 208.818 205.288C214.682 209.889 220.115 212.858 224.938 214.11C229.77 215.365 234.02 214.901 237.446 212.589C239.743 211.039 241.324 209.418 242.22 207.52C243.119 205.615 243.302 203.489 242.908 200.979C242.185 196.372 240.227 192.514 237.174 189.572C234.122 186.633 230.002 184.631 224.989 183.689L224.989 183.689L222.179 183.161L225.969 179.104L225.969 179.104C229.356 175.478 231.418 171.616 232.098 167.624C232.778 163.628 232.065 159.542 229.97 155.485C228.623 152.876 225.688 151.237 222.441 150.677C219.184 150.115 215.511 150.618 212.577 152.409C210.886 153.442 208.011 156.01 206.155 158.126C204.529 159.981 202.225 163.723 200.189 167.545C198.153 171.365 196.34 175.348 195.727 177.696L195.727 177.696C195.587 178.229 195.375 178.609 195.182 178.808C195.086 178.907 195.019 178.938 194.991 178.945C194.984 178.947 194.983 178.948 194.982 178.947C194.981 178.947 194.98 178.946 194.977 178.944ZM194.977 178.944L194.714 179.37M194.977 178.944C194.977 178.944 194.977 178.944 194.977 178.944L194.714 179.37M194.714 179.37C195.232 179.69 195.905 178.994 196.21 177.823C197.406 173.249 203.361 162.071 206.531 158.456L172.344 182.782C177.872 180.71 193.122 178.385 194.714 179.37ZM223.602 160.683L223.602 160.683C223.18 159.755 222.584 159.115 221.883 158.727C221.181 158.338 220.341 158.185 219.404 158.284C217.52 158.483 215.272 159.708 213.171 162.004L223.602 160.683ZM223.602 160.683C224.422 162.484 224.744 164.006 224.585 165.551C224.425 167.106 223.773 168.737 222.548 170.746C219.266 176.124 213.71 179.94 205.912 182.085C205.912 182.085 205.912 182.085 205.912 182.085L202.869 182.922L203.32 180.664L202.861 180.573M223.602 160.683L202.861 180.573M202.861 180.573L203.32 180.664C203.785 178.335 205.319 174.68 207.221 171.074M202.861 180.573L207.221 171.074M182.135 244.087C185.756 242.732 191.089 240.922 195.69 239.443C197.991 238.703 200.105 238.048 201.728 237.573C202.539 237.336 203.225 237.146 203.748 237.013C204.293 236.874 204.61 236.813 204.72 236.808L204.72 236.808C205.051 236.794 205.469 236.959 205.895 237.345C206.314 237.725 206.699 238.284 206.952 238.953C207.47 240.315 207.797 241.267 207.842 242.029C207.863 242.396 207.817 242.699 207.702 242.972C207.587 243.246 207.39 243.518 207.069 243.802C206.409 244.384 205.28 244.97 203.449 245.69C201.63 246.405 199.178 247.23 195.916 248.312L184.075 252.237L182.738 248.305L182.267 248.465L182.738 248.305C182.168 246.63 181.888 245.562 181.846 244.885C181.825 244.551 181.866 244.368 181.915 244.269C181.953 244.191 182.01 244.134 182.135 244.087ZM182.135 244.087L181.96 243.619L182.135 244.087C182.135 244.087 182.135 244.087 182.135 244.087ZM207.221 171.074C209.121 167.472 211.351 163.993 213.171 162.004L207.221 171.074ZM192.39 191.137L192.39 191.137C192.846 192.585 193.26 194.02 193.559 195.163C193.709 195.735 193.829 196.231 193.912 196.617C193.963 196.858 193.996 197.04 194.014 197.166C194.011 197.168 194.008 197.17 194.005 197.172C193.864 197.264 193.641 197.387 193.336 197.539C192.729 197.841 191.851 198.231 190.779 198.68C188.638 199.575 185.753 200.691 182.791 201.78C179.83 202.87 176.798 203.932 174.362 204.721C173.144 205.115 172.079 205.44 171.249 205.666C170.834 205.779 170.482 205.865 170.202 205.923C170.028 205.959 169.893 205.982 169.793 205.994C169.757 205.945 169.712 205.876 169.658 205.785C169.494 205.511 169.287 205.098 169.051 204.571C168.581 203.521 168.017 202.063 167.474 200.454C167.44 200.353 167.406 200.253 167.374 200.156C166.865 198.649 166.493 197.546 166.302 196.672C166.1 195.747 166.125 195.172 166.342 194.709C166.565 194.234 167.034 193.784 167.95 193.215C168.807 192.683 169.983 192.09 171.571 191.289C171.676 191.236 171.782 191.183 171.89 191.128L171.89 191.128C173.789 190.169 177.228 189.005 180.723 188.052C184.22 187.098 187.699 186.376 189.676 186.275C189.779 186.27 189.923 186.305 190.121 186.463C190.323 186.625 190.553 186.895 190.805 187.304C191.309 188.12 191.84 189.389 192.39 191.137ZM182.652 210.087L182.652 210.087C185.823 209.005 188.895 208.012 191.288 207.285C192.485 206.922 193.51 206.626 194.29 206.418C194.681 206.314 195.007 206.234 195.261 206.178C195.526 206.12 195.684 206.096 195.753 206.093L195.754 206.093C196.115 206.076 196.478 206.237 196.871 206.802C197.277 207.385 197.664 208.333 198.041 209.735C198.336 210.832 198.512 211.904 198.562 212.741C198.587 213.16 198.579 213.505 198.543 213.757C198.526 213.882 198.503 213.972 198.482 214.03C198.474 214.051 198.468 214.065 198.463 214.073C198.438 214.089 198.357 214.137 198.187 214.219C197.991 214.313 197.724 214.429 197.392 214.566C196.728 214.839 195.825 215.184 194.758 215.575C192.624 216.357 189.849 217.318 187.049 218.253C184.25 219.188 181.431 220.095 179.209 220.767C178.098 221.104 177.14 221.381 176.411 221.573C176.046 221.669 175.742 221.743 175.508 221.792C175.297 221.837 175.17 221.855 175.108 221.86C175.103 221.857 175.095 221.853 175.086 221.847C175.04 221.818 174.971 221.762 174.882 221.669C174.705 221.482 174.493 221.193 174.264 220.81C173.807 220.048 173.318 218.981 172.915 217.797C172.915 217.797 172.915 217.797 172.915 217.797L171.577 213.867L182.652 210.087ZM211.808 254.946L211.808 254.947C212.089 255.96 212.345 257.004 212.531 257.868C212.696 258.638 212.796 259.223 212.82 259.523C212.815 259.528 212.81 259.533 212.804 259.538C212.713 259.621 212.56 259.733 212.338 259.874C211.899 260.154 211.251 260.505 210.44 260.907C208.822 261.71 206.601 262.691 204.209 263.673C199.411 265.644 193.998 267.589 191.415 268.106C190.752 268.239 190.302 268.308 189.959 268.291C189.649 268.276 189.455 268.192 189.278 268.013C189.075 267.807 188.867 267.448 188.621 266.81C188.377 266.179 188.117 265.333 187.783 264.196L186.501 259.837L198.04 255.859L197.883 255.403L198.041 255.859C201.337 254.723 204.411 253.681 206.708 252.919C207.857 252.537 208.81 252.226 209.499 252.008C209.844 251.899 210.12 251.814 210.321 251.755C210.387 251.736 210.444 251.719 210.491 251.706C210.499 251.716 210.508 251.727 210.517 251.739C210.623 251.879 210.757 252.109 210.907 252.426C211.204 253.053 211.531 253.945 211.808 254.946ZM212.826 259.639C212.826 259.639 212.826 259.639 212.826 259.638C212.826 259.639 212.826 259.639 212.826 259.639V259.639ZM210.424 251.635C210.421 251.632 210.421 251.632 210.424 251.634L210.424 251.635ZM223.304 191.273C227.599 192.195 231.291 194.709 233.408 197.511C235.545 200.339 235.967 203.263 234.199 205.22C233.116 206.418 231.649 206.988 229.651 206.882C227.629 206.774 225.084 205.971 221.921 204.42C218.989 202.983 214.976 200.111 211.83 197.441C210.259 196.107 208.922 194.839 208.053 193.842C207.615 193.339 207.317 192.928 207.163 192.627C207.107 192.519 207.079 192.441 207.065 192.39C207.074 192.384 207.084 192.378 207.094 192.372C207.155 192.334 207.237 192.291 207.341 192.242C207.55 192.145 207.828 192.038 208.165 191.924C208.837 191.698 209.712 191.457 210.678 191.23C212.614 190.776 214.872 190.386 216.533 190.274C216.933 190.247 217.888 190.335 219.15 190.519C220.391 190.7 221.877 190.966 223.304 191.273ZM207.001 192.438L207.002 192.437L207.001 192.438ZM202.761 225.182C203.068 226.183 203.321 227.107 203.483 227.787C203.562 228.121 203.617 228.388 203.646 228.573C203.582 228.604 203.503 228.642 203.407 228.684C203.162 228.793 202.839 228.923 202.447 229.072C201.664 229.369 200.624 229.732 199.413 230.136C196.99 230.944 193.898 231.909 190.836 232.822C187.774 233.735 184.748 234.594 182.459 235.191C181.313 235.49 180.358 235.721 179.678 235.861C179.336 235.931 179.075 235.976 178.899 235.995C178.89 235.996 178.882 235.997 178.875 235.998C178.837 235.933 178.791 235.845 178.739 235.732C178.633 235.506 178.518 235.214 178.4 234.875C178.165 234.197 177.93 233.354 177.753 232.516L177.189 229.831L188.453 225.986C191.663 224.891 194.701 223.886 197.009 223.151C198.163 222.783 199.132 222.483 199.848 222.273C200.207 222.167 200.498 222.086 200.716 222.029C200.826 222.001 200.913 221.98 200.98 221.966C201.013 221.959 201.036 221.954 201.053 221.951C201.073 221.962 201.122 221.991 201.204 222.069C201.346 222.204 201.518 222.425 201.704 222.731C202.076 223.338 202.462 224.205 202.761 225.182Z" fill="#FF891B" stroke="#FF891B"/>
</svg>
