<svg width="248" height="296" viewBox="0 0 248 296" fill="none" xmlns="http://www.w3.org/2000/svg">
<path fill-rule="evenodd" clip-rule="evenodd" d="M179.849 1.03416C170.486 2.86336 160.398 12.3722 153.974 25.4228L150.993 31.4775L142.244 28.4452C134.266 25.6799 132.354 25.4108 120.537 25.3859C108.527 25.361 107.159 25.5553 101.867 28.0365L96.1563 30.714L92.4541 23.6683C87.753 14.7227 80.7801 7.5455 73.5939 4.25494C65.705 0.643404 56.1822 1.22855 46.5518 5.91766C33.0656 12.4828 16.9019 32.281 8.79559 52.1639C2.05499 68.6974 0.115147 78.2959 0.0124725 95.6359C-0.0692681 109.204 0.203866 111.998 2.25336 118.563C4.68365 126.351 9.06773 135.314 12.4301 139.368C13.5076 140.667 16.0685 142.316 18.12 143.031L21.8502 144.331L21.3517 149.64C21.0776 152.559 20.8852 162.798 20.9231 172.392C20.9879 188.499 21.1962 190.449 23.6385 197.812C25.0939 202.198 27.9787 208.642 30.0481 212.133C34.3355 219.361 44.0039 228.872 51.3027 233.041L56.256 235.87L52.0114 237.139C25.7438 244.994 17.0643 268.654 34.5588 284.715C43.1545 292.606 53.1428 296.007 67.6648 295.988C82.6522 295.968 93.0831 292.141 101.78 283.471C111.027 274.252 112.35 262.199 105.248 251.878L102.312 247.609L123.514 247.632L144.717 247.653L142.195 250.644C138.45 255.085 136.982 259.377 137.007 265.814C137.072 283.245 154.754 296 178.852 296C196.709 296 211.167 289.196 217.769 277.684C220.195 273.457 220.698 271.456 220.688 266.095C220.672 258.095 218.421 252.78 212.696 247.224C208.369 243.024 198.825 237.926 192.995 236.699L189.693 236.004L197.398 230.946C212.736 220.876 221.673 209.18 225.836 193.724C228.439 184.054 228.774 161.202 226.479 149.781C225.054 142.698 225.062 142.614 227.202 142.077C233.355 140.532 241.129 129.848 245.342 117.146C247.795 109.749 248.011 107.794 247.997 93.1438C247.984 78.9957 247.684 76.1029 245.335 67.5341C237.775 39.9596 220.456 14.318 203.274 5.25975C198.413 2.69689 187.382 -0.431185 184.899 0.0492898C184.589 0.1091 182.316 0.552692 179.849 1.03416ZM198.527 11.4082C225.091 24.6981 246.36 73.0017 240.319 106.325C238.03 118.953 231.417 131.955 226.037 134.406C224.615 135.054 223.353 135.456 223.231 135.297C223.108 135.14 221.312 129.852 219.237 123.547C214.902 110.373 209.477 97.6017 203.356 86.166C199.242 78.4774 199.066 77.7796 198.449 66.7277C197.693 53.2136 195.803 43.6758 192.411 36.2653C186.824 24.0621 175.453 23.8448 169.382 35.8257L166.82 40.8817L164.114 39.2768C157.105 35.122 157.25 35.6294 160.934 28.1471C162.759 24.4409 166.304 19.2035 168.811 16.509C177.649 7.0102 186.648 5.4661 198.527 11.4082ZM68.5858 10.1183C73.9119 11.6854 82.7349 20.4695 86.6734 28.1262L89.635 33.8839L85.6477 37.309C83.4546 39.1931 81.435 40.7521 81.1599 40.772C80.8848 40.793 79.554 38.7255 78.2033 36.1786C74.0624 28.3734 67.7933 25.981 61.5143 29.8098C55.1973 33.6606 50.6567 47.72 49.6121 66.6619C49.1096 75.7769 48.5684 78.7744 47.0282 80.9744C42.1557 87.9363 32.918 108.41 28.5928 121.835C24.0621 135.893 23.7292 136.557 21.3557 136.289C18.5407 135.971 13.7289 128.762 10.4105 119.894C-3.10762 83.7646 22.0276 22.1103 55.0887 10.3008C59.717 8.647 63.4152 8.59716 68.5858 10.1183ZM134.516 33.8759C136.311 34.5388 141.225 39.3386 146.953 46.0224C182.922 87.9991 201.469 113.154 213.299 136.008C217.577 144.276 218.672 147.492 219.715 154.863C221.093 164.608 220.687 187.791 219.088 190.649C218.236 192.173 217.731 191.853 215.105 188.124C189.147 151.276 153.977 102.438 140.896 85.0764C128.018 67.9837 122.599 59.8146 116.688 48.5823C112.5 40.6235 109.073 33.854 109.073 33.54C109.073 31.6789 129.284 31.9461 134.516 33.8759ZM183.596 36.0749C184.751 37.308 186.203 39.6536 186.822 41.2854C188.576 45.9157 190.814 57.468 190.814 61.898V65.9103L186.895 60.952C184.739 58.2256 180.776 53.7937 178.086 51.1042L173.196 46.2138L174.548 42.3102C175.815 38.6498 179.393 33.8321 180.846 33.8321C181.202 33.8321 182.44 34.8419 183.596 36.0749ZM72.2632 40.9525C73.3198 43.0239 74.1841 45.2558 74.1841 45.9137C74.1841 46.5706 71.8186 49.617 68.9277 52.6822C66.0369 55.7465 62.1742 60.0489 60.344 62.2419L57.0165 66.2292L57.6216 59.1198C58.4689 49.1704 61.6518 39.4094 64.8786 36.8714C67.9758 34.4352 69.3155 35.1748 72.2632 40.9525ZM110.663 53.2704C139.283 108.034 161.455 166.412 173.32 218.247L176.63 232.701L169.878 234.886C158.678 238.511 143.207 240.345 124.026 240.321C57.1501 240.235 27.3178 218.598 27.3367 170.191C27.3477 141.155 39.7533 104.08 58.6005 76.7538C68.9457 61.7534 96.2769 36.1039 100.92 37.0379C101.695 37.1934 106.079 44.4982 110.663 53.2704ZM167.248 51.3495C179.413 61.6956 189.992 76.062 199.661 95.3688C202.471 100.978 204.77 105.84 204.77 106.171C204.77 106.503 200.897 101.464 196.164 94.975C186.495 81.7161 175.438 67.8032 163.418 53.7688C158.957 48.5603 154.932 43.6738 154.472 42.9093C153.028 40.5089 159.63 44.871 167.248 51.3495ZM154.677 116.32C180.461 151.779 214.738 200.517 214.738 201.719C214.738 206.398 201.874 219.621 190.882 226.24C184.249 230.236 182.839 230.408 182.839 227.227C182.839 226.202 180.559 216.247 177.773 205.106C170.142 174.597 156.89 135.952 142.542 102.365C141.664 100.309 141.14 98.6264 141.378 98.6264C141.616 98.6264 147.6 106.588 154.677 116.32ZM80.8459 115.538C76.4718 120.736 76.1807 130.712 80.2099 137.338C81.6862 139.764 82.8276 140.494 85.1493 140.494C93.0123 140.494 95.6729 122.163 88.8734 114.825C86.0733 111.803 83.8205 112.003 80.8459 115.538ZM107.205 149.76C101.433 159.1 104.644 168.855 116.783 178.848C119.796 181.328 122.632 183.358 123.087 183.358C124.833 183.358 136.208 171.874 138.739 167.554C142.246 161.57 142.404 154.275 139.124 149.669L136.849 146.475H123.042H109.236L107.205 149.76ZM133.804 157.127C134.19 161.113 132.128 165.148 126.915 170.615L122.842 174.884L117.526 169.185C111.911 163.165 110.925 160.67 112.383 156.16L113.279 153.385L123.388 153.668L133.496 153.951L133.804 157.127ZM105.086 212.316C94.0261 213.525 91.9038 214.47 92.3105 218.006C92.6734 221.153 91.8231 221.082 110.569 219.531C121.804 218.601 138.968 219.16 148.603 220.77C152.119 221.357 152.903 221.165 153.797 219.494C155.422 216.457 153.045 214.123 147.368 213.18C139.283 211.838 114.149 211.325 105.086 212.316ZM76.2176 243.176C86.8977 245.2 97.1302 251.535 100.685 258.32C102.498 261.781 102.497 269.416 100.682 272.873C98.2258 277.553 91.6576 283.049 85.558 285.53L79.6667 287.926L79.3885 273.838C79.1054 259.46 78.5053 257.123 75.0942 257.123C71.9342 257.123 71.1936 260.519 71.1936 275.001V289.022L66.4586 289.008C56.8371 288.981 57.2378 289.616 57.2378 274.387C57.2378 260.6 56.4683 257.123 53.415 257.123C49.8144 257.123 49.2632 259.135 49.2632 272.275C49.2632 279.293 48.9023 285.035 48.4617 285.035C46.3035 285.035 38.1096 278.721 35.9155 275.368C32.4994 270.147 31.8674 266.774 33.3297 261.551C37.0599 248.229 57.2488 239.578 76.2176 243.176ZM195.126 245.182C209.751 250.654 216.814 261.795 212.382 272.402C210.66 276.525 203.113 283.212 197.849 285.279L193.804 286.868V273.115C193.804 258.635 193.178 256.524 189.117 257.302C187.51 257.61 187.273 259.242 186.827 273.085L186.328 288.524L178.603 288.815L170.877 289.106V274.234C170.877 258.569 170.308 256.512 166.19 257.303C164.581 257.612 164.37 259.096 164.122 271.839C163.951 280.57 163.456 286.032 162.836 286.032C160.951 286.032 153.446 281.837 150.6 279.193C146.86 275.719 143.963 269.938 143.963 265.951C143.963 261.596 147.42 254.76 151.267 251.505C155.166 248.207 163.316 244.39 169.059 243.172C175.736 241.756 188.626 242.75 195.126 245.182Z" fill="#469797"/>
<path fill-rule="evenodd" clip-rule="evenodd" d="M141.784 27.982C133.806 25.2168 131.894 24.9477 120.077 24.9227C108.067 24.8978 106.699 25.0922 101.407 27.5733L95.6963 30.2508L100.46 36.5748C101.235 36.7303 105.619 44.0351 110.203 52.8072C138.823 107.57 160.995 165.949 172.86 217.784L176.17 232.238C179.684 237.896 182.023 238.467 189.233 235.541L196.938 230.483C212.276 220.413 221.213 208.716 225.376 193.26C227.979 183.591 228.314 160.739 226.019 149.318L222.771 134.834L204.31 105.708C204.31 106.04 200.437 101.001 195.704 94.5119C186.035 81.253 174.978 67.3401 162.958 53.3057C158.497 48.0972 154.472 43.2107 154.012 42.4461L141.784 27.982ZM146.493 45.5592C140.765 38.8755 135.851 34.0757 134.056 33.4128C128.824 31.4829 108.613 31.2158 108.613 33.0769C108.613 33.3909 112.04 40.1604 116.228 48.1191C122.139 59.3515 127.558 67.5205 140.436 84.6133C153.517 101.975 188.687 150.813 214.645 187.661C217.271 191.389 217.776 191.709 218.628 190.186C220.227 187.328 220.633 164.145 219.255 154.4C218.212 147.029 217.117 143.812 212.839 135.545C201.009 112.691 182.462 87.536 146.493 45.5592ZM214.278 201.256C214.278 200.054 180.001 151.316 154.217 115.857C147.14 106.125 141.156 98.1633 140.918 98.1633C140.68 98.1633 141.204 99.846 142.082 101.901C156.43 135.489 169.681 174.134 177.313 204.643C180.099 215.784 182.379 225.738 182.379 226.764C182.379 229.945 183.789 229.773 190.422 225.777C201.414 219.158 214.278 205.935 214.278 201.256Z" fill="#FF891B"/>
</svg>
