<svg width="308" height="296" viewBox="0 0 308 296" fill="none" xmlns="http://www.w3.org/2000/svg">
<path fill-rule="evenodd" clip-rule="evenodd" d="M40.1139 1.89893C18.7712 9.32527 -0.021682 40.0238 1.87754e-05 67.4242C0.0108692 82.1736 1.92674 87.8993 9.69717 96.4175L16.2663 103.619L16.4508 117.922C16.8119 145.847 26.4223 158.672 53.0135 166.704L61.8581 169.377L62.3138 227.35C62.754 283.573 62.8656 285.452 66.0262 289.544C72.3427 297.726 82.5234 297.886 88.6849 289.898C91.258 286.563 91.7897 282.505 92.5693 260.286C93.4513 235.135 93.5614 234.471 97.3172 231.619C108.425 223.187 131.745 236.004 131.745 250.54C131.745 257.282 128.776 263.04 124.893 263.828C123.119 264.187 117.761 265.207 112.982 266.095C95.1424 269.413 89.1887 284.131 102.243 292.643C107.241 295.902 108.575 296.009 144.763 296C165.541 295.995 184.666 295.31 187.854 294.456C191.007 293.611 197.046 290.673 201.275 287.927L208.963 282.934L212.138 287.079C216.22 292.407 227.573 296.674 234.37 295.434C242.396 293.971 249.119 289.201 252.975 282.231C256.489 275.88 256.533 275.128 257.3 207.76L258.075 139.704L265.373 138.895C269.386 138.449 272.979 137.776 273.355 137.399C273.732 137.021 275.367 132.341 276.99 126.998C280.145 116.611 279.26 117.304 294.188 113.547C299.009 112.334 301.684 110.549 303.87 107.091C306.679 102.646 306.891 99.2923 306.896 59.2335C306.902 12.7834 306.764 11.8845 298.401 4.33998L294.258 0.600635L256.79 0.17435C220.39 -0.239969 219.125 -0.154712 212.348 3.16582C200.287 9.07548 199.953 10.5862 199.956 58.9344C199.96 110.673 199.582 109.673 221.16 114.986C227.371 116.516 227.753 116.948 230.103 125.152C233.569 137.253 234.311 138.117 241.958 138.956L248.775 139.704V207.012C248.775 282.338 248.885 281.545 237.789 286.65C232.93 288.886 231.712 288.919 225.987 286.967C222.476 285.77 218.232 283.002 216.557 280.816C213.644 277.02 213.621 276.524 216.028 269.706C219.691 259.333 219.19 246.334 214.647 233.936C210.949 223.839 210.812 222.094 210.804 185.065L210.798 146.664L206.739 142.009C201.163 135.616 194.544 132.628 185.952 132.628C176.489 132.628 168.136 136.571 163.427 143.256C160.414 147.536 159.646 150.527 159.646 158C159.646 163.156 159.161 167.375 158.568 167.375C156.92 167.375 145.696 159.627 145.696 158.491C145.696 157.942 148.091 155.252 151.019 152.514C159.791 144.309 163.289 134.568 163.456 117.88L163.601 103.533L170.131 96.3741C177.715 88.0608 179.777 82.1302 179.788 68.5968C179.808 45.724 166.771 18.9832 149.819 7.13551C142.535 2.04402 133.426 -0.610912 127.863 0.736747C122.802 1.96175 115.457 8.99919 111.575 16.3433L108.574 22.0196L101.172 19.7999C94.0822 17.6745 78.3662 17.7328 72.8433 19.9061C71.208 20.5493 69.4069 18.7963 66.7749 14.0024C60.525 2.61988 50.7705 -1.809 40.1139 1.89893ZM53.9187 9.67377C57.9829 12.4214 64.0747 23.2401 62.7354 25.3311C61.3094 27.5583 59.1935 27.0662 55.6982 23.6933C53.6784 21.7444 50.9721 20.7826 48.3354 21.0758C44.7114 21.4796 43.7968 22.7136 41.326 30.5154C39.7636 35.4513 34.3059 50.9322 29.1984 64.9173C24.091 78.9024 19.6005 91.2782 19.2192 92.4179C18.6704 94.0602 17.8551 93.9047 15.3006 91.673C9.37475 86.4993 7.33333 80.5792 7.33333 68.5759C7.33333 54.6236 11.644 41.0932 20.0267 28.7354C31.9699 11.1261 45.1237 3.72972 53.9187 9.67377ZM140.72 10.1913C158.045 18.8082 172.193 44.8759 172.451 68.6566C172.58 80.4176 170.531 86.3961 164.596 91.5788C161.561 94.2292 161.448 94.2083 160.384 90.8279C159.783 88.9164 155.233 76.584 150.272 63.4216C145.312 50.2591 139.986 35.4513 138.437 30.5154C135.969 22.6523 135.095 21.4826 131.378 21.0698C128.345 20.7332 126.012 21.7668 123.2 24.6954C120.298 27.7153 118.809 28.3525 117.531 27.12C113.659 23.3837 125.116 7.33145 131.654 7.33145C133.477 7.33145 137.557 8.61928 140.72 10.1913ZM294.621 11.7035L299.151 16.0755V59.3846C299.151 108.039 299.781 105.485 287.23 107.748C276.276 109.722 273.321 112.29 270.382 122.397L267.792 131.306L259.513 132.303C254.961 132.852 248.643 132.71 245.471 131.986C240.054 130.749 239.555 130.137 237.155 121.776C234.306 111.854 230.506 108.578 219.951 106.949C212.699 105.83 207.698 101.496 207.698 96.3278V92.5884H226.207C245.254 92.5884 249.826 91.1914 244.066 87.126C242.085 85.729 236.061 85.1097 224.453 85.1097H207.698V78.3789V71.6481H225.335C238.884 71.6481 243.404 71.144 244.844 69.4703C248.52 65.194 244.918 64.1694 226.207 64.1694H207.698V57.4386V50.7078H225.335C238.884 50.7078 243.404 50.2037 244.844 48.53C248.52 44.2537 244.918 43.2291 226.207 43.2291H207.698V35.0026V26.776H226.207C244.918 26.776 248.52 25.7514 244.844 21.4751C243.404 19.8014 238.884 19.2973 225.335 19.2973C215.634 19.2973 207.698 18.7738 207.698 18.1352C207.698 15.7734 212.781 10.0686 216.002 8.81522C217.829 8.10325 235.246 7.47803 254.707 7.42568L290.09 7.33145L294.621 11.7035ZM106.996 30.0292C127.619 39.9729 141.283 57.9546 151.121 88.1012C159.631 114.175 158.031 133.712 146.361 146.237C134.408 159.066 111.412 165.357 81.4492 163.996C53.1716 162.713 35.69 154.977 28.2374 140.452C24.432 133.035 24.0228 130.68 24.0863 116.52C24.1499 102.332 24.7312 99.1831 30.1098 83.9236C36.9378 64.5479 44.0541 52.3636 54.8022 41.6421C72.042 24.4457 88.037 20.8858 106.996 30.0292ZM52.6926 31.9169C52.6926 34.15 48.3788 38.0703 47.1868 36.9186C46.7574 36.5043 47.1217 34.3489 47.9959 32.1293C49.5553 28.17 52.6926 28.028 52.6926 31.9169ZM132.637 34.8515C133.526 38.3231 133.316 38.9483 131.584 37.9836C126.187 34.9816 125.581 33.9929 127.272 30.9461C129.219 27.4356 131.085 28.7938 132.637 34.8515ZM59.8322 78.4343C58.3317 79.8821 57.3428 83.3478 57.3428 87.1604C57.3428 97.5438 63.5787 100.8 66.592 91.9916C69.6642 83.0082 64.9303 73.5148 59.8322 78.4343ZM114.141 78.3789C110.809 81.5948 110.713 93.0117 113.997 95.6427C115.978 97.2282 116.832 97.1489 118.86 95.194C122.014 92.1502 122.106 81.1505 119.002 78.1561C116.95 76.1742 116.4 76.1996 114.141 78.3789ZM79.0978 104.456C75.8582 110.298 77.216 116.116 83.1078 121.639C89.4491 127.58 91.3928 127.297 98.2518 119.431C102.508 114.55 103.365 109.281 100.69 104.456C99.3803 102.095 97.3947 101.563 89.8939 101.563C82.3932 101.563 80.4076 102.095 79.0978 104.456ZM94.5441 111.053C94.5441 112.16 93.2204 114.221 91.6006 115.635C88.8012 118.08 88.5361 118.038 86.1754 114.787C82.6087 109.872 83.0334 109.042 89.1189 109.042C92.6298 109.042 94.5441 109.752 94.5441 111.053ZM196.848 143.328C203.927 148.164 204.552 151.286 204.575 181.959C204.587 197.796 204.074 210.734 203.436 210.713C202.797 210.692 199.86 207.243 196.91 203.047C193.96 198.853 185.77 190.288 178.709 184.015L165.871 172.61L165.859 163.962C165.842 151.564 168.919 145.487 177.026 141.913C184.432 138.65 190.646 139.092 196.848 143.328ZM68.5636 147.657C67.043 151.489 71.4684 153.034 85.6375 153.622C102.353 154.314 110.82 152.71 110.82 148.848C110.82 146.478 108.741 146.188 90.0831 145.95C74.1609 145.748 69.165 146.145 68.5636 147.657ZM149.184 170.446L159.646 177.899V195.969V214.039L154.996 218.23C152.439 220.535 150.346 223.942 150.346 225.799C150.346 229.05 162.858 271.018 163.59 270.222C163.787 270.008 166.467 259.86 169.547 247.669C175.479 224.179 175.409 221.617 168.7 217.023C166.24 215.339 165.847 212.916 165.847 199.448C165.847 190.857 166.389 183.828 167.051 183.828C168.691 183.828 187.599 202.772 192.432 209.256C204.398 225.314 204.598 226.02 204.598 252.281V276.346L198.785 280.973C195.589 283.518 190.531 286.255 187.547 287.057C184.564 287.858 165.315 288.516 144.774 288.521C109.851 288.53 107.25 288.343 104.72 285.646C101.62 282.341 102.572 277.327 106.703 275.194C108.16 274.442 113.867 273.042 119.385 272.084C130.645 270.132 135.399 266.809 138.059 259.031C142.184 246.969 134.779 231.833 121.783 225.761C107.272 218.983 94.5085 220.786 88.3842 230.48C85.6018 234.884 85.2546 238.001 85.25 258.656C85.2453 277.249 84.7633 282.544 82.8303 285.205C79.7008 289.519 75.0832 289.441 72.0854 285.024C70.0331 282.004 69.7603 273.893 70.1121 226.366L70.5182 171.21L83.6937 171.61C97.576 172.03 120.681 168.786 129.086 165.236C136.606 162.061 137.876 162.39 149.184 170.446ZM165.529 224.592C167.274 226.621 164.749 240.666 162.64 240.666C161.009 240.666 157.63 226.152 158.826 224.284C160.189 222.155 163.567 222.311 165.529 224.592Z" fill="#469797"/>
<path fill-rule="evenodd" clip-rule="evenodd" d="M209.341 282.934L212.515 287.079C216.598 292.407 227.951 296.674 234.748 295.434C242.774 293.971 249.496 289.201 253.353 282.231C256.867 275.88 256.91 275.128 257.677 207.76L258.453 139.704L265.75 138.895C269.763 138.449 273.356 137.776 273.733 137.399C274.11 137.021 275.745 132.341 277.368 126.998C280.522 116.611 279.637 117.304 294.566 113.547C299.386 112.334 302.062 110.549 304.247 107.091C307.056 102.646 307.268 99.2923 307.273 59.2335C307.279 12.7834 307.141 11.8845 298.779 4.33998L294.635 0.600635L257.168 0.17435C220.768 -0.239969 219.503 -0.154712 212.726 3.16582C200.665 9.07548 200.33 10.5862 200.333 58.9344C200.338 110.673 199.96 109.673 221.538 114.986C227.749 116.516 228.13 116.948 230.48 125.152C233.946 137.253 234.689 138.117 242.335 138.956L249.152 139.704V207.012C249.152 282.338 249.262 281.545 238.167 286.65C233.307 288.886 232.089 288.919 226.365 286.967C222.854 285.77 218.61 283.002 216.934 280.816C214.022 277.02 213.998 276.524 216.406 269.706C220.068 259.333 219.568 246.334 215.025 233.935C211.326 223.839 211.19 222.094 211.182 185.065L211.176 146.664L207.116 142.009C201.541 135.616 194.922 132.628 186.33 132.628C176.867 132.628 168.514 136.571 163.805 143.256C160.791 147.536 160.024 150.527 160.024 158C160.024 163.156 160.618 167.354 160.024 167.354V177.899V195.969V214.039L155.374 218.23C152.816 220.535 150.724 223.942 150.724 225.799C150.724 229.05 163.236 271.018 163.967 270.222C164.164 270.008 166.844 259.86 169.924 247.669C175.856 224.179 175.786 221.617 169.078 217.023C166.618 215.339 166.224 212.916 166.224 199.448C166.224 190.857 166.767 183.828 167.429 183.828L166.249 172.61L166.237 163.962C166.22 151.564 169.296 145.487 177.403 141.913C184.809 138.65 191.024 139.092 197.225 143.328C204.304 148.164 204.929 151.286 204.952 181.959C204.965 197.796 204.976 220.638 204.976 220.638L209.341 282.934ZM299.529 16.0755L294.998 11.7035L290.467 7.33145L255.084 7.42568C235.623 7.47803 218.207 8.10325 216.379 8.81522C213.158 10.0686 208.076 15.7734 208.076 18.1352C208.076 18.7738 216.012 19.2973 225.712 19.2973C239.261 19.2973 243.781 19.8014 245.221 21.4751C248.898 25.7514 245.296 26.776 226.585 26.776H208.076V35.0026V43.2291H226.585C245.296 43.2291 248.898 44.2537 245.221 48.53C243.781 50.2037 239.261 50.7078 225.712 50.7078H208.076V57.4386V64.1694H226.585C245.296 64.1694 248.898 65.194 245.221 69.4703C243.781 71.144 239.261 71.6481 225.712 71.6481H208.076V78.3789V85.1097H224.83C236.439 85.1097 242.462 85.729 244.443 87.126C250.203 91.1914 245.632 92.5884 226.585 92.5884H208.076V96.3278C208.076 101.496 213.076 105.83 220.329 106.949C230.883 108.578 234.684 111.854 237.533 121.776C239.932 130.137 240.432 130.749 245.849 131.986C249.02 132.71 255.338 132.852 259.891 132.303L268.17 131.306L270.76 122.397C273.699 112.29 276.653 109.722 287.608 107.748C300.158 105.485 299.529 108.039 299.529 59.3846V16.0755ZM163.017 240.666C165.127 240.666 167.652 226.621 165.906 224.592C163.944 222.311 160.566 222.155 159.204 224.284C158.007 226.152 161.386 240.666 163.017 240.666Z" fill="#FF891B"/>
</svg>
