<svg width="307" height="297" viewBox="0 0 307 297" fill="none" xmlns="http://www.w3.org/2000/svg">
<path fill-rule="evenodd" clip-rule="evenodd" d="M196.157 1.62514C193.253 2.66014 189.058 4.96915 186.834 6.75515L182.792 10.0041L173.114 8.32214C167.791 7.39714 162.601 6.40514 161.58 6.11614C160.171 5.71814 153.249 12.0511 132.868 32.3811L106.011 59.1701L96.3837 57.4641C85.2377 55.4891 87.4267 54.5931 73.5897 66.7941C63.8427 75.3891 64.0977 74.5411 66.5407 90.2251L68.1457 100.528L82.7907 115.147L97.4357 129.766L107.758 130.825C113.435 131.407 118.838 131.643 119.764 131.349C120.689 131.055 125.821 126.13 131.168 120.404L140.89 109.994L139.768 101.305L138.647 92.6171L149.538 81.4561C155.528 75.3171 167.613 62.9941 176.394 54.0721L192.358 37.8491L190.485 29.0721C187.32 14.2401 187.242 15.2821 191.737 12.3071C196.36 9.24814 203.816 6.79414 208.49 6.79414C210.269 6.79414 214.776 7.73614 218.505 8.88814C224.104 10.6171 226.267 11.9661 230.934 16.6381C234.794 20.5021 237.115 23.8551 238.26 27.2221C240.601 34.1061 240.423 44.3761 237.838 51.5061C235.895 56.8691 233.629 59.3851 206.954 85.7941C169.965 122.414 167.184 126.585 168.133 144.03C168.62 152.966 170.394 158.031 176.078 166.714C178.717 170.744 179.962 171.794 182.103 171.794C186.578 171.794 186.531 168.782 181.943 161.683C174.183 149.678 173.085 139.166 178.441 128.168C180.419 124.105 184.615 118.903 192.051 111.294L202.8 100.294L219.618 100.339C238.056 100.387 242.94 101.259 256.738 106.96C263.461 109.739 265.641 111.354 273.953 119.718C283.39 129.213 283.518 129.409 289.102 142.794C295.51 158.154 296.936 163.864 296.936 174.162C296.936 192.904 285.854 210.065 262.519 227.453C251.44 235.709 250.009 237.332 252.077 239.294C253.417 240.565 263.392 243.615 279.838 247.784C289.579 250.254 297.409 253.941 298.924 256.772C300.398 259.525 299.154 263.605 296.263 265.499C294.152 266.882 293.092 266.924 288.136 265.822C281.408 264.325 265.528 259.412 251.187 254.392C239.393 250.264 226.596 247.794 216.996 247.794C209.015 247.794 206.332 249.251 207.289 253.065C207.818 255.172 210.371 256.875 221.187 262.336C228.474 266.015 236.161 270.661 238.268 272.66C247.109 281.043 246.907 287.794 237.815 287.794C233.434 287.794 229.766 286.202 222.876 281.309C215.091 275.78 194.756 265.92 187.936 264.367C184.361 263.552 176.246 262.58 169.903 262.206L158.37 261.526L158.255 249.41C158.048 227.642 153.022 214.836 139.372 201.294C126.042 188.071 119.936 185.045 119.936 191.662C119.936 193.688 121.268 195.377 125.57 198.805C144.675 214.026 151.345 228.04 150.719 251.638L150.436 262.294L138.083 262.976C131.289 263.352 125.071 263.912 124.266 264.221C123.348 264.573 122.92 265.811 123.119 267.538C123.48 270.681 119.304 270.402 157.436 269.828C178.505 269.511 186.535 270.502 194.703 274.427C200.365 277.148 202.936 280.645 202.936 285.627V288.56L163.186 289.313C83.7047 290.819 65.8457 287.803 46.3677 269.582C33.9277 257.944 25.4437 244.345 22.3227 231.037C19.8737 220.597 20.8357 203.514 24.4197 193.794C26.8147 187.301 32.3937 175.143 33.5647 173.867C33.7807 173.632 35.1897 174.578 36.6957 175.97C44.4847 183.162 60.9447 191.615 73.4357 194.838C77.8357 195.973 86.1667 197.164 91.9497 197.485C101.125 197.994 102.645 197.85 103.892 196.348C106.685 192.982 104.066 191.359 94.6717 190.634C70.1317 188.74 51.0757 180.293 35.3257 164.326C18.2027 146.968 9.11067 127.163 7.36867 103.425C6.76667 95.2181 6.39067 93.7561 4.75267 93.2361C3.70067 92.9021 2.12467 93.2221 1.25067 93.9481C-0.0893297 95.0601 -0.242335 96.8421 0.274665 105.281C0.611665 110.788 1.80566 118.894 2.92766 123.294C6.51166 137.351 15.8087 154.555 25.1747 164.462L28.1697 167.63L23.1087 177.962C15.7027 193.084 13.5397 201.719 13.6327 215.794C13.7467 233.116 17.3217 244.606 27.0687 258.981C36.3007 272.597 51.2327 284.897 64.4017 289.736C80.5277 295.66 95.1347 296.794 155.351 296.794C195.921 296.794 205.908 296.535 207.4 295.444C208.692 294.499 209.387 292.397 209.715 288.444C209.973 285.336 210.488 282.794 210.859 282.794C211.231 282.794 215.227 285.237 219.739 288.223C229.44 294.642 236.198 296.608 242.618 294.88C248.297 293.35 251.936 288.919 251.936 283.533C251.936 274.668 245.116 266.349 232.201 259.461C228.48 257.476 226.111 255.846 226.936 255.838C230.273 255.806 242.301 259.131 257.436 264.27C276.235 270.653 287.927 273.795 292.874 273.792C301.069 273.789 306.931 267.671 306.934 259.121C306.938 250.605 299.799 245.621 279.936 240.269C272.511 238.269 266.094 236.304 265.676 235.903C265.257 235.502 268.543 232.316 272.977 228.823C303.915 204.455 312.05 175.623 297.232 142.864C294.824 137.54 294.703 136.368 294.504 116.294C294.275 93.2381 292.968 84.9381 288.319 77.0041C284.952 71.2591 280.769 68.8021 274.346 68.7981C266.552 68.7921 258.537 73.3241 247.069 84.2201L237.436 93.3721L224.348 92.9871L211.26 92.6011L225.931 77.9481C242.152 61.7471 245.205 57.0571 247.143 45.3671C250.047 27.8391 241.973 11.8751 226.281 4.12014C219.663 0.849145 217.715 0.362145 210.097 0.0721449C203.509 -0.177855 200.172 0.194145 196.157 1.62514ZM174.436 16.1091L180.436 17.2941L182.272 26.0771L184.107 34.8601L166.099 53.5771C156.194 63.8711 145.125 75.2111 141.501 78.7771L134.913 85.2591L123.742 74.0891L112.572 62.9191L137.504 38.4061C165.305 11.0731 161.269 13.5091 174.436 16.1091ZM100.765 65.8511C105.062 66.7721 106.843 68.1751 118.32 79.6781L131.093 92.4791L132.178 100.215L133.264 107.95L125.779 115.435L118.295 122.919L96.0947 99.9581L73.8947 76.9971L81.1647 70.3511C89.1717 63.0311 88.4217 63.2041 100.765 65.8511ZM278.727 77.3601C284.835 81.6381 287.563 94.7391 287.042 117.294L286.927 122.294L281.505 116.217C278.524 112.874 273.576 108.412 270.51 106.301C267.444 104.189 264.936 102.163 264.936 101.799C264.936 101.435 267.442 97.9111 270.505 93.9691C276.658 86.0501 277.135 82.7591 272.119 82.8341C269.953 82.8661 268.28 84.4111 263.44 90.8461C260.142 95.2311 256.926 98.6201 256.294 98.3781C255.661 98.1351 253.297 97.3831 251.04 96.7071C248.783 96.0311 246.936 95.1921 246.936 94.8441C246.936 93.8551 254.908 86.4291 260.436 82.2681C269.044 75.7901 274.424 74.3461 278.727 77.3601ZM107.744 123.261C107.574 123.398 105.75 123.3 103.689 123.043C100.402 122.633 98.4157 120.958 87.5257 109.409C77.1007 98.3531 75.0067 95.6041 74.4607 92.2681C73.8237 88.3631 74.1087 88.5951 90.9317 105.653C100.347 115.201 107.913 123.124 107.744 123.261ZM46.6487 94.4151C45.3877 95.6751 45.8887 107.192 47.4667 113.252C52.3417 131.968 68.4937 147.262 87.6787 151.327C99.6407 153.862 104.936 153.042 104.936 148.653C104.936 146.218 103.783 145.729 96.7217 145.17C72.3987 143.243 55.2767 126.09 53.0747 101.442C52.4747 94.7311 52.2807 94.2761 49.8987 93.9981C48.5027 93.8351 47.0397 94.0231 46.6487 94.4151ZM23.6027 95.4611C22.2217 96.8421 23.0107 109.772 24.9417 117.384C27.5417 127.637 31.7147 136.05 38.9867 145.701C51.5007 162.309 69.2927 172.402 90.4527 174.898C100.573 176.091 102.936 175.504 102.936 171.794C102.936 168.933 100.878 168.089 92.4357 167.492C61.0217 165.269 33.1487 137.613 30.3897 105.927C29.4977 95.6861 29.1937 94.7941 26.5837 94.7941C25.3107 94.7941 23.9687 95.0941 23.6027 95.4611ZM194.003 150.669C192.288 153.874 191.903 160.136 193.198 163.794C194.728 168.119 198.005 168.961 200.339 165.628C202.215 162.95 202.457 155.032 200.775 151.341C199.382 148.282 195.487 147.895 194.003 150.669ZM245.1 150.097C243.011 152.613 242.593 160.038 244.31 164.146C245.568 167.158 246.356 167.872 248.14 167.616C254.375 166.722 254.541 149.895 248.323 148.996C247.189 148.832 245.738 149.327 245.1 150.097ZM211.913 176.634C210.154 177.222 207.936 182.546 207.936 186.179C207.936 191.054 209.27 194.051 213.547 198.786C217.747 203.435 217.645 203.708 210.211 207.723C205.216 210.421 204.022 213.184 207.031 215.082C209.103 216.389 212.699 215.444 217.154 212.421L220.725 209.997L226.472 212.896C233.379 216.38 237.522 216.674 238.451 213.746C239.297 211.081 237.936 209.55 233.249 207.895C231.152 207.154 228.652 205.862 227.694 205.024C226.063 203.596 226.211 203.22 230.021 199.086C234.467 194.262 236.936 189.316 236.936 185.23C236.936 182.794 234.188 176.893 232.97 176.717C231 176.431 212.734 176.36 211.913 176.634ZM229.418 184.765C230.245 186.104 227.67 190.785 224.452 193.792L221.779 196.29L218.357 192.557C216.359 190.376 214.936 187.777 214.936 186.309C214.936 183.864 215.129 183.794 221.877 183.794C225.695 183.794 229.088 184.231 229.418 184.765Z" fill="#469797"/>
<path fill-rule="evenodd" clip-rule="evenodd" d="M196.157 1.62514C193.253 2.66014 189.058 4.96915 186.834 6.75515L182.792 10.0041L173.114 8.32214C167.791 7.39714 162.601 6.40514 161.58 6.11614C160.171 5.71814 153.249 12.0511 132.868 32.3811L106.011 59.1701L96.3837 57.4641C85.2377 55.4891 87.4267 54.5931 73.5897 66.7941C63.8427 75.3891 64.0977 74.5411 66.5407 90.2251L68.1457 100.528L82.7907 115.147L97.4357 129.766L107.758 130.825C113.435 131.407 118.838 131.643 119.764 131.349C120.689 131.055 125.821 126.13 131.168 120.404L140.89 109.994L139.768 101.305L138.647 92.6171L149.538 81.4561C155.528 75.3171 167.613 62.9941 176.394 54.0721L192.358 37.8491L190.485 29.0721C187.32 14.2401 187.242 15.2821 191.737 12.3071C196.36 9.24814 203.816 6.79414 208.49 6.79414C210.269 6.79414 214.776 7.73614 218.505 8.88814C224.104 10.6171 226.267 11.9661 230.934 16.6381C234.794 20.5021 237.115 23.8551 238.26 27.2221C240.601 34.1061 240.423 44.3761 237.838 51.5061C235.895 56.8691 233.629 59.3851 206.954 85.7941C169.965 122.414 167.184 126.585 168.133 144.03C168.62 152.966 170.394 158.031 176.078 166.714C178.717 170.744 179.962 171.794 182.103 171.794C186.578 171.794 186.531 168.782 181.943 161.683C174.183 149.678 173.085 139.166 178.441 128.168C180.419 124.105 184.615 118.903 192.051 111.294L202.8 100.294L211.26 92.6011L225.931 77.9481C242.152 61.7471 245.205 57.0571 247.143 45.3671C250.047 27.8391 241.973 11.8751 226.281 4.12014C219.663 0.849145 217.715 0.362145 210.097 0.0721449C203.509 -0.177855 200.172 0.194145 196.157 1.62514ZM180.436 17.2941L174.436 16.1091C161.269 13.5091 165.305 11.0731 137.504 38.4061L112.572 62.9191L123.742 74.0891L134.913 85.2591L141.501 78.7771C145.125 75.2111 156.194 63.8711 166.099 53.5771L184.107 34.8601L182.272 26.0771L180.436 17.2941ZM118.32 79.6781C106.843 68.1751 105.062 66.7721 100.765 65.8511C94.2342 64.4507 91.3689 63.7427 88.9325 64.4707C86.764 65.1186 84.9353 66.904 81.1647 70.3511L73.8947 76.9971L96.0947 99.9581L118.295 122.919L125.779 115.435L133.264 107.95L132.178 100.215L131.093 92.4791L118.32 79.6781ZM103.689 123.043C105.75 123.3 107.574 123.398 107.744 123.261C107.913 123.124 100.347 115.201 90.9317 105.653C74.1087 88.5951 73.8237 88.3631 74.4607 92.2681C75.0067 95.6041 77.1007 98.3531 87.5257 109.409C98.4157 120.958 100.402 122.633 103.689 123.043Z" fill="#FF891B"/>
<path fill-rule="evenodd" clip-rule="evenodd" d="M47.4667 113.252C45.8887 107.192 45.3877 95.6751 46.6487 94.4151C47.0397 94.0231 48.5027 93.8351 49.8987 93.9981C52.2807 94.2761 52.4747 94.7311 53.0747 101.442C55.2767 126.09 72.3987 143.243 96.7217 145.17C103.783 145.729 104.936 146.218 104.936 148.653C104.936 153.042 99.6407 153.862 87.6787 151.327C68.4937 147.262 52.3417 131.968 47.4667 113.252ZM24.9417 117.384C23.0107 109.772 22.2217 96.8421 23.6027 95.4611C23.9687 95.0941 25.3107 94.7941 26.5837 94.7941C29.1937 94.7941 29.4977 95.6861 30.3897 105.927C33.1487 137.613 61.0217 165.269 92.4357 167.492C100.878 168.089 102.936 168.933 102.936 171.794C102.936 175.504 100.573 176.091 90.4527 174.898C69.2927 172.402 51.5007 162.309 38.9867 145.701C31.7147 136.05 27.5417 127.637 24.9417 117.384Z" fill="#FF891B"/>
<path d="M33.5647 173.867C33.7807 173.632 35.1897 174.578 36.6957 175.97C44.4847 183.162 60.9447 191.615 73.4357 194.838C77.8357 195.973 86.1667 197.164 91.9497 197.485C101.125 197.994 102.645 197.85 103.892 196.348C106.685 192.982 104.066 191.359 94.6717 190.634C70.1317 188.74 51.0757 180.293 35.3257 164.326C18.2027 146.968 9.11067 127.163 7.36867 103.425C6.76667 95.2181 6.39067 93.7561 4.75267 93.2361C3.70067 92.9021 2.12467 93.2221 1.25067 93.9481C-0.0893297 95.0601 -0.242335 96.8421 0.274665 105.281C0.611665 110.788 1.80566 118.894 2.92766 123.294C6.51166 137.351 15.8087 154.555 25.1747 164.462L28.1697 167.63L33.5647 173.867Z" fill="#FF891B"/>
</svg>
