<svg width="268" height="296" viewBox="0 0 268 296" fill="none" xmlns="http://www.w3.org/2000/svg">
<path fill-rule="evenodd" clip-rule="evenodd" d="M165.098 8.89843C158.785 18.6583 156.713 24.5997 157.73 30.0209C159.986 42.0493 172.49 47.608 187.327 43.1795C191.288 41.9974 194.809 41.7203 200.444 42.1499C230.236 44.4175 250.414 61.1952 258.171 90.1459C260.984 100.645 261.205 123.035 258.614 134.998C252.7 162.31 241.596 183.254 223.74 200.782C192.945 231.01 155.328 245.449 118.434 241.203C95.8704 238.607 74.4749 233.146 60.9923 226.543C49.3905 220.86 50.2526 218.533 49.9476 256.362L49.6855 288.991H28.269H6.85356L6.86951 255.352C6.88645 218.966 7.40674 214.086 12.1312 206.023C15.4592 200.346 20.4996 196.536 28.7146 193.49C34.3081 191.415 37.7967 190.958 52.7026 190.347C67.0902 189.757 71.1259 189.252 75.7457 187.459C92.0978 181.116 102.767 166.702 105.593 147.132C107.428 134.425 105.066 122.302 96.6518 101.245C87.3006 77.8454 86.2461 73.6721 86.1694 59.746C86.1175 50.318 86.5481 45.8318 87.9375 41.3067C90.6087 32.6054 96.2721 21.483 102.328 13.0418C108.149 4.92751 108.745 1.63834 104.483 1.14198C102.341 0.892797 101.118 1.9862 96.6817 8.119C84.8557 24.4692 78.6172 41.8519 78.6172 58.4522C78.6172 71.289 80.7293 80.5285 87.797 98.618C96.7386 121.504 98.5516 128.208 98.5516 138.39C98.5516 158.275 91.2167 171.492 76.0128 179.006C68.5623 182.689 68.5424 182.692 53.4033 183.07C29.9116 183.656 20.5136 186.562 10.7537 196.259C6.93131 200.057 4.43154 203.667 2.78695 207.766C0.41875 213.663 0.384867 214.23 0.0778778 252.574C-0.0925609 273.934 0.0260473 292.442 0.343004 293.705L0.919102 296L28.5551 295.735L56.1911 295.47L56.4542 264.222C56.7014 234.992 56.83 233.021 58.4477 233.721C85.7428 245.522 123.106 251.509 147.922 248.058C175.552 244.216 202.428 230.839 226.714 208.844C244.97 192.308 259.516 165.635 265.626 137.49C268.444 124.509 268.209 99.0296 265.166 87.6541C258.18 61.5431 240.959 43.655 216.663 37.274C206.787 34.6805 192.57 34.248 184.954 36.3102C177.271 38.3893 172.649 37.8172 168.424 34.2629C164.974 31.3595 163.823 27.3337 165.32 23.3987C165.906 21.8558 168.857 16.8024 171.877 12.1687C177.882 2.956 178.287 -0.104917 173.488 0.00272833C171.241 0.0535609 169.899 1.47787 165.098 8.89843ZM127.714 20.0776C117.324 40.9519 116.039 45.0474 116.737 55.0514C117.853 71.0308 124.769 82.0276 142.329 95.7424C159.031 108.786 163.67 114.929 168.166 129.957L170.237 136.875L157.278 157.202C147.978 171.791 144.492 178.071 144.931 179.453C145.518 181.302 146.625 181.366 173.115 181.112C198.593 180.867 200.714 180.713 201.028 179.081C201.215 178.109 196.157 168.393 189.789 157.489C181.361 143.059 177.661 135.673 176.194 130.35C171.39 112.925 164.177 102.859 147.387 90.1429C142.141 86.17 136.35 81.2133 134.519 79.1272C130.412 74.4496 125.917 65.1243 124.312 57.9489C122.496 49.8356 124.225 43.7836 133.992 24.0625C138.864 14.2249 142.398 5.87639 142.221 4.6265C142.006 3.11946 141.109 2.34202 139.35 2.1367C136.958 1.85862 136.204 3.02079 127.714 20.0776ZM182.303 159.465C186.805 167.165 190.275 173.68 190.012 173.941C189.751 174.203 181.883 174.294 172.529 174.143L155.521 173.87L164.557 159.667C169.527 151.855 173.711 145.464 173.856 145.464C174 145.464 177.802 151.764 182.303 159.465Z" fill="black"/>
<path fill-rule="evenodd" clip-rule="evenodd" d="M165.098 8.89843C158.785 18.6583 156.713 24.5997 157.73 30.0209C159.986 42.0493 172.49 47.608 187.327 43.1795C191.288 41.9974 194.809 41.7203 200.444 42.1499C230.236 44.4175 250.414 61.1952 258.171 90.1459C260.984 100.645 261.205 123.035 258.614 134.998C252.7 162.31 241.596 183.254 223.74 200.782C192.945 231.01 155.328 245.449 118.434 241.203C95.8704 238.607 74.4749 233.146 60.9923 226.543C49.3905 220.86 50.2526 218.533 49.9476 256.362L49.6855 288.991H28.269H6.85356L6.86951 255.352C6.88645 218.966 7.40674 214.086 12.1312 206.023C15.4592 200.346 20.4996 196.536 28.7146 193.49C34.3081 191.415 37.7967 190.958 52.7026 190.347C67.0902 189.757 71.1259 189.252 75.7457 187.459C92.0978 181.116 102.767 166.702 105.593 147.132C107.428 134.425 105.066 122.302 96.6518 101.245C87.3006 77.8454 86.2461 73.6721 86.1694 59.746C86.1175 50.318 86.5481 45.8318 87.9375 41.3067C90.6087 32.6054 96.2721 21.483 102.328 13.0418C108.149 4.92751 108.745 1.63834 104.483 1.14198C102.341 0.892797 101.118 1.9862 96.6817 8.119C84.8557 24.4692 78.6172 41.8519 78.6172 58.4522C78.6172 71.289 80.7293 80.5285 87.797 98.618C96.7386 121.504 98.5516 128.208 98.5516 138.39C98.5516 158.275 91.2167 171.492 76.0128 179.006C68.5623 182.689 68.5424 182.692 53.4033 183.07C29.9116 183.656 20.5136 186.562 10.7537 196.259C6.93131 200.057 4.43154 203.667 2.78695 207.766C0.41875 213.663 0.384867 214.23 0.0778778 252.574C-0.0925609 273.934 0.0260473 292.442 0.343004 293.705L0.919102 296L28.5551 295.735L56.1911 295.47L56.4542 264.222C56.7014 234.992 56.83 233.021 58.4477 233.721C85.7428 245.522 123.106 251.509 147.922 248.058C175.552 244.216 202.428 230.839 226.714 208.844C244.97 192.308 259.516 165.635 265.626 137.49C268.444 124.509 268.209 99.0296 265.166 87.6541C258.18 61.5431 240.959 43.655 216.663 37.274C206.787 34.6805 192.57 34.248 184.954 36.3102C177.271 38.3893 172.649 37.8172 168.424 34.2629C164.974 31.3595 163.823 27.3337 165.32 23.3987C165.906 21.8558 168.857 16.8024 171.877 12.1687C177.882 2.956 178.287 -0.104917 173.488 0.00272833C171.241 0.0535609 169.899 1.47787 165.098 8.89843ZM127.714 20.0776C117.324 40.9519 116.039 45.0474 116.737 55.0514C117.853 71.0308 124.769 82.0276 142.329 95.7424C159.031 108.786 163.67 114.929 168.166 129.957L170.237 136.875L157.278 157.202C147.978 171.791 144.492 178.071 144.931 179.453C145.518 181.302 146.625 181.366 173.115 181.112C198.593 180.867 200.714 180.713 201.028 179.081C201.215 178.109 196.157 168.393 189.789 157.489C181.361 143.059 177.661 135.673 176.194 130.35C171.39 112.925 164.177 102.859 147.387 90.1429C142.141 86.17 136.35 81.2133 134.519 79.1272C130.412 74.4496 125.917 65.1243 124.312 57.9489C122.496 49.8356 124.225 43.7836 133.992 24.0625C138.864 14.2249 142.398 5.87639 142.221 4.6265C142.006 3.11946 141.109 2.34202 139.35 2.1367C136.958 1.85862 136.204 3.02079 127.714 20.0776ZM182.303 159.465C186.805 167.165 190.275 173.68 190.012 173.941C189.751 174.203 181.883 174.294 172.529 174.143L155.521 173.87L164.557 159.667C169.527 151.855 173.711 145.464 173.856 145.464C174 145.464 177.802 151.764 182.303 159.465Z" fill="#469797"/>
<path fill-rule="evenodd" clip-rule="evenodd" d="M127.749 19.9669C117.359 40.8411 116.074 44.9366 116.772 54.9407C117.888 70.9201 124.805 81.9168 142.365 95.6317C159.067 108.676 163.706 114.818 168.202 129.846L170.272 136.764L157.314 157.091C148.013 171.68 144.528 177.961 144.966 179.342C145.553 181.191 146.661 181.256 173.15 181.002C198.629 180.756 200.75 180.602 201.064 178.97C201.251 177.998 196.193 168.282 189.825 157.378C181.396 142.948 177.697 135.562 176.229 130.24C171.425 112.814 164.213 102.748 147.422 90.0321C142.177 86.0592 136.386 81.1025 134.555 79.0164C130.447 74.3388 125.953 65.0135 124.347 57.8381C122.531 49.7249 124.261 43.6728 134.027 23.9517C138.899 14.1141 142.434 5.76562 142.256 4.51573C142.042 3.00869 141.145 2.23125 139.386 2.02593C136.994 1.74785 136.239 2.91002 127.749 19.9669ZM182.338 159.354C186.84 167.054 190.31 173.569 190.048 173.83C189.787 174.092 181.919 174.183 172.564 174.032L155.556 173.759L164.593 159.556C169.562 151.744 173.747 145.353 173.891 145.353C174.036 145.353 177.837 151.653 182.338 159.354Z" fill="#FF891B"/>
</svg>
