<svg width="313" height="296" viewBox="0 0 313 296" fill="none" xmlns="http://www.w3.org/2000/svg">
<path fill-rule="evenodd" clip-rule="evenodd" d="M46.1402 2.80839C20.4971 19.1113 0.717243 52.7305 0.15795 80.9634L0 88.9107L30.7412 89.6607C51.0188 90.1564 61.8222 90.071 62.4809 89.4124C63.0292 88.864 64.0713 86.0675 64.7965 83.1986C67.0248 74.3731 70.9537 67.6188 77.6285 61.1378C81.1015 57.7661 83.9436 54.5127 83.9436 53.9087C83.9436 53.3037 81.325 48.4151 78.1242 43.0447C74.9244 37.6733 68.6112 26.712 64.0962 18.6842C56.276 4.78131 53.0057 0 51.3169 0C50.8986 0 48.5691 1.26362 46.1402 2.80839ZM140.203 6.70556C137.838 10.3941 132.177 20.1167 127.622 28.3123C123.067 36.508 118.081 45.2014 116.544 47.6303C115.005 50.0592 113.746 52.8765 113.746 53.8918C113.746 54.9061 116.338 58.1357 119.506 61.0682C125.963 67.0466 129.655 73.1502 132.141 81.9568C133.067 85.2351 134.348 88.4716 134.986 89.1481C135.89 90.1078 142.952 90.217 166.919 89.6448L197.69 88.9107L197.519 82.7247C197.132 68.7374 191.16 49.7721 182.681 35.607C180.008 31.1406 174.022 23.4714 169.377 18.565C161.203 9.9272 148.626 0 145.856 0C145.111 0 142.567 3.017 140.203 6.70556ZM63.0024 31.6582L75.0694 52.8855L70.2534 57.9837C64.6187 63.9472 60.9878 69.9692 58.6433 77.2381L56.9615 82.4535H31.7724H6.58237L7.10987 78.7282C8.14501 71.4276 12.378 56.6684 15.2599 50.3135C19.0696 41.9102 25.7742 31.6602 31.8807 24.9049C38.0786 18.0474 49.3549 8.70431 50.2509 9.68382C50.6274 10.0941 56.3654 19.9835 63.0024 31.6582ZM155.636 15.535C173.316 29.9992 186.988 54.6001 189.784 76.9808L190.468 82.4535H165.209H139.95L138.735 77.7139C137.136 71.4723 132.941 64.2601 127.185 57.8585C124.617 55.0024 122.666 52.3192 122.85 51.896C125.032 46.8614 146.911 9.93416 147.711 9.93416C148.305 9.93416 151.871 12.4545 155.636 15.535ZM272.457 68.0629C266.784 70.1461 260.098 75.0635 251.171 83.7181L243.061 91.58L227.173 91.4449C209.449 91.2949 206.48 91.7181 205.59 94.5205C204.332 98.4882 206.303 99.0465 219.827 98.5588C251.553 97.4133 270.939 105.235 286.36 125.402C290.297 130.55 298.355 148.007 300.592 156.235C304.451 170.426 303.468 182.234 297.387 194.709C293.903 201.858 291.655 204.766 282.734 213.663C276.937 219.444 268.731 226.566 264.497 229.492C256.994 234.676 255.363 237.103 258.04 239.105C258.723 239.617 265.54 241.728 273.189 243.798C294.232 249.492 298.835 251.119 302.452 254.139C305.471 256.659 305.707 257.241 305.072 260.623C303.635 268.288 298.236 267.818 266.732 257.288C244.369 249.813 233.468 247.36 222.606 247.36C214.089 247.36 211.473 248.726 212.461 252.66C213.001 254.814 215.048 256.221 223.784 260.449C238.441 267.541 244.351 271.445 247.392 276.038C250.869 281.294 250.521 286.059 246.562 287.369C242.033 288.869 237.342 287.326 228.844 281.54C217.446 273.778 200.371 265.462 192.455 263.817C188.778 263.053 180.74 262.11 174.593 261.72L163.417 261.013L163.409 251.454C163.388 223.809 155.775 208.346 133.526 190.76C129.404 187.501 128.142 186.963 126.581 187.798C123.028 189.7 124.321 192.918 130.754 198.186C144.494 209.436 151.881 220.239 154.53 232.956C155.212 236.234 155.815 244.057 155.869 250.341L155.966 261.765L143.052 262.512C135.949 262.923 129.548 263.48 128.829 263.749C128.063 264.035 127.652 265.373 127.836 266.974L128.151 269.712H157.953C192.441 269.712 197.256 270.493 204.349 277.24C207.763 280.489 208.212 281.431 207.938 284.771L207.624 288.587L158.45 288.884C106.989 289.194 92.7443 288.505 79.2229 285.047C67.0327 281.928 58.8301 276.987 48.0883 266.289C33.8496 252.108 27.5762 240.084 25.198 222.412C23.2857 208.2 26.0633 196.131 35.6269 177.096C38.1601 172.053 40.2333 167.263 40.2333 166.452C40.2333 164.137 36.4564 162.514 34.6185 164.039C32.2681 165.99 24.6039 181.903 21.1379 192.031C18.2808 200.381 18.0067 202.277 17.954 214.081C17.8914 228.33 19.2683 235.282 24.286 246.047C33.1115 264.978 51.0963 282.793 67.747 289.098C70.918 290.298 77.5361 292.205 82.4535 293.336C90.8498 295.265 95.059 295.414 151.571 295.776C219.856 296.214 214.09 296.97 214.877 287.477C215.406 281.098 215.097 281.085 225.229 287.91C233.633 293.569 237.475 295.045 243.783 295.04C249.638 295.036 254.468 292.134 256.428 287.442C260.108 278.636 252.52 266.99 238.182 259.432C233.941 257.198 231.367 255.358 232.459 255.346C236.161 255.301 250.282 259.171 263.255 263.786C289.368 273.074 300.108 274.94 306.172 271.242C312.445 267.418 314.7 257.315 310.575 251.52C307.644 247.404 298.472 242.914 287.097 240.027C281.633 238.64 275.488 236.924 273.441 236.211L269.719 234.917L276.63 229.646C285.783 222.667 297.126 210.453 301.782 202.565C312.356 184.65 312.741 162.887 302.863 141.406C300.291 135.812 300.201 135.043 300.415 120.203C300.858 89.2862 297.083 74.4724 287.23 68.4652C283.61 66.2568 277.803 66.0989 272.457 68.0629ZM88.1537 71.0461C76.5258 78.1689 76.8377 96.41 88.7001 103.078C95.7702 107.051 106.743 105.439 111.97 99.6595C116.799 94.3189 118.032 84.9331 114.748 78.4977C111.493 72.117 106.672 69.1477 98.9541 68.7722C93.2907 68.496 91.8055 68.8089 88.1537 71.0461ZM286.368 77.2401C287.606 78.7411 289.299 82.2051 290.128 84.937C292.13 91.5254 293.823 109.548 293.005 115.566L292.352 120.365L285.751 113.438C282.12 109.627 277.138 105.251 274.679 103.713C272.221 102.174 270.047 100.809 269.849 100.679C269.652 100.55 271.053 98.519 272.965 96.1676C279.837 87.7107 281.672 84.3817 280.583 82.3472C278.647 78.7302 276.006 80.2521 269.293 88.8481L262.748 97.2306L258.035 95.659C255.442 94.7937 253.199 93.992 253.049 93.8758C251.18 92.4274 265.603 79.5229 273.189 75.8542C279.2 72.9475 283.173 73.3647 286.368 77.2401ZM109.772 116.335C102.694 118.857 93.8579 118.97 84.9241 116.654C77.9146 114.836 77.7527 114.836 76.3927 116.697C72.1856 122.448 47.1028 168.219 47.369 169.658C48.0654 173.432 68.6828 180.743 84.6579 182.88C96.3424 184.442 111.89 183.454 123.986 180.381C136.007 177.328 148.896 171.215 149.285 168.384C149.435 167.291 145.922 160.139 141.478 152.489C137.034 144.84 130.244 133.106 126.388 126.412C118.568 112.838 118.945 113.067 109.772 116.335ZM117.317 125.419C118.216 127.194 123.58 136.512 129.235 146.124C134.891 155.738 139.778 164.278 140.094 165.104C140.839 167.044 133.683 170.179 120.78 173.566C109.079 176.638 89.7591 177.085 78.4639 174.546C72.6127 173.231 57.339 168.29 56.3187 167.382C56.0575 167.149 73.5744 135.75 79.0818 126.577L80.9216 123.513L87.6481 124.928C95.196 126.515 105.151 126.025 111.333 123.76C113.48 122.974 115.337 122.298 115.459 122.26C115.582 122.222 116.417 123.643 117.317 125.419ZM199.787 148.547C196.539 151.795 196.57 162.155 199.836 165.422C203.513 169.098 207.088 164.683 207.112 156.436C207.135 148.782 203.484 144.85 199.787 148.547ZM250.397 149.234C247.113 153.922 249.189 166.894 253.224 166.894C256.206 166.894 258.255 162.848 258.255 156.96C258.255 148.471 253.918 144.206 250.397 149.234ZM217.164 175.831C214.985 177.358 213.088 181.743 213.092 185.245C213.096 189.455 215.472 194.292 219.797 198.896C222.021 201.262 222.162 201.797 220.938 203.279C220.172 204.208 217.663 205.801 215.364 206.82C210.506 208.974 209.749 209.895 210.607 212.6C211.542 215.545 216.754 215.156 222.146 211.737C226.499 208.976 226.688 208.946 228.816 210.67C230.022 211.646 233.251 213.189 235.992 214.1C241.388 215.892 243.884 215.101 243.884 211.598C243.884 209.393 242.547 208.39 236.769 206.256C234.222 205.315 231.913 203.96 231.638 203.244C231.363 202.528 232.731 200.438 234.68 198.601C236.628 196.763 239.047 193.907 240.056 192.253C242.507 188.232 242.496 180.768 240.033 177.727C238.31 175.599 237.403 175.422 228.024 175.378C222.443 175.352 217.556 175.555 217.164 175.831ZM234.943 184.328C234.943 186.604 232.486 190.92 229.72 193.502L227.29 195.772L223.666 191.761C220.261 187.993 219.184 184.971 220.704 183.451C221.068 183.087 224.421 182.788 228.155 182.788C233.623 182.788 234.943 183.088 234.943 184.328Z" fill="#469797"/>
<path fill-rule="evenodd" clip-rule="evenodd" d="M46.1402 2.80839C20.4971 19.1113 0.717243 52.7305 0.15795 80.9634L0 88.9107L30.7412 89.6607C51.0188 90.1564 61.8222 90.071 62.4809 89.4124C63.0292 88.864 64.0713 86.0675 64.7965 83.1986C67.0248 74.3731 70.9537 67.6188 77.6285 61.1378C81.1015 57.7661 83.9436 54.5127 83.9436 53.9087C83.9436 53.3037 81.325 48.4151 78.1242 43.0447C74.9244 37.6733 68.6112 26.712 64.0962 18.6842C56.276 4.78131 53.0057 0 51.3169 0C50.8986 0 48.5691 1.26362 46.1402 2.80839ZM140.203 6.70556C137.838 10.3941 132.177 20.1167 127.622 28.3123C123.067 36.508 118.081 45.2014 116.544 47.6303C115.005 50.0592 113.746 52.8765 113.746 53.8918C113.746 54.9061 116.338 58.1357 119.506 61.0682C125.963 67.0466 129.655 73.1502 132.141 81.9568C133.067 85.2351 134.348 88.4716 134.986 89.1481C135.89 90.1078 142.952 90.217 166.919 89.6448L197.69 88.9107L197.519 82.7247C197.132 68.7374 191.16 49.7721 182.681 35.607C180.008 31.1406 174.022 23.4714 169.377 18.565C161.203 9.9272 148.626 0 145.856 0C145.111 0 142.567 3.017 140.203 6.70556ZM63.0024 31.6582L75.0694 52.8855L70.2534 57.9837C64.6187 63.9472 60.9878 69.9692 58.6433 77.2381L56.9615 82.4535H31.7724H6.58237L7.10987 78.7282C8.14501 71.4276 12.378 56.6684 15.2599 50.3135C19.0696 41.9102 25.7742 31.6602 31.8807 24.9049C38.0786 18.0474 49.3549 8.70431 50.2509 9.68382C50.6274 10.0941 56.3654 19.9835 63.0024 31.6582ZM155.636 15.535C173.316 29.9992 186.988 54.6001 189.784 76.9808L190.468 82.4535H165.209H139.95L138.735 77.7139C137.136 71.4723 132.941 64.2601 127.185 57.8585C124.617 55.0024 122.666 52.3192 122.85 51.896C125.032 46.8614 146.911 9.93416 147.711 9.93416C148.305 9.93416 151.871 12.4545 155.636 15.535ZM88.1537 71.0461C76.5258 78.1689 76.8377 96.41 88.7001 103.078C95.7702 107.051 106.743 105.439 111.97 99.6595C116.799 94.3188 118.032 84.9331 114.748 78.4977C111.493 72.117 106.672 69.1477 98.9541 68.7722C93.2907 68.496 91.8055 68.8089 88.1537 71.0461ZM109.772 116.335C102.694 118.857 93.8579 118.97 84.9241 116.654C77.9146 114.836 77.7527 114.836 76.3927 116.697C72.1856 122.448 47.1028 168.219 47.369 169.657C48.0654 173.432 68.6828 180.743 84.6579 182.88C96.3424 184.442 111.89 183.454 123.986 180.381C136.007 177.328 148.896 171.215 149.285 168.384C149.435 167.291 145.922 160.139 141.478 152.489C137.034 144.84 130.244 133.106 126.388 126.412C118.568 112.838 118.945 113.067 109.772 116.335ZM117.317 125.419C118.216 127.194 123.58 136.512 129.235 146.124C134.891 155.738 139.778 164.278 140.094 165.104C140.839 167.044 133.683 170.179 120.78 173.566C109.079 176.638 89.7591 177.085 78.4639 174.546C72.6127 173.231 57.339 168.29 56.3187 167.382C56.0575 167.149 73.5744 135.75 79.0818 126.577L80.9216 123.513L87.6481 124.928C95.196 126.515 105.151 126.025 111.333 123.76C113.48 122.974 115.337 122.298 115.459 122.26C115.582 122.222 116.417 123.643 117.317 125.419Z" fill="#FF891B"/>
</svg>
