<svg width="297" height="296" viewBox="0 0 297 296" fill="none" xmlns="http://www.w3.org/2000/svg">
<path fill-rule="evenodd" clip-rule="evenodd" d="M26.8538 1.69923C17.4053 6.35395 10.8518 29.0317 12.1706 52.5079C12.7029 61.9752 12.5609 63.1908 10.4327 67.4046C-2.20073 92.4181 2.50663 120.233 22.925 141.234C29.3962 147.889 29.559 148.187 31.0854 156.189C31.9435 160.68 33.5682 171.057 34.6974 179.25C37.8604 202.2 41.7773 214.355 49.893 226.406L53.4454 231.681L44.8152 234.575C21.5833 242.364 6.07687 257.603 1.46286 277.174C-0.344601 284.842 -0.501519 293.119 1.12818 294.749C2.65062 296.271 198.078 296.477 203.532 294.963C208.145 293.68 222.949 285.18 232.72 278.204C245.925 268.774 267.326 247.23 274.398 236.246C276.539 232.921 275.583 230.391 272.191 230.407C270.11 230.417 268.345 231.977 263.665 237.949C252.507 252.182 234.279 268.894 220.408 277.608C212.484 282.584 204.359 287.003 203.128 287.003C201.68 287.003 182.676 274.722 174.294 268.369C159.97 257.512 145.455 242.577 140.041 233.123C138.237 229.974 135.477 228.763 133.617 230.306C132.694 231.073 129.139 230.927 121.003 229.787C112.186 228.552 104.942 228.325 88.3235 228.761C76.5799 229.067 65.6289 229.596 63.9883 229.934C61.1311 230.523 60.8023 230.214 56.2181 222.631C50.8553 213.761 47.3606 205.672 45.1449 197.006C43.9572 192.359 38.6718 157.792 38.6688 154.651C38.6678 154.229 40.5369 154.839 42.822 156.004C64.3766 167.001 92.7836 169.202 116.131 161.685C144.968 152.4 164.724 130.944 169.226 104.022C169.807 100.547 170.082 100.297 173.321 100.297C183.517 100.297 201.583 106.085 213.52 113.177C224.675 119.804 237.688 133.21 243.101 143.651C244.186 145.743 244.088 145.779 238.516 145.297C230.716 144.624 219.62 147.148 209.92 151.8L201.915 155.64L196.513 152.826C178.216 143.296 158.995 143.624 143.37 153.732C136.442 158.214 129.628 165.501 125.816 172.509C118.404 186.132 118.416 213.679 125.832 208.893C127.223 207.996 127.497 206.576 127.263 201.462C126.909 193.695 129.208 182.302 132.399 176.012C135.181 170.528 144.781 161.013 150.438 158.131C156.526 155.031 164.625 152.932 170.509 152.932C176.721 152.932 188.205 156.522 195.914 160.872C198.823 162.514 201.693 163.857 202.292 163.857C202.892 163.857 205.984 162.325 209.163 160.452C218.538 154.933 227.801 152.628 238.696 153.104C246.639 153.452 248.836 153.959 254.518 156.756C262.9 160.882 270.386 168.149 273.833 175.506C276.336 180.847 276.518 182.148 276.518 194.643C276.518 207.985 276.53 208.052 278.867 208.383C280.159 208.566 281.632 208.299 282.14 207.791C283.696 206.236 284.891 190.261 283.951 183.604C282.123 170.669 271.799 156.945 259.164 150.647C254.643 148.396 253.414 147.081 249.664 140.502C234.047 113.099 208.988 97.194 174.569 92.8432L169.946 92.2592L168.788 85.6123C168.152 81.9557 166.261 75.6722 164.586 71.6491L161.54 64.3329L161.369 42.8389C161.229 25.2112 160.879 20.3727 159.423 15.9365C155.748 4.73517 150.611 0.00994265 142.096 1.15215e-05C133.305 -0.0109127 120.872 7.74729 109.179 20.5406L104.055 26.1467L87.0037 26.3324C77.6247 26.4347 69.0422 26.8329 67.9319 27.2183C66.2446 27.8042 65.1452 26.7942 61.2224 21.053C55.6143 12.8449 46.0407 3.462 41.2192 1.44698C36.6518 -0.460793 31.0397 -0.362475 26.8538 1.69923ZM40.807 9.90333C47.2364 14.1618 58.6721 28.1985 56.9143 29.6742C56.4376 30.0744 54.8059 30.9305 53.2885 31.575C50.5634 32.734 50.463 32.6456 45.1559 24.4187C39.508 15.6634 38.2696 14.5968 35.4402 16.0517C33.3567 17.1233 33.2027 19.6845 35.0599 22.3649C35.8057 23.4424 38.0144 26.8319 39.9678 29.8977L43.5192 35.471L36.3757 40.0235C32.448 42.5271 27.1209 46.6167 24.5378 49.1114L19.8434 53.648L19.1949 51.0659C17.593 44.6821 21.3142 22.7562 25.3661 14.711C29.559 6.38473 33.597 5.12745 40.807 9.90333ZM147.906 9.76728C152.352 14.2144 154.847 25.8815 154.856 42.2828C154.859 47.7906 154.578 52.5814 154.229 52.929C153.882 53.2765 151.313 51.4929 148.519 48.9654C145.726 46.438 140.421 42.4049 136.731 40.0046C129.134 35.0639 129.183 36.2298 136.133 25.4773C140.581 18.5941 140.796 15.5402 136.861 15.0844C134.549 14.8163 133.613 15.7945 128.626 23.6987L122.999 32.6168L118.323 31.0695C115.752 30.2185 113.291 29.2035 112.856 28.8132C111.573 27.6632 128.461 12.3772 134.143 9.54581C140.961 6.14837 144.341 6.202 147.906 9.76728ZM108.682 35.7223C113.052 36.8425 120.873 39.8576 126.062 42.4228C138.664 48.6516 150.772 60.3237 156.223 71.4972C167.32 94.2514 163.203 117.618 144.865 135.956C120.551 160.271 80.7421 165.988 47.7956 149.896C38.7294 145.467 36.1175 143.59 28.7228 136.187C16.1927 123.642 10.8964 111.804 10.8726 96.2853C10.8279 67.8991 33.2862 43.0991 65.9785 35.4353C76.2204 33.0349 77.8541 32.8889 89.8132 33.305C96.3727 33.5335 103.911 34.4998 108.682 35.7223ZM56.9898 78.9138C55.1823 83.2388 55.1684 86.5359 56.9391 90.7735C58.5281 94.5771 59.7288 95.5712 61.7816 94.7837C65.2028 93.4708 66.7461 83.3033 64.3289 77.9991C62.5602 74.115 58.7992 74.5838 56.9898 78.9138ZM108.367 77.9504C106.877 81.2218 106.852 88.5321 108.32 91.7547C112.232 100.34 119.325 89.5142 116.03 79.9853C114.95 76.86 114.074 75.9006 112.092 75.6693C110.157 75.4438 109.258 75.994 108.367 77.9504ZM74.2749 102.196C69.8764 107.789 71.0811 114.601 77.6247 121.145C81.6845 125.205 81.7511 125.373 79.8522 126.816C78.7767 127.633 75.997 129.135 73.6751 130.154C70.3501 131.613 69.4543 132.527 69.4543 134.458C69.4543 138.404 72.7386 138.663 79.605 135.26C85.5507 132.313 85.6173 132.304 88.6969 134.086C90.4031 135.072 93.7181 136.442 96.0628 137.128C99.7264 138.2 100.545 138.158 101.876 136.827C104.346 134.356 102.704 131.724 97.5177 129.84C89.3692 126.881 89.3792 126.919 95.0628 120.699C101.748 113.385 102.96 107.372 98.8743 101.787C97.5783 100.015 96.2753 99.8009 86.7901 99.8009C76.7368 99.8009 76.0576 99.931 74.2749 102.196ZM94.2822 108.373C94.2822 110.298 90.3882 115.907 87.9372 117.513C85.7384 118.954 85.4514 118.887 83.1107 116.375C80.0191 113.058 78.5235 110.114 79.1054 108.491C79.6943 106.848 94.2822 106.736 94.2822 108.373ZM180.983 177.015C180.468 177.699 176.333 186.852 171.794 197.358L163.541 216.46L136.608 216.724L109.675 216.988V219.968V222.947H139.325H168.975L176.07 206.335C179.973 197.198 183.392 189.713 183.669 189.7C183.945 189.688 191.043 205.543 199.441 224.933C213.953 258.443 214.838 260.189 217.31 260.179C219.673 260.17 220.78 258.505 229.379 242.054L238.849 223.94L267.304 223.677C294.924 223.421 295.779 223.354 296.401 221.395C297.9 216.669 296.748 216.492 264.527 216.492H234.404L226.294 231.964C221.832 240.473 217.824 247.066 217.386 246.613C216.95 246.159 210.018 230.594 201.983 212.023C193.95 193.451 186.933 177.699 186.39 177.015C185.849 176.333 184.621 175.774 183.662 175.774C182.704 175.774 181.498 176.333 180.983 177.015ZM123.843 237.374C128.452 238.251 130.414 238.269 131.409 237.442C132.473 236.559 133.884 237.826 138.196 243.541C148.216 256.822 163.82 270.898 181.406 282.521C185.354 285.13 188.344 287.652 188.051 288.127C187.755 288.604 147.163 288.989 97.1155 288.989H6.71345L7.36494 284.768C10.1854 266.509 20.6001 253.273 38.7344 244.903C54.3273 237.707 70.0393 235.286 97.7581 235.814C108.682 236.021 120.42 236.723 123.843 237.374Z" fill="#469797"/>
<path fill-rule="evenodd" clip-rule="evenodd" d="M180.944 176.934C180.429 177.617 176.294 186.771 171.754 197.277L163.502 216.378L136.568 216.642L109.636 216.907V219.886V222.865H139.285H168.936L176.031 206.253C179.934 197.117 183.353 189.632 183.63 189.619C183.906 189.606 191.004 205.461 199.402 224.851C213.914 258.361 214.799 260.107 217.271 260.097C219.633 260.088 220.741 258.424 229.34 241.973L238.809 223.858L267.265 223.595C294.884 223.339 295.739 223.272 296.361 221.313C297.861 216.588 296.709 216.41 264.487 216.41H234.365L226.254 231.883C221.792 240.392 217.785 246.984 217.347 246.531C216.91 246.077 209.978 230.512 201.944 211.941C193.911 193.37 186.893 177.617 186.351 176.934C185.81 176.252 184.581 175.692 183.623 175.692C182.665 175.692 181.459 176.252 180.944 176.934Z" fill="#FF891B"/>
<path d="M203.492 294.881C208.105 293.599 222.91 285.099 232.681 278.122C245.885 268.692 267.287 247.148 274.359 236.164C276.5 232.839 275.544 230.31 272.152 230.326C270.071 230.335 268.306 231.896 263.625 237.867C252.468 252.101 234.24 268.813 220.368 277.526C212.445 282.503 204.319 286.921 203.089 286.921C201.641 286.921 182.637 274.64 174.255 268.287C159.93 257.431 145.416 242.495 140.002 233.042C138.198 229.893 135.438 228.681 133.578 230.224C132.636 230.491 132.127 235.498 132.542 236.279C132.958 237.061 133.844 237.744 138.156 243.459C148.177 256.74 163.781 270.817 181.367 282.439C185.314 285.048 188.305 287.571 188.012 288.045L203.492 294.881Z" fill="#FF891B"/>
<path d="M238.477 145.216C230.677 144.542 219.581 147.066 209.881 151.719L201.875 155.558L196.474 152.745C178.177 143.215 158.956 143.542 143.33 153.65C136.402 158.132 129.589 165.42 125.777 172.427C118.365 186.051 118.376 213.598 125.793 208.812C127.183 207.914 127.458 206.495 127.224 201.38C126.87 193.613 129.169 182.22 132.36 175.931C135.141 170.447 144.742 160.932 150.398 158.05C156.486 154.949 164.586 152.851 170.469 152.851C176.682 152.851 188.166 156.44 195.875 160.791C198.784 162.432 201.654 163.775 202.253 163.775C202.853 163.775 205.944 162.244 209.124 160.371C218.499 154.851 227.762 152.546 238.656 153.023C246.599 153.37 248.797 153.878 254.479 156.674C262.86 160.801 270.347 168.067 273.794 175.424C276.296 180.765 276.479 182.066 276.479 194.562C276.479 207.903 276.491 207.971 278.828 208.301C280.12 208.484 281.593 208.218 282.101 207.709C283.656 206.154 284.852 190.179 283.912 183.522C282.083 170.588 271.76 156.863 259.124 150.566L243.062 145.412C242.379 145.544 240.981 145.432 238.477 145.216Z" fill="#FF891B"/>
</svg>
