<svg width="297" height="296" viewBox="0 0 297 296" fill="none" xmlns="http://www.w3.org/2000/svg">
<path fill-rule="evenodd" clip-rule="evenodd" d="M22.347 6.56517C11.9931 15.8777 10.2544 19.2353 13.197 24.2377C13.8634 25.3698 23.6387 35.0684 34.9193 45.7884C53.5444 63.4878 55.8855 65.389 60.3822 66.4673C64.5986 67.4788 67.4025 69.4957 79.2716 80.0511L93.2105 92.4459L99.3201 92.4738C105.373 92.5007 105.436 92.4718 106.053 89.3836C107.53 81.9972 107.188 81.3259 94.1102 65.9725C87.1328 57.7802 80.5265 48.9764 79.2547 46.1744C76.1275 39.2838 37.9457 1.08597 33.2545 0.156314C30.4655 -0.396295 29.3733 0.246088 22.347 6.56517ZM72.8029 49.9509C74.364 53.2007 80.7519 61.8838 87.2396 69.5755C93.6404 77.1634 98.8703 83.7308 98.8613 84.1707C98.8154 86.5886 95.6863 84.435 83.2955 73.4567C72.1416 63.5746 68.6214 61.024 64.3173 59.7053C59.669 58.2819 56.6795 55.867 39.4689 39.6339C28.709 29.4844 19.9031 20.6876 19.9001 20.0851C19.8972 19.4826 22.5904 16.4194 25.8841 13.2783L31.872 7.56565L50.938 25.8446C66.6345 40.8927 70.4977 45.152 72.8029 49.9509ZM148.857 64.6629C141.13 69.6124 137.601 83.9094 136.944 112.92C136.696 123.876 136.353 132.981 136.182 133.152C136.011 133.324 134.072 133.176 131.873 132.825C127.946 132.197 127.866 132.1 127.299 127.306C126.141 117.532 119.136 106.284 109.761 99.146L104.732 95.3176L100.21 99.0233C91.6794 106.014 85.09 117.004 83.9429 126.153L83.2356 131.794L74.2582 133.082C63.3088 134.653 53.3699 137.579 45.366 141.589C22.8417 152.875 5.37473 175.032 0.899007 197.996C-0.917418 207.314 0.151887 227.842 2.91094 236.638C11.0544 262.596 34.5951 285.643 59.2959 291.841C73.8094 295.483 83.5768 295.982 140.22 295.985C202.453 295.988 197.474 296.721 198.243 287.449C198.49 284.465 198.998 282.023 199.372 282.023C199.745 282.023 202.944 284.091 206.48 286.618C215.521 293.08 219.964 294.944 226.375 294.965C242.5 295.019 245.906 279.633 232.617 266.778C230.471 264.702 225.383 261.197 221.311 258.99L213.907 254.978L218.67 255.598C224.1 256.305 233.765 259.148 250.315 264.906C276.046 273.858 286.5 275.025 292.179 269.583C295.264 266.628 297.405 259.686 296.438 255.781C294.686 248.716 286.533 243.894 268.27 239.123C261.412 237.333 255.25 235.579 254.576 235.227C253.811 234.828 255.904 232.642 260.152 229.403C269.127 222.557 281.898 209.033 286.102 201.921C292.834 190.534 294.577 184.126 294.569 170.804C294.563 160.396 294.198 157.727 291.773 150.355C290.239 145.692 287.874 139.679 286.517 136.993C284.197 132.401 284.055 131.209 284.162 117.043C284.355 91.219 281.688 78.1389 274.753 70.9051C265.449 61.1996 253.139 64.8324 234.75 82.7144L226.667 90.5746L210.81 90.8579C202.089 91.0145 194.281 91.4314 193.458 91.7845C192.413 92.2344 190.609 90.6065 187.473 86.3851C181.389 78.1968 169.876 67.4 164.401 64.7496C158.763 62.0205 153.033 61.9886 148.857 64.6629ZM160.513 71.0408C162.089 71.8557 165.452 74.3155 167.984 76.508C172.691 80.5818 183.483 92.4868 183.483 93.605C183.483 94.5955 174.648 97.6947 173.626 97.0622C173.117 96.747 170.618 92.9376 168.071 88.5946C162.901 79.7758 161.446 78.2167 158.843 78.7135C155.493 79.3519 156.279 83.2939 161.47 91.8883C164.251 96.4917 166.526 100.51 166.526 100.815C166.526 101.121 163.944 103.07 160.79 105.146C157.636 107.222 152.646 111.308 149.702 114.227C146.759 117.146 144.11 119.294 143.818 119.002C142.922 118.106 145.487 88.3352 146.917 83.0246C149.293 74.2008 152.468 69.6792 156.352 69.5884C157.064 69.5725 158.937 70.2258 160.513 71.0408ZM266.751 73.72C270.286 75.33 272.944 80.0072 274.634 87.5891C276.458 95.7675 277.581 111.152 276.698 115.858L276.017 119.488L269.401 112.604C265.761 108.819 260.647 104.37 258.034 102.719L253.285 99.7176L258.645 92.78C264.798 84.8161 265.342 83.674 264.11 81.279C262.307 77.7738 259.542 79.4257 252.837 88.012C249.196 92.6753 246.128 96.4757 246.022 96.4578C245.914 96.4398 243.386 95.583 240.405 94.5536L234.984 92.6823L240.904 86.9876C247.426 80.7124 253.579 76.1968 258.545 74.0382C262.564 72.2906 263.533 72.2537 266.751 73.72ZM227.373 98.9126C235.663 100.413 246.704 104.316 252.212 107.693C261.501 113.387 272.833 126.583 279.001 138.884C292.102 165.02 290.684 184.96 274.255 205.636C268.488 212.892 255.501 224.355 245.577 230.947C240.387 234.395 239.122 236.914 241.587 238.888C242.273 239.438 248.893 241.505 256.3 243.483C276.426 248.86 282.815 251.106 286.33 254.041C289.206 256.442 289.444 257.056 288.812 260.429C287.338 268.287 282.574 267.873 250.315 257.084C227.865 249.575 216.918 247.111 206.007 247.111C197.499 247.111 194.832 248.489 195.807 252.378C196.338 254.491 198.85 256.17 209.581 261.582C216.8 265.224 224.199 269.34 226.022 270.731C233.55 276.472 235.731 285.408 230.062 287.284C225.551 288.777 221.043 287.298 212.22 281.428C199.995 273.294 183.175 265.245 175.005 263.618C171.164 262.853 163.196 261.914 157.299 261.532L146.576 260.838L146.568 249.736C146.56 236.956 145.355 228.286 142.56 220.89C138.457 210.03 124.977 195.763 110.614 187.078C92.9472 176.395 70.4648 174.79 51.9913 182.893C47.6463 184.798 46.7406 185.614 47.0039 187.387C47.6074 191.443 49.9455 191.742 57.3798 188.713C65.4754 185.417 79.6985 184.288 88.9492 186.209C97.4917 187.981 109.326 194.267 117.757 201.508C132.344 214.038 136.822 221.725 138.673 237.423C139.327 242.979 139.522 250.377 139.124 254.623L138.426 262.074L105.345 262.088C87.1498 262.095 71.2538 262.372 70.0189 262.702C67.2 263.458 66.8329 268.478 69.5202 269.52C70.4808 269.892 91.6893 269.882 116.651 269.497C149.309 268.993 164.103 269.122 169.403 269.954C183.797 272.214 191.866 277.732 191.266 284.905L190.964 288.507L139.594 288.77C97.8688 288.984 85.9907 288.743 76.332 287.491C51.729 284.3 37.9627 276.907 23.7445 259.254C4.81914 235.756 1.64113 207.05 15.0803 180.991C18.4169 174.52 21.4104 170.692 29.3254 162.771C37.6963 154.394 40.7417 152.063 47.8248 148.61C57.0685 144.106 68.5297 140.856 78.8846 139.804L85.5059 139.13L89.2904 143.319C99.4319 154.543 113.312 154.578 122.879 143.403C125.951 139.813 126.676 139.443 129.524 140.012C131.947 140.497 132.566 141.041 132.082 142.261C130.071 147.331 127.522 159.72 127.338 165.317L127.125 171.801H130.111H133.095L134.721 162.325C138.039 142.988 143.663 131.406 155.554 119.43C172.666 102.192 200.916 94.1227 227.373 98.9126ZM110.685 110.206C122.318 123.403 123.246 136.018 113.024 142.009C107.602 145.186 102.326 144.856 97.3032 141.026C90.4325 135.785 89.1877 128.274 93.6584 119.039C96.178 113.835 103.281 105.468 105.18 105.468C105.911 105.468 108.386 107.601 110.685 110.206ZM183.795 147.135C180.546 149.24 179.612 157.295 181.966 162.927C184.851 169.831 190.437 165.486 190.437 156.34C190.437 149.207 187.303 144.863 183.795 147.135ZM233.913 148.582C230.615 153.29 232.7 166.315 236.751 166.315C239.745 166.315 241.803 162.252 241.803 156.34C241.803 147.816 237.448 143.534 233.913 148.582ZM200.419 175.133C198.664 175.718 196.451 181.029 196.451 184.654C196.451 189.507 197.78 192.505 202.012 197.188C206.296 201.931 205.863 203.085 198.48 206.59C194.903 208.288 193.957 209.257 193.957 211.217C193.957 215.071 199.352 215.169 205.377 211.423C209.928 208.594 210.133 208.56 212.256 210.28C213.46 211.255 216.697 212.8 219.449 213.714C224.867 215.514 227.373 214.72 227.373 211.202C227.373 208.982 226.032 207.982 220.151 205.808C217.551 204.848 215.14 203.605 214.795 203.045C214.449 202.486 215.862 200.389 217.932 198.386C220.004 196.382 222.525 193.397 223.534 191.751C225.957 187.801 225.925 180.551 223.471 177.358C221.724 175.086 220.985 174.931 211.523 174.864C205.975 174.825 200.978 174.946 200.419 175.133ZM218.395 183.821C218.395 186.106 215.928 190.439 213.151 193.033L210.711 195.312L207.072 191.284C203.653 187.5 202.572 184.466 204.098 182.94C204.463 182.574 207.83 182.275 211.579 182.275C217.07 182.275 218.395 182.575 218.395 183.821Z" fill="#469797"/>
<path fill-rule="evenodd" clip-rule="evenodd" d="M127.356 127.306C126.198 117.532 119.193 106.284 109.818 99.146L104.79 95.3176L100.267 99.0233C91.7365 106.014 85.1471 117.004 84 126.153L83.2927 131.794C83.3744 134.761 84.0935 136.486 85.563 139.13L89.3475 143.319C99.489 154.543 113.369 154.578 122.936 143.403C126.635 138.695 127.638 135.199 127.356 127.306ZM113.081 142.009C123.303 136.018 122.375 123.403 110.742 110.206C108.443 107.601 105.968 105.468 105.237 105.468C103.338 105.468 96.2351 113.835 93.7155 119.039C89.2448 128.274 90.4896 135.785 97.3603 141.026C102.383 144.856 107.659 145.186 113.081 142.009Z" fill="#FF891B"/>
<path fill-rule="evenodd" clip-rule="evenodd" d="M13.2541 24.2377C10.3116 19.2353 12.0502 15.8777 22.4041 6.56517C29.4304 0.246088 30.5226 -0.396295 33.3116 0.156314C38.0028 1.08597 76.1846 39.2838 79.3118 46.1744C80.5836 48.9764 87.1899 57.7802 94.1673 65.9725C107.245 81.3259 107.588 81.9972 106.11 89.3836C105.493 92.4718 105.43 92.5007 99.3772 92.4738L93.2676 92.4459L79.3287 80.0511C67.4596 69.4957 64.6557 67.4788 60.4393 66.4673C55.9426 65.389 53.6015 63.4878 34.9764 45.7884C23.6958 35.0684 13.9205 25.3698 13.2541 24.2377ZM87.2967 69.5755C80.809 61.8838 74.4211 53.2007 72.86 49.9509C70.5548 45.152 66.6916 40.8927 50.9951 25.8446L31.9291 7.56565L25.9412 13.2783C22.6475 16.4194 19.9543 19.4826 19.9573 20.0851C19.9602 20.6876 28.7661 29.4844 39.526 39.6339C56.7366 55.867 59.7261 58.2819 64.3744 59.7053C68.6785 61.024 72.1987 63.5746 83.3526 73.4567C95.7434 84.435 98.8725 86.5886 98.9184 84.1707C98.9274 83.7308 93.6975 77.1634 87.2967 69.5755Z" fill="#FF891B"/>
</svg>
