<svg width="396" height="260" viewBox="0 0 396 260" fill="none" xmlns="http://www.w3.org/2000/svg">
<path fill-rule="evenodd" clip-rule="evenodd" d="M45.1996 3.6171C40.8064 9.68223 39.5204 14.9853 39.5723 26.8096C39.5995 32.8246 40.2596 40.7576 41.1105 45.2687C44.4191 62.8224 52.2255 87.2684 60.8169 106.977L64.3435 115.067L60.2517 115.617C53.4552 116.53 46.8232 118.652 40.3379 121.988C31.5364 126.516 20.4065 137.861 15.5298 147.276C11.2701 155.5 7.67674 167.178 6.81443 175.602C6.31516 180.484 5.78864 181.908 3.79242 183.773C-2.06263 189.245 -0.965629 199.791 5.89324 203.973C7.43325 204.912 9.72921 205.682 10.995 205.683C12.9077 205.686 13.8728 206.682 16.7085 211.574C20.9778 218.94 28.8115 227.429 35.339 231.762C41.8366 236.075 55.0049 240.486 64.8612 241.65C69.163 242.158 72.8531 242.744 73.0614 242.952C73.2706 243.161 72.8452 244.256 72.1174 245.385C70.7874 247.447 67.6608 258.354 68.2339 258.928C69.0224 259.716 242.785 260.363 293.964 259.768L351.572 259.099L355.754 243.161C360.536 224.941 363.684 210.314 365.14 199.546C366.463 189.767 366.301 167.374 364.85 159.319C364.219 155.815 363.777 152.947 363.869 152.947C363.961 152.947 365.456 153.54 367.192 154.265C371.548 156.086 379.71 155.917 384.028 153.917C391.226 150.585 395.016 144.181 395.016 135.351C395.016 127.342 391.31 121.34 384.028 117.556C379.223 115.06 371.239 115.073 366.365 117.585C362.485 119.586 357.729 124.464 356.798 127.398C355.966 130.018 355.113 129.652 353.355 125.917C352.501 124.105 348.798 118.072 345.126 112.512C337.022 100.24 321.378 84.213 308.873 75.3728C292.355 63.6944 270.241 54.3963 248.662 50.0575C235.231 47.3563 209.706 46.7138 195.341 48.7144C182.861 50.4531 165.991 54.9922 155.927 59.3204C151.818 61.0881 147.915 62.7635 147.255 63.0439C146.291 63.4535 146.247 63.1916 147.035 61.721C148.557 58.8757 148.2 52.1495 146.335 48.5298C145.41 46.7366 143.247 43.9177 141.529 42.2669L138.404 39.266L142.817 37.7717C147.518 36.1798 151.78 32.7139 153.808 28.8313C155.276 26.0194 155.441 19.0779 154.098 16.5683C152.911 14.3515 146.718 11.4719 143.079 11.4464C139.294 11.42 128.803 16.8479 123.602 21.5242C119.643 25.0841 119.134 25.3048 117.505 24.1638C116.334 23.3437 115.535 21.4837 115.161 18.7114C114.165 11.304 107.723 0 104.499 0C102.394 0 96.0342 6.51693 92.6887 12.103C90.347 16.0128 88.2453 18.3914 86.3291 19.2994L83.4671 20.6566L81.0727 35.0353C79.755 42.9437 78.52 49.5714 78.3275 49.7639C78.135 49.9564 77.4705 47.8371 76.8499 45.0542C75.1807 37.5625 70.9193 25.8796 67.3101 18.8986C63.6684 11.856 54.9909 2.57284 50.6442 1.07063C47.863 0.109875 47.6784 0.196897 45.1996 3.6171ZM57.0636 14.9765C64.0112 24.4416 69.803 40.1626 73.4209 59.3767L75.2879 69.2954L72.9674 82.6729C70.602 96.3072 70.7215 98.4484 73.8473 98.4484C74.7913 98.4484 75.0585 100.293 75.0585 106.799C75.0585 114.581 74.9381 115.149 73.2891 115.149C71.3781 115.149 70.0798 112.654 63.4513 96.2509C55.7055 77.079 49.2457 55.2551 46.9005 40.334C45.5143 31.5105 46.1472 15.5548 48.0573 11.1686C49.4989 7.86005 49.5279 7.84511 51.735 9.29107C52.9586 10.0927 55.3565 12.6506 57.0636 14.9765ZM107.111 14.3023C108.06 17.0263 108.62 19.4717 108.355 19.7363C107.915 20.1775 97.9126 18.5523 97.1347 17.9132C96.0878 17.0544 103.064 8.60984 104.454 9.05286C104.966 9.21547 106.161 11.5782 107.111 14.3023ZM147.796 19.5728C150.841 21.9549 147.608 28.5087 142.208 30.897C138.047 32.7376 129.054 33.2589 125.32 31.8762C123.34 31.1422 123.412 30.9981 127.742 26.9476C135.352 19.8294 144.04 16.6343 147.796 19.5728ZM106.263 26.7613C113.034 28.8568 113.01 28.8234 111.859 34.5554C111.134 38.169 110.462 39.5499 109.438 39.5358C107.355 39.5068 88.2207 36.309 87.8366 35.9258C87.4841 35.5733 88.8325 27.6025 89.5858 25.5852C90.1589 24.0504 99.6689 24.7211 106.263 26.7613ZM134.6 45.1483C139.65 48.5755 142.279 53.3239 141.48 57.5809C140.369 63.5045 135.506 63.4342 130.525 57.4218C127.397 53.6465 123.908 46.7015 123.001 42.4436L122.399 39.6193L126.467 41.0055C128.705 41.7676 132.364 43.632 134.6 45.1483ZM100.11 44.7079L108.9 46.2356L108.643 50.1102C108.503 52.2418 108.288 54.0842 108.168 54.2055C108.047 54.3259 102.921 53.5885 96.7769 52.5653C85.6154 50.7071 85.6066 50.7044 85.6066 48.2793C85.6066 42.4427 86.214 42.2933 100.11 44.7079ZM127.16 63.5739C129.335 65.7504 132.304 67.7606 133.837 68.0973L136.598 68.7038L130.22 72.88C126.713 75.1768 120.355 79.9366 116.093 83.4579L108.343 89.8597L108.917 86.4632C109.741 81.5803 114.499 55.7992 115.612 50.1832L116.555 45.4287L119.898 52.5433C121.93 56.8645 124.779 61.1945 127.16 63.5739ZM237.971 54.9377C283.558 60.9132 322.528 86.1775 344.966 124.301C350.515 133.729 355.78 146.901 357.822 156.463C360.239 167.789 360.01 193.719 357.368 207.884C355.644 217.122 347.025 252.213 346.301 252.936C346.154 253.084 340.606 253.094 333.971 252.959L321.908 252.714L325.895 249.906C334.245 244.025 339.639 232.93 339.639 221.631C339.639 213.594 336.95 203.47 332.186 193.572C325.8 180.303 320.94 173.646 309.31 162.247C300.378 153.493 298.369 151.05 297.863 148.332C296.798 142.597 298.041 139.138 302.994 134.049C306.808 130.131 308.226 129.265 311.649 128.762C317.213 127.943 320.369 128.787 325.019 132.338C328.018 134.628 329.407 136.551 330.849 140.409C333.268 146.886 334.811 148.552 338.392 148.552C340.482 148.552 341.788 147.891 343.169 146.137C345.513 143.156 345.075 139.142 341.642 132.128C338.724 126.171 334.032 121.877 326.679 118.436C321.823 116.164 319.901 115.76 313.755 115.722C307.625 115.683 305.798 116.036 301.647 118.068C289.958 123.787 283.055 137.053 285.13 149.808C286.453 157.932 288.365 160.697 301.893 174.043C313.255 185.251 315.188 187.584 317.916 193.381C325.858 210.261 324.314 224.251 313.216 235.986C309.196 240.236 301.394 245.248 298.812 245.239C298.237 245.236 297.874 242.325 297.854 237.547C297.826 230.854 297.499 229.234 295.321 225.025C291.902 218.413 281.828 208.77 273.323 203.965C256.458 194.436 233.45 188.107 215.679 188.107C210.948 188.107 210.742 188.007 209.743 185.25C207.967 180.353 203.633 176.029 197.447 172.984C192.041 170.322 190.884 170.087 183.194 170.088C173.707 170.089 168.388 171.901 163.071 176.944C158.405 181.371 156.852 185.656 156.795 194.26L156.746 201.731L149.964 206.3C146.233 208.813 139.8 213.791 135.668 217.363L128.154 223.857L118.938 224.421C107.25 225.136 94.7851 228.287 85.2849 232.929L77.8564 236.558L69.0567 235.59C58.1482 234.389 48.9583 231.893 42.2181 228.301C35.8523 224.908 27.7338 217.041 23.2017 209.874L19.7903 204.476L22.2884 201.631C27.9993 195.127 26.2976 185.39 18.768 181.497C17.3845 180.781 15.4498 180.196 14.4679 180.196C12.8479 180.196 12.7336 179.809 13.2268 176.02C16.7779 148.777 32.9288 128.62 55.7204 122.987C61.23 121.624 77.3343 121.608 84.7276 122.956C88.9011 123.717 89.7141 123.634 90.6775 122.35C91.2902 121.532 94.1654 117.588 97.0653 113.585C128.331 70.4354 182.909 47.7194 237.971 54.9377ZM95.5991 58.9486C101.444 59.9454 106.36 60.8939 106.522 61.0565C106.683 61.2182 106.546 62.7872 106.217 64.5435C105.767 66.9405 105.26 67.6314 104.183 67.3159C103.393 67.0847 98.2976 66.2259 92.8583 65.4093C82.3956 63.8368 82.2787 63.7585 83.5233 59.113C83.8152 58.0257 84.2599 57.1352 84.5131 57.1352C84.7654 57.1352 89.7546 57.951 95.5991 58.9486ZM92.9524 72.0414C98.6844 72.9705 103.578 73.9339 103.826 74.1826C104.074 74.4305 104.014 76.0365 103.692 77.7505C103.264 80.0324 102.656 80.8683 101.424 80.8683C98.4189 80.8683 81.6695 78.0678 81.0094 77.4552C80.4864 76.97 81.7469 70.2825 82.3516 70.3361C82.4501 70.3449 87.2204 71.1123 92.9524 72.0414ZM91.0863 86.0237C96.2759 86.8798 100.765 87.823 101.063 88.1201C101.36 88.4181 101.325 90.3097 100.984 92.3262L100.365 95.9907L95.4031 95.4299C92.6738 95.1223 87.579 94.4349 84.0815 93.9031C77.0908 92.8413 77.583 93.555 79.0307 86.5819C79.5652 84.009 79.0255 84.0336 91.0863 86.0237ZM93.754 101.858L97.0661 102.404L92.5771 108.557C90.1071 111.941 87.8067 115.21 87.4639 115.822C87.0508 116.559 85.8896 116.744 84.0261 116.371L81.2115 115.809V107.978V100.146L85.8263 100.729C88.3649 101.049 91.9319 101.557 93.754 101.858ZM381.496 123.608C388.23 126.804 391.012 136.391 386.942 142.378C382.219 149.326 375.005 151.284 368.298 147.439C359.248 142.25 359.567 128.213 368.837 123.643C372.548 121.815 377.685 121.8 381.496 123.608ZM48.0362 157.983C43.3907 158.826 38.9165 166.492 40.4003 171.068C42.3262 177.009 45.3438 179.317 51.1892 179.317C53.7805 179.317 55.3275 178.689 57.3176 176.83C65.2541 169.417 58.6739 156.054 48.0362 157.983ZM53.6038 166.571C54.9372 168.607 54.9372 168.93 53.6038 170.966C51.1461 174.717 46.9304 173.328 46.9304 168.769C46.9304 164.209 51.1461 162.82 53.6038 166.571ZM194.128 178.513C198.559 180.596 203.082 185.242 203.917 188.568C204.66 191.528 203.734 195.926 201.727 198.967L200.072 201.476L200.522 197.481C201.116 192.213 200.421 189.775 197.477 186.8C192.165 181.431 182.482 179.505 175.488 182.427C168.818 185.214 166.265 189.376 166.311 197.385C166.362 206.183 170.081 213.3 176.004 215.933L178.341 216.972L175.398 217.043C169.635 217.182 164.204 207.756 163.209 195.886C162.799 190.999 163.037 189.379 164.659 186.029C169.051 176.955 183.159 173.357 194.128 178.513ZM16.4342 188.13C17.6798 189.109 18.9403 190.672 19.2348 191.602C19.8799 193.634 17.6736 198.225 15.6862 198.988C8.69374 201.672 3.01274 192.732 8.81241 188.171C11.7219 185.882 13.5643 185.872 16.4342 188.13ZM189.038 188.93C196.328 192.24 196.438 196.345 189.42 203.169C181.253 211.111 176.024 211.106 173.641 203.154C171.409 195.701 172.947 190.792 178.234 188.491C181.985 186.859 184.72 186.969 189.038 188.93ZM235.202 196.949C272.149 204.399 299.052 227.433 290.465 244.265C287.626 249.828 288.221 251.771 292.867 252.106C307.064 253.131 322.878 240.307 328.292 223.381L329.875 218.432L329.922 222.33C330.058 233.584 322.323 245.577 312.506 249.334C302.614 253.119 297.916 253.289 211.744 252.994L129.996 252.714L125.601 249.714C123.184 248.065 121.044 246.583 120.844 246.423C120.114 245.831 125.573 236.772 129.05 232.805C133.441 227.796 144.706 218.058 152.748 212.32C157.523 208.912 158.888 208.3 159.513 209.286C159.943 209.966 160.301 210.883 160.309 211.323C160.342 213.342 165.898 220.516 168.522 221.929C172.945 224.311 180.576 223.473 188.128 219.776C195.978 215.932 205.648 206.416 209.036 199.2L211.464 194.031L219.075 194.631C223.261 194.961 230.519 196.004 235.202 196.949ZM137.292 229.895C136.604 231.406 136.544 232.898 137.107 234.509C137.775 236.419 138.568 236.944 141.11 237.158C144.784 237.466 147.137 235.647 147.137 232.496C147.137 229.554 144.868 227.662 141.342 227.662C138.947 227.662 138.095 228.131 137.292 229.895ZM118.857 235.353C117.315 238.134 115.531 241.188 114.894 242.142C113.148 244.753 113.489 248.822 115.646 251.119L117.557 253.153H97.1866C73.9334 253.153 74.5935 253.428 79.6733 245.851C81.7117 242.81 83.9145 240.889 87.3646 239.144C95.2985 235.13 105.789 232.184 116.811 230.876C118.262 230.703 119.946 230.503 120.555 230.431C121.208 230.353 120.513 232.369 118.857 235.353Z" fill="#469797"/>
<path fill-rule="evenodd" clip-rule="evenodd" d="M321.776 252.714L325.763 249.906C334.113 244.025 339.507 232.93 339.507 221.631C339.507 213.594 336.818 203.47 332.055 193.572C325.669 180.303 320.808 173.646 309.179 162.247C300.246 153.493 298.237 151.05 297.731 148.332C296.666 142.597 297.909 139.138 302.862 134.049C306.676 130.131 308.094 129.265 311.518 128.762C317.081 127.943 320.237 128.787 324.887 132.338C327.886 134.628 329.275 136.551 330.717 140.409C333.136 146.886 334.679 148.552 338.26 148.552C340.351 148.552 341.656 147.891 343.037 146.137C345.381 143.156 344.943 139.142 341.51 132.128C338.593 126.171 333.901 121.877 326.548 118.436C321.691 116.164 319.77 115.76 313.624 115.722C307.493 115.683 305.666 116.036 301.515 118.068C289.826 123.787 282.923 137.053 284.998 149.808C286.321 157.932 288.233 160.697 301.762 174.043C313.124 185.251 315.056 187.584 317.784 193.381C325.726 210.261 324.182 224.251 313.084 235.986C309.064 240.236 301.262 245.248 298.681 245.239C298.105 245.236 297.742 242.325 297.722 237.547C297.694 230.854 297.367 229.234 295.189 225.025C291.77 218.413 281.696 208.77 273.191 203.965C256.326 194.436 233.318 188.107 215.547 188.107C210.816 188.107 210.611 188.007 209.611 185.25C207.836 180.353 203.501 176.029 197.315 172.984C191.909 170.322 190.752 170.087 183.063 170.088C173.576 170.089 168.256 171.901 162.94 176.944C158.273 181.371 156.72 185.656 156.664 194.26L156.614 201.731L149.832 206.3C146.101 208.813 139.668 213.791 135.536 217.363L128.022 223.857L118.725 235.353C117.183 238.134 115.4 241.188 114.762 242.142C113.016 244.753 113.357 248.822 115.514 251.119L117.426 253.153L126.005 259.695C181.618 260.026 261.774 260.141 293.832 259.768L313.084 259.545L321.776 252.714ZM203.785 188.568C202.95 185.242 198.427 180.596 193.997 178.513C183.027 173.357 168.919 176.955 164.527 186.029C162.905 189.379 162.667 190.999 163.077 195.886C164.072 207.756 169.503 217.182 175.266 217.043L178.21 216.972L175.872 215.933C169.949 213.3 166.23 206.183 166.179 197.385C166.133 189.376 168.687 185.214 175.356 182.427C182.35 179.505 192.033 181.431 197.346 186.8C200.289 189.775 200.985 192.213 200.39 197.481L199.94 201.476L201.596 198.967C203.602 195.926 204.528 191.528 203.785 188.568ZM189.288 203.169C196.307 196.345 196.196 192.24 188.906 188.93C184.589 186.969 181.853 186.859 178.102 188.491C172.815 190.792 171.277 195.701 173.51 203.154C175.893 211.106 181.121 211.111 189.288 203.169ZM290.333 244.265C298.92 227.433 272.017 204.399 235.071 196.949C230.387 196.004 223.129 194.961 218.944 194.631L211.332 194.031L208.904 199.2C205.516 206.416 195.846 215.932 187.996 219.776C180.444 223.473 172.813 224.311 168.39 221.929C165.766 220.516 160.21 213.342 160.177 211.323C160.169 210.883 159.811 209.966 159.381 209.286C158.756 208.3 157.391 208.912 152.617 212.32C144.575 218.058 133.309 227.796 128.919 232.805C125.441 236.772 119.982 245.831 120.712 246.423C120.912 246.583 123.052 248.065 125.469 249.714L129.864 252.714L211.612 252.994C297.784 253.289 302.482 253.119 312.374 249.334C322.191 245.577 329.927 233.584 329.79 222.33L329.743 218.432L328.161 223.381C322.746 240.307 306.932 253.131 292.735 252.106C288.089 251.771 287.494 249.828 290.333 244.265Z" fill="#FF891B"/>
<path fill-rule="evenodd" clip-rule="evenodd" d="M146.903 61.721C148.425 58.8757 148.069 52.1495 146.203 48.5298C145.279 46.7366 143.115 43.9177 141.397 42.2669L138.272 39.266L142.686 37.7717C147.386 36.1798 151.648 32.7139 153.676 28.8313C155.145 26.0194 155.309 19.0779 153.966 16.5683C152.779 14.3515 146.586 11.4719 142.948 11.4464C139.163 11.42 128.672 16.8479 123.471 21.5242C119.512 25.0841 119.002 25.3048 117.373 24.1638C116.202 23.3437 115.403 21.4837 115.029 18.7114C114.033 11.304 107.591 0 104.367 0C102.262 0 95.9024 6.51693 92.5569 12.103C90.2152 16.0128 88.1135 18.3914 86.1973 19.2994L83.3353 20.6566L80.9409 35.0353C79.6232 42.9437 78.3882 49.5714 78.1957 49.7639L75.1561 69.2954L72.8356 82.6729C70.4702 96.3072 70.5897 98.4484 73.7154 98.4484L81.0797 100.146L85.6945 100.729C88.2331 101.049 91.8001 101.557 93.6222 101.858L96.9343 102.404L108.211 89.8597L108.785 86.4632C109.61 81.5803 114.368 55.7992 115.48 50.1832L116.423 45.4287L119.766 52.5433C121.798 56.8645 124.648 61.1945 127.028 63.5739C129.203 65.7504 132.172 67.7606 133.705 68.0973L136.466 68.7038C142.692 68.0553 144.94 66.5483 146.903 61.721ZM108.223 19.7363C108.488 19.4717 107.928 17.0263 106.979 14.3023C106.029 11.5782 104.834 9.21547 104.322 9.05286C102.933 8.60984 95.956 17.0544 97.0029 17.9132C97.7808 18.5523 107.783 20.1775 108.223 19.7363ZM142.076 30.897C147.476 28.5087 150.709 21.9549 147.664 19.5728C143.908 16.6343 135.22 19.8294 127.61 26.9476C123.28 30.9981 123.209 31.1422 125.188 31.8762C128.922 33.2589 137.915 32.7376 142.076 30.897ZM109.306 39.5358C110.33 39.5499 111.002 38.169 111.727 34.5554L111.742 34.4832C112.27 31.8524 112.552 30.4497 112.025 29.4923C111.423 28.3989 109.766 27.8862 106.218 26.7879L106.131 26.7613C99.5371 24.7211 90.0271 24.0504 89.454 25.5852C88.7007 27.6025 87.3523 35.5733 87.7048 35.9258C88.0889 36.309 107.223 39.5068 109.306 39.5358ZM141.349 57.5809C142.147 53.3239 139.519 48.5755 134.468 45.1483C132.232 43.632 128.573 41.7676 126.335 41.0055L122.267 39.6193L122.869 42.4436C123.776 46.7015 127.265 53.6465 130.394 57.4218C135.374 63.4342 140.237 63.5045 141.349 57.5809ZM108.768 46.2356L99.9783 44.7079C86.0821 42.2933 85.4747 42.4427 85.4747 48.2793C85.4747 50.7044 85.4835 50.7071 96.6451 52.5653C102.789 53.5885 107.915 54.3259 108.036 54.2055C108.157 54.0842 108.371 52.2418 108.512 50.1102L108.768 46.2356ZM106.39 61.0565C106.228 60.8939 101.313 59.9454 95.4673 58.9486C89.6228 57.951 84.6335 57.1352 84.3813 57.1352C84.1281 57.1352 83.6833 58.0257 83.3915 59.113C82.1468 63.7585 82.2637 63.8368 92.7265 65.4093C98.1658 66.2259 103.261 67.0847 104.051 67.3159C105.128 67.6314 105.636 66.9405 106.086 64.5435C106.414 62.7872 106.551 61.2182 106.39 61.0565ZM103.694 74.1826C103.446 73.9339 98.5526 72.9705 92.8206 72.0414C87.0886 71.1123 82.3182 70.3449 82.2198 70.3361C81.615 70.2825 80.3545 76.97 80.8776 77.4552C81.5377 78.0678 98.2871 80.8683 101.292 80.8683C102.524 80.8683 103.132 80.0324 103.56 77.7505C103.882 76.0365 103.942 74.4305 103.694 74.1826ZM100.931 88.1201C100.633 87.823 96.1441 86.8798 90.9545 86.0237C90.4595 85.942 89.9857 85.8637 89.5323 85.7887C82.0455 84.5503 80.0858 84.2262 79.3996 85.0128C79.1563 85.2918 79.0731 85.7103 78.9604 86.2773C78.9411 86.3744 78.9209 86.476 78.8989 86.5819C78.78 87.1548 78.6675 87.6759 78.565 88.1503C78.0429 90.5684 77.7825 91.7746 78.2632 92.464C78.7417 93.1502 79.9544 93.3244 82.374 93.672C82.8511 93.7405 83.3751 93.8158 83.9497 93.9031C87.4472 94.4349 92.5419 95.1223 95.2712 95.4299L100.233 95.9907L100.852 92.3262C101.193 90.3097 101.228 88.4181 100.931 88.1201Z" fill="#FF891B"/>
<path d="M137.16 229.895C136.472 231.406 136.412 232.898 136.975 234.509C137.643 236.419 138.436 236.944 140.979 237.158C144.652 237.466 147.005 235.647 147.005 232.496C147.005 229.554 144.736 227.662 141.21 227.662C138.815 227.662 137.964 228.131 137.16 229.895Z" fill="#FF891B"/>
</svg>
