<svg width="302" height="296" viewBox="0 0 302 296" fill="none" xmlns="http://www.w3.org/2000/svg">
<path fill-rule="evenodd" clip-rule="evenodd" d="M187.09 2.01482C185.193 3.90653 185.028 4.70771 184.986 12.2595L184.941 20.4511L179.868 22.9274C168.018 28.7121 159.874 44.9071 159.874 62.6844C159.874 70.5665 161.963 80.3496 164.853 85.9997C166.363 88.9501 166.582 90.9096 166.582 101.425C166.582 113.271 166.546 113.506 164.41 115.638L162.236 117.805L105.078 118.056C41.2136 118.336 43.2405 118.162 30.9282 124.412C17.009 131.477 6.80151 143.662 2.07179 158.859C-0.698961 167.76 -0.688898 182.61 2.09191 191.057C5.17043 200.403 9.40622 207.156 16.8178 214.533C24.3661 222.045 29.6015 225.342 39.5339 228.838L46.2427 231.199L147.158 231.617L248.073 232.036L250.096 234.382C252.572 237.252 252.753 241.523 250.517 244.278L248.914 246.253L147.579 246.711C56.275 247.124 45.7287 247.309 41.0467 248.573C24.4533 253.053 11.387 263.753 3.6643 279.186C-0.506082 287.518 -0.954735 291.947 2.11875 294.43C4.02238 295.967 7.63592 296.012 127.471 295.999C263.813 295.982 256.775 296.25 268.684 290.61C280.521 285.005 289.438 276.437 295.267 265.068C299.219 257.359 300.756 251.606 301.297 242.489C301.917 232.018 300.27 224.322 295.227 214.135C286.864 197.244 270.837 185.918 251.307 183.099C248.126 182.64 205.494 182.302 149.563 182.292L53.2946 182.276L51.2366 180.223C48.1279 177.123 48.3627 172.237 51.7582 169.387L54.3378 167.222H109.238C170.91 167.222 171.789 167.153 183.774 161.36C199.695 153.662 211.281 138.897 214.747 121.888C215.591 117.742 216.06 110.988 216.06 102.963C216.06 91.495 216.227 90.121 218.117 85.993C221.543 78.5131 222.829 72.1446 222.828 62.6844C222.823 44.0173 215.486 29.4363 202.67 22.6238L197.56 19.9083L197.737 12.0304C197.898 4.78214 197.754 3.98515 195.938 2.05663C193.369 -0.669713 189.799 -0.687275 187.09 2.01482ZM197.73 34.7435C198.948 35.3649 201.159 37.3996 202.642 39.2671C205.765 43.2002 209.092 51.2019 207.784 51.6368C207.308 51.7949 205.957 52.6789 204.781 53.6013C200.588 56.8913 202.527 64.2926 207.937 65.6466C209.842 66.1241 209.89 66.3231 209.179 70.8425C208.773 73.4267 207.136 78.2831 205.541 81.6342L202.642 87.7258L202.632 102.176C202.626 112.02 202.241 118.057 201.424 121.116C197.716 135.007 187.293 146.412 173.583 151.576C168.738 153.401 167.967 153.428 110.396 153.841L52.113 154.259L47.4419 156.548C36.733 161.792 32.675 175.033 38.6576 185.214C42.7013 192.095 49.1997 195.557 58.1928 195.62C62.3372 195.649 63.4341 195.926 63.4341 196.944C63.4341 201.485 71.5107 210.392 78.3814 213.428C86.6878 217.098 97.6316 215.3 105.574 208.96L108.719 206.45L111.864 208.96C122.571 217.507 136.582 217.415 146.214 208.737L149.542 205.739L151.953 208.249C155.715 212.165 162.498 214.979 168.533 215.13C175.493 215.302 180.554 213.731 185.801 209.772L190.171 206.473L193.262 208.895C200.222 214.349 207.126 216.225 214.993 214.802C223.482 213.266 231.091 207.349 234.507 199.629L236.265 195.656H242.381C255.181 195.656 267.181 200.48 275.601 209.01C283.836 217.353 288.152 227.71 288.17 239.178C288.201 258.834 275.464 275.705 256.37 281.298C252.296 282.491 239.402 282.632 134.103 282.632H16.3918L18.9135 278.977C26.9792 267.286 41.6279 260.052 57.2368 260.052H62.4722L64.5151 264.442C67.134 270.07 71.8604 274.759 77.6904 277.515C81.397 279.266 83.538 279.691 88.5922 279.682C95.7481 279.669 100.526 277.924 105.617 273.467L108.719 270.751L111.821 273.467C116.815 277.839 121.67 279.605 128.845 279.658C133.984 279.696 135.978 279.299 139.747 277.494C142.284 276.279 145.381 274.302 146.629 273.104C149.479 270.367 149.814 270.381 152.687 273.372C156.61 277.455 162.7 279.667 169.937 279.637C177.089 279.608 181.949 277.856 186.9 273.52L189.941 270.858L194.349 274.184C208.111 284.571 227.173 279.953 234.26 264.514L236.31 260.052H242.807C248.232 260.052 250.053 259.673 253.851 257.752C269.638 249.767 269.116 227.909 252.959 220.407C249.21 218.666 248.516 218.652 148.133 218.237L47.0813 217.818L42.0497 215.812C23.9526 208.596 13.138 193.235 13.138 174.749C13.138 162.841 17.1558 153.176 25.6944 144.546C34.327 135.82 45.218 131.301 57.683 131.274C62.9762 131.262 63.279 131.368 63.7956 133.421C65.3436 139.571 72.7762 147.058 79.5647 149.307C88.4539 152.252 98.1691 150.475 105.593 144.549L108.757 142.024L112.026 144.604C119.569 150.563 129.075 152.221 138.255 149.181C143.9 147.311 151.696 139.828 153.193 134.841L154.215 131.443L159.434 131.111C168.768 130.519 176.878 124.457 179.123 116.396C179.6 114.682 179.993 107.339 179.995 100.075C179.999 88.2602 179.813 86.504 178.22 83.3896C175.719 78.503 173.291 71.1954 173.291 68.5586C173.291 66.8492 173.924 66.0538 176.017 65.1347C181.575 62.6953 181.993 54.875 176.691 52.535C174.376 51.513 174.345 51.4135 175.411 48.4003C177.234 43.247 179.016 40.325 182.24 37.2031C186.982 32.6101 191.983 31.8165 197.73 34.7435ZM99.9402 133.194C96.9213 137.789 88.7289 140.062 82.9862 137.898C80.5232 136.971 76.0132 133.118 76.0132 131.941C76.0132 131.567 81.6822 131.261 88.6115 131.261H101.21L99.9402 133.194ZM141.424 131.941C141.424 133.118 136.914 136.971 134.451 137.898C128.601 140.103 120.251 137.648 117.24 132.839C116.288 131.319 116.714 131.261 128.839 131.261C135.76 131.261 141.424 131.567 141.424 131.941ZM99.9402 197.589C96.9036 202.211 87.3545 204.754 82.457 202.245C80.1878 201.082 76.0132 197.255 76.0132 196.336C76.0132 195.963 81.6822 195.656 88.6115 195.656H101.21L99.9402 197.589ZM141.424 196.336C141.424 197.255 137.25 201.082 134.98 202.245C130.083 204.754 120.534 202.211 117.497 197.589L116.228 195.656H128.826C135.755 195.656 141.424 195.963 141.424 196.336ZM180.912 198.063C177.205 203.254 167.699 204.917 162.389 201.302C160.87 200.266 159.069 198.573 158.389 197.538L157.153 195.656H169.892H182.63L180.912 198.063ZM222.769 196.336C222.769 197.255 218.594 201.082 216.325 202.245C213.775 203.551 207.201 203.417 204.487 202.003C203.242 201.354 201.114 199.661 199.76 198.24L197.297 195.656H210.033C217.038 195.656 222.769 195.963 222.769 196.336ZM100.368 261.659C97.9075 266.244 90.7215 269.051 85.2269 267.575C81.9656 266.7 76.0132 262.323 76.0132 260.801C76.0132 260.389 81.6872 260.052 88.6216 260.052C100.801 260.052 101.201 260.106 100.368 261.659ZM141.424 260.801C141.424 262.283 135.511 266.689 132.42 267.511C126.921 268.973 120.389 266.552 117.296 261.906L116.062 260.052H128.743C135.718 260.052 141.424 260.389 141.424 260.801ZM181.713 261.659C179.252 266.244 172.066 269.051 166.572 267.575C163.31 266.7 157.358 262.323 157.358 260.801C157.358 260.389 163.032 260.052 169.966 260.052C182.145 260.052 182.545 260.106 181.713 261.659ZM222.769 260.73C222.769 261.908 219.472 264.997 216.665 266.45C211.166 269.297 202.164 267.042 198.842 261.984L197.572 260.052H210.171C217.1 260.052 222.769 260.357 222.769 260.73Z" fill="#469797"/>
<path d="M61.7294 131.362C63.0315 131.585 63.2655 132.115 63.5774 133.354C65.1255 139.504 72.558 146.991 79.3465 149.24C88.2357 152.185 97.951 150.408 105.375 144.482L108.539 141.957L111.808 144.538C119.351 150.496 128.857 152.155 138.037 149.114C143.682 147.244 151.477 139.761 152.975 134.774L153.997 131.376L140.581 131.663C140.987 131.73 141.206 131.801 141.206 131.874C141.206 133.051 136.696 136.904 134.233 137.831C128.383 140.036 120.033 137.581 117.022 132.772C116.07 131.252 116.496 131.194 128.62 131.194H100.992L99.7221 133.127C96.7031 137.723 88.5108 139.996 82.7681 137.831C80.3051 136.904 75.7951 133.051 75.7951 131.874L61.7294 131.362Z" fill="#FF891B"/>
<path d="M63.216 196.878C63.216 201.419 71.2926 210.325 78.1633 213.361C86.4696 217.031 97.4134 215.233 105.356 208.893L108.501 206.383L111.645 208.893C122.353 217.44 136.364 217.349 145.996 208.67L149.324 205.672L151.735 208.182C155.497 212.098 162.28 214.912 168.315 215.063C175.274 215.235 180.335 213.665 185.583 209.705L189.953 206.406L193.044 208.828C200.004 214.283 206.907 216.158 214.775 214.735C223.264 213.2 230.873 207.282 234.289 199.562L236.047 195.59L222.551 196.27C222.551 197.188 218.376 201.015 216.107 202.178C213.557 203.484 206.983 203.351 204.269 201.936C203.024 201.287 200.896 199.594 199.542 198.173L197.079 195.59H198.387L197.079 195.553L182.412 195.59L180.694 197.996C176.987 203.187 167.481 204.85 162.171 201.235C160.652 200.199 158.851 198.507 158.171 197.471L156.935 195.59L141.206 196.27C141.206 197.188 137.032 201.015 134.762 202.178C129.865 204.687 120.316 202.144 117.279 197.522L116.009 195.59H100.992L99.7221 197.522C96.6855 202.144 87.1363 204.687 82.2389 202.178C79.9696 201.015 75.7951 197.188 75.7951 196.27L63.216 196.878Z" fill="#FF891B"/>
<path d="M62.2541 259.985L64.297 264.375C66.9159 270.003 71.6423 274.692 77.4723 277.448C81.1789 279.199 83.3199 279.625 88.3741 279.615C95.5299 279.602 100.307 277.858 105.399 273.4L108.501 270.684L111.603 273.4C116.597 277.772 121.452 279.538 128.627 279.591C133.766 279.629 135.76 279.232 139.529 277.427C142.066 276.212 145.163 274.235 146.411 273.037C149.261 270.3 149.596 270.314 152.469 273.305C156.392 277.388 162.482 279.6 169.719 279.57C176.871 279.541 181.731 277.789 186.682 273.454L189.723 270.791L194.131 274.118C207.893 284.504 226.955 279.886 234.042 264.447L236.092 259.985L222.551 260.663C222.551 261.841 219.254 264.93 216.447 266.383C210.948 269.23 201.946 266.975 198.624 261.918L197.354 259.985H169.748C181.927 259.985 182.327 260.039 181.494 261.592C179.034 266.177 171.848 268.984 166.353 267.508C163.092 266.633 157.14 262.256 157.14 260.734H141.206C141.206 262.216 135.293 266.622 132.202 267.444C126.703 268.906 120.171 266.485 117.078 261.839L115.843 259.985L99.7221 260.31C100.636 260.54 100.505 260.929 100.15 261.592C97.6893 266.177 90.5033 268.984 85.0088 267.508C81.7475 266.633 75.7951 262.256 75.7951 260.734L62.2541 259.985Z" fill="#FF891B"/>
</svg>
