<svg width="364" height="296" viewBox="0 0 364 296" fill="none" xmlns="http://www.w3.org/2000/svg">
<path fill-rule="evenodd" clip-rule="evenodd" d="M43.9204 2.40286C40.8628 3.95054 36.177 7.78304 32.5112 11.7316C29.0905 15.4183 21.4919 21.8858 15.6266 26.1042C4.10929 34.3873 0 38.7982 0 42.8787C0 46.7965 2.91579 47.9106 9.38034 46.4642C16.6515 44.8361 33.2097 45.6953 37.5025 47.9216C39.3042 48.8561 41.0562 50.3443 41.3955 51.2292C42.4531 53.9843 39.9103 65.4987 36.2455 74.5546C28.0944 94.6982 25.375 110.533 26.9237 128.844C28.6033 148.713 32.8188 162.885 40.587 174.785C51.3562 191.282 65.4014 202.758 88.9937 214.338C108.92 224.119 125.509 236.973 128.019 244.578C129.962 250.465 127.954 254.189 121.247 257.133C118.13 258.502 113.307 260.145 110.528 260.786C105.942 261.843 104.807 261.716 98.2024 259.408C94.2012 258.01 90.0006 256.868 88.8687 256.87C84.9538 256.877 80.538 260.508 79.2601 264.772C78.3077 267.95 77.6777 268.683 76.2789 268.24C72.7906 267.133 66.4878 269.688 64.4451 273.039C61.9807 277.081 62.0184 281.005 64.576 286.63L66.6068 291.094L70.0246 287.374C73.7053 283.367 75.4604 282.823 77.3523 285.103C78.0141 285.9 79.5191 286.842 80.6977 287.196C81.8763 287.55 84.4518 289.676 86.4211 291.919L90.0026 296L91.5781 292.951L93.1545 289.904L109.328 289.11C118.223 288.673 128.747 288.229 132.715 288.123C138.808 287.958 140.325 287.558 142.482 285.542C144.653 283.515 144.965 282.524 144.567 278.941C144.137 275.065 144.284 274.724 146.385 274.724C149.354 274.724 153.071 270.053 152.495 267.043C152.153 265.254 153.03 264.069 156.639 261.441C166.94 253.94 175.551 251.096 191.972 249.772C207.939 248.484 211.197 248.454 237.113 249.348L259.435 250.119L269.356 253.889C292.527 262.695 332.461 273.732 341.151 273.732C348.912 273.732 353.089 269.185 350.231 263.847C349.697 262.847 346.236 259.863 342.543 257.215L335.827 252.402L344.057 251.719C354.29 250.871 358.544 249.505 361.11 246.244C368.459 236.9 356.118 226.675 318.217 210.703C305.044 205.151 304.576 204.852 304.576 202.008C304.576 197.098 299.317 193.197 285.509 187.866C264.372 179.706 246.404 170.391 238.601 163.551C234.781 160.202 229.09 155.432 225.952 152.949C222.814 150.465 220.247 147.915 220.247 147.281C220.247 146.29 207.884 134.946 201.893 130.441C200.069 129.068 200.509 128.946 207.389 128.917C215.948 128.88 225.19 126.763 229.175 123.925C232.555 121.518 235.129 116.284 235.129 111.816C235.129 108.339 231.366 103.714 226.513 101.225C222.979 99.4137 213.693 99.879 209.1 102.098C206.841 103.19 204.853 104.083 204.683 104.083C204.512 104.083 204.373 101.498 204.373 98.3403C204.373 88.7218 198.736 80.6421 190.602 78.6004C187.256 77.7611 181.74 80.8485 178.757 85.2326C176.588 88.4192 176.433 89.4391 176.867 97.6339C177.172 103.363 178.095 108.518 179.448 112.019C180.606 115.02 181.554 117.558 181.554 117.659C181.555 117.761 177.681 116.054 172.945 113.867C165.592 110.469 164.018 110.059 162.149 111.059C160.28 112.06 158.611 111.623 150.669 108.05C137.078 101.938 128.739 96.7876 121.56 90.0711C109.722 78.9962 103.748 67.1535 99.6072 46.5475C94.6457 21.86 92.2418 15.708 85.0054 9.17C78.0389 2.8761 71.4037 0.520842 59.5262 0.124001C49.8611 -0.199425 48.7351 -0.0347355 43.9204 2.40286ZM73.0347 9.5966C83.9776 15.2923 86.9747 20.7826 91.8827 44.1238C93.8252 53.3652 96.7083 64.2744 98.2897 68.3668C102.88 80.2512 110.674 90.9997 120.334 98.7688L124.095 101.794L114.878 102.429C100.694 103.407 71.5971 110.809 60.8606 116.17C55.2651 118.965 48.1914 126.109 45.3887 131.796C42.47 137.72 42.3043 148.952 45.0306 156.168C49.6984 168.526 62.3279 182.659 79.5865 194.839C84.1046 198.028 89.5869 202.015 91.7696 203.7C97.9077 208.436 120.301 219.348 132.751 223.669C138.921 225.81 143.549 227.702 143.036 227.872C140.964 228.563 116.607 219.551 101.765 212.602C74.5318 199.852 62.692 191.637 51.4981 177.721C39.3875 162.667 33.5718 143.582 33.5926 118.964C33.6035 105.762 35.6453 95.9304 41.6277 80.2721C50.9267 55.9318 50.8503 47.5614 41.2745 41.6435C39.3081 40.4282 37.7168 39.1355 37.7386 38.7704C37.7595 38.4063 39.2099 37.2088 40.963 36.1096C45.6457 33.1739 45.7022 29.6927 41.1326 25.5357C35.433 20.349 35.0728 19.0563 38.3547 15.5512C39.9044 13.8964 43.1813 11.2286 45.6368 9.62339C49.9296 6.81772 50.4643 6.7195 59.5262 7.08757C66.6882 7.37826 69.9314 7.98047 73.0347 9.5966ZM56.4437 19.1178C54.6897 19.9879 53.9893 21.2588 53.7621 23.9871C53.5012 27.1191 53.8335 27.8513 55.9536 28.8176C59.423 30.398 63.5006 27.76 63.4797 23.9474C63.452 19.1436 60.4915 17.1118 56.4437 19.1178ZM33.0142 27.7928C34.5004 29.4853 35.7157 31.0479 35.7157 31.2651C35.7157 31.8971 25.1191 31.7185 23.3948 31.0568C22.1705 30.5865 22.6438 29.8375 25.5457 27.6519C27.5924 26.1112 29.5022 24.8194 29.7899 24.7817C30.0776 24.745 31.529 26.0993 33.0142 27.7928ZM19.2964 37.7227C19.855 38.2456 18.4938 38.6037 15.951 38.6037C12.2227 38.6037 11.8259 38.4063 12.9162 37.0928C14.1692 35.5828 17.341 35.8963 19.2964 37.7227ZM196.129 91.9799C197.143 94.4066 197.462 97.2033 197.086 100.375C196.496 105.359 190.807 117.297 189.428 116.445C187.64 115.34 184.322 104.132 183.811 97.4771C183.298 90.7834 183.416 90.2258 185.871 87.7724C188.392 85.2514 188.571 85.2187 191.541 86.7545C193.356 87.693 195.229 89.827 196.129 91.9799ZM224.959 109.032C226.733 110.114 228.184 111.615 228.184 112.367C228.184 115.273 224.006 118.949 219.021 120.43C213.785 121.984 198.421 122.54 198.421 121.175C198.421 119.246 205.073 112.65 209.687 110.004C215.688 106.563 220.416 106.261 224.959 109.032ZM134.821 111.901C138.309 112.992 143.497 114.914 146.349 116.172L151.534 118.461L138.336 131.146C118.639 150.077 105.852 168.142 98.1716 187.889C96.361 192.541 94.5345 196.348 94.1119 196.348C93.6883 196.348 88.7476 192.889 83.1313 188.659C60.935 171.947 50.0486 157.313 50.1459 144.314C50.2173 134.817 55.5618 126.867 65.077 122.106C71.4999 118.892 94.6883 112.475 110.123 109.639C115.09 108.727 128.632 109.968 134.821 111.901ZM170.322 130.735C148.708 150.328 129.003 174.609 114.655 199.324C112.597 202.871 110.755 205.939 110.563 206.141C110.371 206.345 108.164 205.309 105.659 203.842C100.453 200.791 100.443 201.666 105.862 188.411C109.844 178.674 116.108 167.795 123.349 158.04C129.837 149.301 147.079 131.925 157.033 124.096L164.755 118.023L171.099 121.152L177.444 124.28L170.322 130.735ZM194.427 133.797C195.565 134.477 192.958 137.483 182.712 147.306C162.689 166.5 146.548 187.015 134.456 208.638C131.598 213.749 130.34 215.165 129.102 214.666C128.213 214.307 125.135 213.1 122.263 211.983L117.04 209.952L120.15 204.39C133.627 180.289 155.102 153.893 176.884 134.657L184.615 127.831L188.789 130.376C191.085 131.777 193.623 133.316 194.427 133.797ZM210.705 147.978C211.912 149.892 208.557 154.406 191.785 173.429C169.721 198.454 163.623 205.782 157.713 214.371L151.797 222.968L145.098 220.419C141.413 219.017 138.236 217.738 138.036 217.577C137.245 216.937 150.788 195.539 158.544 185.176C169.298 170.806 178.691 160.453 191.341 149.02L201.623 139.728L205.67 143.069C207.895 144.907 210.161 147.116 210.705 147.978ZM226.534 165.097C232.311 169.189 237.309 172.538 237.641 172.538C237.972 172.538 240.112 173.822 242.395 175.394C248.649 179.697 263.678 186.879 279.245 193.004C297.159 200.052 298.006 200.6 297.337 204.716C297.051 206.483 297.129 208.433 297.51 209.05C297.892 209.667 303.767 212.442 310.567 215.217C337.324 226.137 357.986 238.236 355.831 241.723C354.443 243.969 344.534 244.961 323.625 244.947C311.783 244.939 294.729 244.504 285.726 243.98C265.248 242.787 217.842 237.712 201.397 234.952C187.668 232.648 161.715 226.416 160.333 225.09C158.959 223.775 169.415 209.994 186.888 190.087C195.601 180.162 205.395 168.805 208.653 164.849C211.912 160.892 214.904 157.656 215.304 157.656C215.703 157.656 220.757 161.004 226.534 165.097ZM143.751 235.61C150.514 237.471 161.09 239.977 167.253 241.178C173.416 242.38 178.272 243.664 178.044 244.032C177.817 244.4 175.947 244.976 173.888 245.312C168.734 246.156 158.304 251.254 151.986 256.019C143.342 262.538 136.274 265.028 131.552 263.215C130.209 262.7 130.319 262.063 132.367 258.502C137.059 250.347 136.571 243.204 130.771 235.128C128.226 231.585 127.981 230.862 129.527 231.469C130.587 231.884 136.988 233.748 143.751 235.61ZM333.334 259.216C339.834 264.087 342.205 266.374 340.998 266.606C337.76 267.23 289.649 254.651 284.79 251.911C283.888 251.403 291.715 251.273 303.584 251.601L323.922 252.162L333.334 259.216ZM126.957 270.508C126.941 270.918 126.271 272.119 125.469 273.178C123.609 275.637 123.624 277.61 125.517 279.703C126.913 281.244 126.215 281.41 115.844 282.008C101.108 282.858 94.2478 282.828 94.2568 281.917C94.2607 281.507 97.497 280.398 101.45 279.451C105.402 278.504 111.984 276.006 116.076 273.9C123.349 270.158 127.021 269.013 126.957 270.508ZM92.2656 272.74C93.4254 273.489 93.1516 273.705 91.0255 273.717C89.5254 273.725 88.2972 273.286 88.2972 272.74C88.2972 271.486 90.3241 271.486 92.2656 272.74ZM83.3367 279.912C83.3367 280.493 82.7067 280.397 81.8485 279.685C81.03 279.005 80.3604 278.295 80.3604 278.106C80.3604 277.918 81.03 278.02 81.8485 278.334C82.667 278.648 83.3367 279.358 83.3367 279.912Z" fill="#469797"/>
<path fill-rule="evenodd" clip-rule="evenodd" d="M219.914 148.186C219.914 144.489 207.552 135.852 201.561 131.346C199.736 129.973 200.177 129.851 207.057 129.823C215.616 129.786 224.857 127.669 228.842 124.83C232.222 122.424 234.796 117.19 234.796 112.722C234.796 109.244 231.034 104.62 226.181 102.131C222.647 100.319 213.361 100.785 208.767 103.004C206.508 104.095 204.521 104.988 204.35 104.988C204.18 104.988 204.041 102.404 204.041 99.246C204.041 89.6275 198.404 81.5479 190.269 79.5061C186.923 78.6668 181.408 81.7542 178.425 86.1383C176.256 89.325 176.1 90.3448 176.535 98.5396C176.839 104.269 177.763 109.424 179.115 112.925C180.274 115.926 181.221 118.464 181.221 118.565C181.222 118.666 177.348 116.96 172.613 114.772C165.259 111.374 163.685 110.965 161.817 111.965L151.201 119.367L138.003 132.052C118.306 150.983 105.52 169.047 97.8391 188.794C96.0285 193.447 94.9068 194.094 93.7794 197.254C92.652 200.414 93.075 206.593 97.8391 208.645C107.247 213.964 122.8 221.236 132.419 224.574C138.589 226.715 143.217 228.607 142.703 228.778C150.293 231.135 157.132 230.668 160 225.996C162.868 221.324 169.082 210.899 186.556 190.993C195.269 181.068 205.063 169.711 208.321 165.755C211.58 161.798 214.572 158.562 214.972 158.562C218.655 154.537 219.914 151.884 219.914 148.186ZM196.754 101.281C197.13 98.109 196.81 95.3123 195.796 92.8856C194.897 90.7328 193.023 88.5987 191.209 87.6602C188.239 86.1244 188.059 86.1572 185.538 88.6781C183.084 91.1316 182.966 91.6891 183.478 98.3829C183.989 105.038 187.308 116.246 189.096 117.351C190.475 118.203 196.163 106.265 196.754 101.281ZM227.851 113.272C227.851 112.52 226.401 111.019 224.627 109.938C220.083 107.167 215.356 107.469 209.354 110.91C204.74 113.556 198.088 120.152 198.088 122.08C198.088 123.445 213.453 122.89 218.688 121.336C223.674 119.855 227.851 116.179 227.851 113.272ZM114.323 200.23C128.671 175.515 148.376 151.234 169.99 131.641L177.111 125.186L170.767 122.057L164.422 118.928L156.701 125.002C146.747 132.831 129.504 150.206 123.017 158.946C115.775 168.701 109.511 179.58 105.53 189.317C105.253 189.995 104.99 190.636 104.741 191.243C101.917 198.125 100.919 200.557 101.7 202.071C102.127 202.899 103.086 203.452 104.57 204.308L104.571 204.309C104.809 204.446 105.061 204.592 105.326 204.747C107.832 206.215 110.038 207.25 110.23 207.047C110.423 206.845 112.264 203.777 114.323 200.23ZM182.379 148.211C192.626 138.388 195.233 135.382 194.095 134.703C193.29 134.222 190.753 132.683 188.457 131.282L184.282 128.736L176.552 135.563C154.77 154.799 133.295 181.195 119.817 205.296L116.708 210.858L121.93 212.888C124.802 214.006 127.88 215.213 128.77 215.572C130.007 216.071 131.265 214.654 134.123 209.544C146.215 187.921 162.357 167.405 182.379 148.211ZM191.453 174.334C208.224 155.312 211.58 150.798 210.372 148.884C209.829 148.022 207.563 145.812 205.337 143.975L201.291 140.634L191.009 149.926C178.358 161.359 168.966 171.712 158.212 186.082C150.455 196.444 136.912 217.843 137.704 218.483C137.903 218.644 141.081 219.922 144.766 221.324L151.464 223.874L157.38 215.276C163.29 206.688 169.389 199.36 191.453 174.334Z" fill="#FF891B"/>
</svg>
