<svg width="311" height="296" viewBox="0 0 311 296" fill="none" xmlns="http://www.w3.org/2000/svg">
<path fill-rule="evenodd" clip-rule="evenodd" d="M133.497 2.67684C112.071 13.3541 94.8554 51.0575 99.4254 77.299C100.933 85.9575 103.126 90.1845 109.911 97.514L115.376 103.417L114.792 111.798C113.774 126.406 117.297 141.332 123.765 149.811C128.489 156.005 138.022 161.881 149.386 165.602L159.317 168.854V196.595V224.335L122.679 224.597L86.0414 224.859V227.849V230.84L106.728 231.109C118.105 231.258 127.415 231.778 127.415 232.266C127.415 233.838 119.788 242.858 115.815 245.985C95.7746 261.759 63.683 258.048 47.3062 238.061C39.1891 228.156 36.1913 218.183 36.9111 203.48C37.4644 192.18 40.4173 184.815 47.3839 177.368C51.7545 172.695 61.3461 167.552 62.5006 169.263C62.8366 169.76 65.9719 173.837 69.4672 178.322C76.1248 186.864 78.2074 187.966 82.1125 185.013C83.1762 184.207 84.3436 183.534 84.7055 183.517C85.0674 183.499 88.1888 187.299 91.6402 191.959C96.0667 197.936 98.5371 200.433 100.022 200.433C103.087 200.433 118.442 188.704 118.442 186.363C118.442 185.318 115.892 180.631 112.775 175.948L107.108 167.432L109.785 164.95C111.256 163.585 112.446 161.927 112.429 161.264C112.413 160.6 101.083 144.355 87.2527 125.164C68.6218 99.3105 61.5266 90.1885 59.8647 89.9522C58.6315 89.7768 56.4412 90.5624 54.9986 91.6969C53.555 92.8324 52.0167 93.7605 51.5791 93.7605C51.1414 93.7605 46.8915 88.3771 42.135 81.7972C35.7277 72.9334 32.9343 69.8329 31.3511 69.8309C28.5995 69.8259 13.9754 79.7306 13.1808 82.1362C12.7581 83.4143 15.2475 87.8975 21.3936 96.9308L30.2126 109.891L27.471 112.081C25.9626 113.287 24.7294 115.207 24.7294 116.349C24.7294 117.491 26.9725 121.502 29.7141 125.263C32.4557 129.023 34.6988 132.478 34.6988 132.938C34.6988 134.284 29.1728 141.888 26.2198 144.605C18.355 151.84 8.63377 167.729 4.32997 180.383C-0.588948 194.845 -1.38352 212.94 2.28823 226.852C6.15038 241.485 19.4187 261.738 32.0859 272.337C36.27 275.838 43.6534 280.5 50.0687 283.691L60.9533 289.107L46.0809 289.383L31.2095 289.66V292.651V295.642L83.6687 295.9C140.072 296.177 139.492 296.227 137.897 291.203C137.284 289.272 136.458 289.157 122.612 289.094C111.028 289.041 108.495 288.796 110.467 287.922C129.448 279.512 135.17 276.078 144.333 267.595C147.42 264.736 151.942 259.653 154.382 256.299L158.818 250.2L159.319 266.94C159.748 281.306 160.101 284.158 161.811 287.063C167.815 297.267 180.257 297.524 185.969 287.562C188.094 283.855 188.196 282.636 188.213 260.749C188.234 234.456 188.738 232.295 195.635 228.927C199.103 227.235 200.191 227.149 205.08 228.173C212.228 229.674 218.81 233.794 222.546 239.109C226.483 244.711 227.282 254.072 224.238 258.919C222.158 262.231 222.932 261.967 205.425 265.343C200.656 266.264 198.981 267.188 195.456 270.845C191.685 274.756 191.219 275.758 191.223 279.958C191.227 285.93 193.786 290.228 198.828 292.73C202.366 294.487 205.502 294.668 236.9 294.932C257.568 295.104 273.357 294.808 276.778 294.183C299.217 290.083 313.231 269.611 309.916 245.777C308.745 237.361 306.466 231.119 300.353 219.583C289.863 199.785 276.869 185.47 253.778 168.269L239.074 157.316L243.31 153.564C253.257 144.755 257.202 133.545 256.895 114.957L256.692 102.755L262.382 96.7913C271.318 87.422 272.477 84.0264 272.434 67.3416C272.4 54.2427 272.198 52.8021 269.152 43.9134C262.777 25.3134 249.534 7.88587 237.632 2.43758C232.935 0.287172 230.837 -0.104627 225.747 0.219379C217.955 0.715857 213.862 3.61497 209.094 12.0182C203.527 21.8271 204.543 21.225 197.361 18.9759C189.801 16.6071 179.538 16.4018 172.685 18.4804C169.993 19.2969 167.686 19.9698 167.558 19.9758C167.431 19.9818 166.198 17.7606 164.819 15.0389C161.768 9.0184 156.995 3.43552 153.236 1.49248C148.615 -0.897197 139.582 -0.355856 133.497 2.67684ZM150.843 8.87185C152.488 9.88374 155.519 13.5784 157.58 17.0837L161.326 23.4561L159.075 25.1878C156.891 26.8687 156.751 26.8348 154.332 24.0523C149.212 18.1614 143.631 17.6439 140.958 22.8131C140.162 24.3514 138.551 29.3919 137.377 34.0148C136.204 38.6366 131.965 51.3905 127.958 62.3568C123.951 73.3232 119.911 84.6505 118.979 87.5297C118.047 90.4088 116.957 92.7636 116.555 92.7636C114.961 92.7636 110.455 87.0122 108.389 82.3406C106.669 78.4505 106.203 75.4816 106.197 68.3834C106.186 56.6822 108.41 47.8832 114.559 35.3018C124.781 14.3889 140.814 2.70875 150.843 8.87185ZM234.971 9.46104C245.963 15.031 259.098 34.0098 263.645 50.892C266.002 59.6412 266.069 76.8544 263.768 82.0365C261.766 86.5457 256.023 93.8802 254.993 93.2431C254.586 92.9919 253.94 91.0987 253.557 89.036C253.174 86.9734 249.28 75.9222 244.902 64.4763C240.526 53.0304 235.885 39.3833 234.588 34.1503C230.694 18.4295 226.721 15.6301 218.742 22.9846C214.867 26.5566 213.997 26.9544 212.181 25.9824C210.1 24.8688 210.108 24.8219 213.364 18.8433C219.744 7.12421 225.461 4.64182 234.971 9.46104ZM202.141 29.032C209.284 32.5393 212.274 34.8432 220.665 43.2993C232.605 55.3354 236.58 62.3329 243.382 83.2926C249.093 100.895 250.41 108.523 249.827 120.625C249.274 132.128 246.344 139.646 239.769 146.435C218.211 168.698 151.136 168.908 131.257 146.775C120.281 134.556 118.943 113.075 127.485 86.2566C136.077 59.2863 146.119 43.6073 162.115 32.1923C171.31 25.6325 176.969 23.7951 186.19 24.3783C192.342 24.7681 195.09 25.5696 202.141 29.032ZM147.879 33.9161C146.299 35.565 144.841 36.7494 144.64 36.547C144.438 36.3456 144.804 34.0696 145.454 31.4905L146.635 26.8009L148.693 28.8586L150.752 30.9172L147.879 33.9161ZM227.491 35.9379L228.15 39.4272L224.533 35.8152L220.915 32.2033L222.732 29.4308L224.549 26.6583L225.69 29.5534C226.317 31.1455 227.128 34.0187 227.491 35.9379ZM156.316 77.3229C154.463 79.5571 153.827 89.1377 155.297 92.6868C157.301 97.525 161.077 97.7513 163.17 93.1604C164.671 89.8645 164.586 81.9208 163.015 78.8064C161.516 75.8325 158.168 75.0918 156.316 77.3229ZM208.776 77.3429C205.473 80.6458 205.473 91.2303 208.777 94.8811C210.915 97.2439 211.68 97.2259 214.149 94.7575C215.719 93.1873 216.142 91.4347 216.142 86.5058C216.142 77.5692 212.759 73.3601 208.776 77.3429ZM35.9729 86.0342C38.9099 90.009 42.155 94.5491 43.1828 96.1223L45.0521 98.9815L41.6206 101.828C39.7324 103.393 37.6528 104.685 36.9988 104.7C35.9919 104.723 22.9578 86.8029 22.4195 84.6565C22.2181 83.8549 28.6474 78.8064 29.8687 78.8064C30.2884 78.8064 33.0359 82.0594 35.9729 86.0342ZM65.6649 107.993C69.2619 113.05 79.2124 126.921 87.7761 138.815L103.347 160.443L91.5465 168.973C85.0554 173.666 79.4985 177.504 79.1974 177.504C78.4118 177.504 67.598 163.986 67.598 163.003C67.598 162.552 68.548 160.219 69.7105 157.819C72.6126 151.823 71.9775 144.385 68.0177 138.01C63.9113 131.397 59.2107 129.152 49.4646 129.15L41.7991 129.149L37.6358 123.334C35.297 120.068 33.8494 117.143 34.334 116.66C36.0547 114.95 57.9864 98.7463 58.5477 98.7712C58.8647 98.7851 62.0669 102.935 65.6649 107.993ZM175.836 102.655C174.882 103.71 173.856 106.402 173.556 108.639C173.116 111.921 173.51 113.459 175.596 116.611C178.004 120.251 184.014 125.663 185.647 125.663C187.461 125.663 193.548 119.962 195.755 116.198C198.63 111.291 198.843 107.624 196.487 103.634C194.81 100.794 194.612 100.739 186.173 100.739C178.952 100.739 177.293 101.047 175.836 102.655ZM190.933 109.337C191.135 109.953 190.105 111.879 188.644 113.616C186.072 116.673 185.923 116.717 184.024 114.999C181.4 112.625 180.017 109.902 180.795 108.643C181.632 107.289 190.458 107.893 190.933 109.337ZM55.3206 136.696C64.9541 140.346 67.246 152.492 59.5267 158.988C53.0914 164.403 44.8856 162.976 39.878 155.571C35.7207 149.423 38.3935 141.122 45.736 137.379C49.7028 135.356 51.4555 135.231 55.3206 136.696ZM165.714 145.519C164.948 146.283 165.288 150.463 166.159 151C168.848 152.663 186.843 153.729 195.315 152.727C205.034 151.577 207.439 150.445 206.969 147.239C206.681 145.279 206 145.21 186.401 145.157C175.251 145.127 165.942 145.291 165.714 145.519ZM33.016 159.197C34.8215 162.687 39.6148 167.062 42.7123 168.045C44.6374 168.656 44.5536 168.915 41.2468 172.575C31.8845 182.938 27.457 199.327 29.6075 215.652C32.3062 236.136 48.8953 255.541 68.0964 260.675C83.7614 264.863 100.645 263.476 112.785 257.005C119.876 253.227 129.686 243.695 133.895 236.495L136.885 231.379L147.603 231.359C156.763 231.342 158.32 231.57 158.32 232.931C158.32 236.717 149.741 250.725 142.984 257.972C114.403 288.628 68.8581 292.843 38.3247 267.658C16.5864 249.727 4.7746 223.648 7.6458 199.926C9.6357 183.492 17.7438 164.942 27.6006 154.278L30.1777 151.49L30.7918 153.785C31.1298 155.049 32.1307 157.484 33.016 159.197ZM247.959 173.16C266.231 186.809 278.306 198.674 286.701 211.225C297.93 228.012 302.876 240.602 302.876 252.393C302.876 263.596 300.228 270.064 292.496 277.74C282.954 287.215 281.99 287.412 242.533 287.928C219.78 288.226 208.303 288.01 205.393 287.226C197.963 285.225 196.021 278.327 201.818 274.527C203.244 273.593 208.795 272.061 214.153 271.122C219.511 270.183 225.044 268.661 226.45 267.741C230.608 265.015 233.507 257.8 233.46 250.29C233.411 242.223 231.56 237.8 225.55 231.374C216.553 221.756 201.462 217.649 191.983 222.238C188.39 223.977 185.766 224.36 177.445 224.36H167.292L167.295 197.193L167.297 170.027L184.991 169.944C203.63 169.857 214.304 168.226 225.613 163.736C228.355 162.647 231.008 161.711 231.509 161.654C232.01 161.599 239.412 166.776 247.959 173.16ZM105.602 178.678L109.786 184.838L105.889 188.135C103.746 189.948 101.662 191.438 101.256 191.446C100.493 191.462 91.5047 179.52 91.5505 178.551C91.5914 177.654 98.899 172.596 100.211 172.556C100.876 172.536 103.302 175.291 105.602 178.678ZM181.495 254.517C181.211 280.495 180.939 283.279 178.488 285.384C175.068 288.319 173.245 288.289 170.205 285.249L167.292 282.336V256.838V231.339L174.52 231.338L181.748 231.337L181.495 254.517Z" fill="#469797"/>
<path fill-rule="evenodd" clip-rule="evenodd" d="M159.317 224.29L122.679 224.553L88.0272 224.8C86.9282 224.807 86.0414 225.701 86.0414 226.8V227.805V228.821C86.0414 229.916 86.9211 230.807 88.0154 230.821L106.728 231.065C118.105 231.213 127.415 231.734 127.415 232.221C127.415 233.793 119.788 242.814 115.815 245.94C95.7746 261.715 63.683 258.003 47.3062 238.016C39.1891 228.112 36.1913 218.138 36.9111 203.435C37.4644 192.135 40.4173 184.771 47.3839 177.323C51.7545 172.651 61.3461 167.507 62.5006 169.218C62.8366 169.716 65.9719 173.792 69.4672 178.277C76.1248 186.819 78.2074 187.921 82.1125 184.968C83.1762 184.162 84.3436 183.489 84.7055 183.473C85.0674 183.455 88.1888 187.254 91.6402 191.915C96.0667 197.891 98.5371 200.389 100.022 200.389C103.087 200.389 118.442 188.66 118.442 186.318C118.442 185.273 115.892 180.586 112.775 175.903L108.051 168.804C107.507 167.987 107.637 166.897 108.356 166.229L109.785 164.905C111.256 163.541 112.446 161.882 112.429 161.219C112.413 160.555 101.083 144.311 87.2527 125.119C68.6218 99.2657 61.5266 90.1437 59.8647 89.9074C58.6315 89.732 56.4412 90.5176 54.9986 91.6521C53.555 92.7876 52.0167 93.7158 51.5791 93.7158C51.1414 93.7158 46.8915 88.3323 42.135 81.7524C35.7277 72.8886 32.9343 69.7881 31.3511 69.7861C28.5995 69.7811 13.9754 79.6858 13.1808 82.0914C12.7581 83.3695 15.2475 87.8527 21.3936 96.886L29.1705 108.315C29.7585 109.179 29.582 110.35 28.7653 111.003L27.471 112.037C25.9626 113.242 24.7294 115.162 24.7294 116.304C24.7294 117.446 26.9725 121.458 29.7141 125.218C32.4557 128.979 34.6988 132.433 34.6988 132.894C34.6988 134.239 29.1728 141.843 26.2198 144.56C18.355 151.796 8.63377 167.684 4.32997 180.338C-0.588948 194.8 -1.38352 212.895 2.28823 226.808C6.15038 241.44 19.4187 261.694 32.0859 272.292C36.27 275.793 43.6534 280.455 50.0687 283.646L53.6399 285.423C55.5134 286.355 54.8783 289.175 52.7861 289.213L46.0809 289.338L33.1723 289.578C32.0824 289.599 31.2095 290.488 31.2095 291.578V292.606V293.607C31.2095 294.707 32.099 295.601 33.1997 295.607L83.6687 295.855C140.072 296.132 139.492 296.182 137.897 291.158C137.284 289.227 136.458 289.113 122.612 289.049C111.028 288.996 108.495 288.752 110.467 287.877C129.448 279.467 135.17 276.033 144.333 267.55C147.42 264.691 151.942 259.608 154.382 256.254L158.696 250.323C158.777 250.211 158.847 250.092 158.903 249.966L166.762 232.474C167.085 231.756 167.799 231.294 168.586 231.294L174.52 231.293L181.748 231.292H188.416C189.521 231.292 190.416 230.396 190.416 229.292V226.294C190.416 225.188 189.518 224.292 188.412 224.294L177.445 224.315H167.292L159.317 224.29ZM43.1828 96.0775C42.155 94.5043 38.9099 89.9643 35.9729 85.9894C33.0359 82.0146 30.2884 78.7616 29.8687 78.7616C28.6474 78.7616 22.2181 83.8101 22.4195 84.6117C22.9578 86.7581 35.9919 104.678 36.9988 104.655C37.6528 104.64 39.7324 103.348 41.6206 101.783L43.6781 100.076C44.4609 99.4271 44.6318 98.2938 44.0753 97.4426L43.1828 96.0775ZM87.7761 138.771C79.2124 126.876 69.2619 113.006 65.6649 107.948C62.0669 102.891 58.8647 98.7403 58.5477 98.7264C57.9864 98.7015 36.0547 114.905 34.334 116.616C33.8495 117.098 35.297 120.023 37.6358 123.289L41.2008 128.269C41.5763 128.793 42.1817 129.104 42.8268 129.104L49.4646 129.105C59.2107 129.107 63.9113 131.352 68.0177 137.965C71.9775 144.341 72.6126 151.778 69.7105 157.774C68.5481 160.174 67.598 162.507 67.598 162.958C67.598 163.941 78.4118 177.459 79.1974 177.459C79.4985 177.459 85.0554 173.621 91.5465 168.928L101.729 161.568C102.623 160.921 102.825 159.673 102.181 158.778L87.7761 138.771ZM59.5267 158.943C67.246 152.448 64.9541 140.301 55.3206 136.651C51.4555 135.187 49.7028 135.311 45.736 137.334C38.3935 141.078 35.7207 149.378 39.878 155.526C44.8856 162.932 53.0915 164.358 59.5267 158.943ZM42.7123 168C39.6148 167.017 34.8215 162.642 33.016 159.152C32.1307 157.439 31.1298 155.004 30.7918 153.741V153.741C30.5253 152.744 29.2648 152.433 28.5646 153.19L27.6006 154.233C17.7438 164.897 9.6357 183.448 7.6458 199.881C4.7746 223.603 16.5864 249.683 38.3247 267.614C68.8581 292.798 114.403 288.583 142.984 257.927C149.741 250.68 158.32 236.672 158.32 232.886C158.32 231.525 156.763 231.297 147.603 231.314L138.031 231.332C137.321 231.333 136.666 231.71 136.308 232.322L133.895 236.45C129.686 243.65 119.876 253.182 112.785 256.96C100.645 263.431 83.7614 264.818 68.0964 260.63C48.8953 255.497 32.3062 236.091 29.6075 215.607C27.457 199.282 31.8845 182.893 41.2468 172.53C44.5536 168.87 44.6374 168.611 42.7123 168ZM108.412 185.956C109.193 185.295 109.35 184.151 108.775 183.305L105.602 178.633C103.302 175.246 100.876 172.491 100.211 172.511C98.899 172.551 91.5914 177.61 91.5505 178.506C91.5047 179.475 100.493 191.417 101.256 191.401C101.662 191.393 103.746 189.903 105.889 188.09L108.412 185.956Z" fill="#FF891B"/>
</svg>
